<?xml version="1.0" standalone="no"?>
<!DOCTYPE svg PUBLIC "-//W3C//DTD SVG 1.1//EN" "http://www.w3.org/Graphics/SVG/1.1/DTD/svg11.dtd" >
<svg xmlns="http://www.w3.org/2000/svg" xmlns:xlink="http://www.w3.org/1999/xlink" version="1.1">
<metadata>
Created by FontForge 20200511 at Sat Aug  4 04:00:38 2018
 By convertio
Copyright \(c\) 2014 by Commercial Type, Inc.. All rights reserved. |DCNT
</metadata>
<defs>
<font id="DrukCyr-Heavy" horiz-adv-x="342" >
  <font-face 
    font-family="Druk Cyr"
    font-weight="900"
    font-stretch="normal"
    units-per-em="1000"
    panose-1="0 0 0 0 0 0 0 0 0 0"
    ascent="800"
    descent="-200"
    x-height="538"
    cap-height="744"
    bbox="-46 -215 1127 1064"
    underline-thickness="84"
    underline-position="-20"
    stemh="108"
    stemv="107"
    unicode-range="U+000D-FB04"
  />
<missing-glyph horiz-adv-x="109" 
 />
    <glyph glyph-name="f_i" unicode="fi" horiz-adv-x="480" 
d="M465 538v-538h-160v538h160zM465 702v-141h-160v141h160zM285 744v-129h-40c-16 0 -19 -5 -19 -20v-57h59v-135h-59v-403h-160v403h-60v135h60v118c0 52 37 88 92 88h127z" />
    <glyph glyph-name="f_l" unicode="fl" horiz-adv-x="480" 
d="M285 744v-129h-40c-16 0 -19 -5 -19 -20v-57h59v-135h-59v-403h-160v403h-60v135h60v118c0 52 37 88 92 88h127zM465 744v-744h-160v744h160z" />
    <glyph glyph-name="f_f" unicode="ff" horiz-adv-x="534" 
d="M286 744v-129h-41c-16 0 -19 -5 -19 -20v-57h76v118c0 53 37 88 92 88h131v-129h-44c-16 0 -19 -5 -19 -20v-57h62v-135h-62v-403h-160v403h-76v-403h-160v403h-60v135h60v118c0 53 37 88 92 88h128z" />
    <glyph glyph-name="emdash.alt" unicode="&#x2014;&#x2014;" horiz-adv-x="1141" 
d="M14 352h1113v-103h-1113v103z" />
    <glyph glyph-name=".notdef" horiz-adv-x="109" 
 />
    <glyph glyph-name="NULL" horiz-adv-x="0" 
 />
    <glyph glyph-name="NULL" horiz-adv-x="0" 
 />
    <glyph glyph-name="CR" unicode="&#xd;" horiz-adv-x="109" 
 />
    <glyph glyph-name="space" unicode=" " horiz-adv-x="109" 
 />
    <glyph glyph-name="exclam" unicode="!" horiz-adv-x="192" 
d="M166 161v-161h-141v161h141zM8 744h176l-49 -558h-79z" />
    <glyph glyph-name="quotedbl" unicode="&#x22;" horiz-adv-x="259" 
d="M120 744v-209h-106v209h106zM244 744v-209h-106v209h106z" />
    <glyph glyph-name="numbersign" unicode="#" horiz-adv-x="386" 
d="M101 746h103l-16 -203h33l16 203h104l-16 -203h56l-8 -107h-57l-7 -90h56l-8 -107h-56l-19 -239h-103l18 239h-33l-19 -239h-102l18 239h-56l9 107h56l7 90h-57l9 107h56zM179 436l-7 -90h34l7 90h-34z" />
    <glyph glyph-name="dollar" unicode="$" horiz-adv-x="406" 
d="M182 -73v62c-120 1 -172 60 -172 163v123h150v-117c0 -23 7 -37 22 -43v184l-82 66c-64 52 -87 109 -87 197v30c0 107 61 161 169 162v58h34v-58c116 -1 164 -49 164 -156v-88h-144v85c0 23 -4 35 -20 39v-162l83 -66c71 -58 98 -106 98 -202v-34
c0 -112 -65 -180 -181 -181v-62h-34zM241 164v29c0 39 -6 54 -25 75v-154c17 5 25 21 25 50zM162 594v-22c0 -35 4 -50 20 -69v131c-17 -4 -20 -17 -20 -40z" />
    <glyph glyph-name="percent" unicode="%" horiz-adv-x="550" 
d="M294 112v111c0 79 44 118 112 118h21c72 0 112 -41 112 -118v-111c0 -77 -44 -118 -113 -118h-19c-73 0 -113 39 -113 118zM11 522v111c0 80 44 118 112 118h20c72 0 113 -39 113 -118v-111c0 -76 -44 -118 -113 -118h-20c-72 0 -112 41 -112 118zM376 744h98l-299 -744
h-98zM148 506v145c0 11 -5 17 -15 17c-9 0 -14 -6 -14 -17v-145c0 -11 5 -17 14 -17c10 0 15 6 15 17zM417 78c9 0 14 6 14 17v145c0 11 -3 18 -14 18s-14 -7 -14 -18v-145c0 -11 5 -17 14 -17z" />
    <glyph glyph-name="ampersand" unicode="&#x26;" horiz-adv-x="503" 
d="M10 194v31c0 91 41 146 108 191c-32 64 -49 102 -49 169v26c0 67 34 143 146 143h27c99 0 140 -50 140 -138v-17c0 -87 -35 -124 -113 -180l74 -154c7 55 6 116 6 180h133c0 -145 -17 -242 -49 -316c21 -12 44 -15 69 -18l-13 -60c-7 -31 -15 -62 -16 -66
c-64 3 -104 16 -133 39c-24 -19 -58 -35 -113 -35h-8c-129 0 -209 69 -209 205zM243 114c9 0 19 2 29 5l-105 201c-5 -19 -8 -38 -8 -65v-23c0 -79 28 -118 84 -118zM208 612v-27c0 -32 5 -48 22 -84c19 24 22 41 22 80v32c0 27 -3 34 -22 34c-17 0 -22 -10 -22 -35z" />
    <glyph glyph-name="quotesingle" unicode="'" horiz-adv-x="136" 
d="M122 744v-209h-108v209h108z" />
    <glyph glyph-name="parenleft" unicode="(" horiz-adv-x="227" 
d="M21 344c0 208 55 354 114 464h93c-35 -96 -69 -269 -69 -461c0 -198 38 -373 73 -478h-94c-56 104 -117 262 -117 475z" />
    <glyph glyph-name="parenright" unicode=")" horiz-adv-x="227" 
d="M68 347c0 192 -34 365 -69 461h93c59 -110 115 -255 115 -464c0 -213 -62 -371 -118 -475h-93c32 105 72 280 72 478z" />
    <glyph glyph-name="asterisk" unicode="*" horiz-adv-x="254" 
d="M159 677l49 42l41 -69l-64 -24l63 -25l-39 -68l-51 43l10 -67h-83l11 67l-51 -42l-40 68l63 24l-64 24l40 69l51 -42l-10 67h83z" />
    <glyph glyph-name="plus" unicode="+" horiz-adv-x="347" 
d="M119 135v117h-105v99h105v118h109v-118h105v-99h-105v-117h-109z" />
    <glyph glyph-name="comma" unicode="," horiz-adv-x="170" 
d="M122 -101h-80c11 27 24 69 27 101h-55v161h142v-120c0 -63 -21 -113 -34 -142z" />
    <glyph glyph-name="hyphen" unicode="-" horiz-adv-x="201" 
d="M14 372h173v-146h-173v146z" />
    <glyph glyph-name="period" unicode="." horiz-adv-x="170" 
d="M156 161v-161h-142v161h142z" />
    <glyph glyph-name="slash" unicode="/" horiz-adv-x="238" 
d="M239 808l-138 -939h-112l139 939h111z" />
    <glyph glyph-name="zero" unicode="0" horiz-adv-x="424" 
d="M409 544v-355c0 -129 -70 -200 -182 -200h-32c-117 0 -179 75 -179 200v355c0 127 52 210 180 210h31c131 0 182 -84 182 -210zM237 178v387c0 24 -5 38 -26 38c-19 0 -24 -13 -24 -38v-387c0 -20 5 -35 24 -35c20 0 26 12 26 35z" />
    <glyph glyph-name="one" unicode="1" horiz-adv-x="273" 
d="M89 522h-80v138c76 0 100 35 104 84h140v-744h-164v522z" />
    <glyph glyph-name="two" unicode="2" horiz-adv-x="401" 
d="M193 618c-16 0 -21 -9 -21 -28v-101h-150v117c0 75 42 147 156 147h34c112 0 172 -55 172 -155v-39c0 -75 -4 -114 -65 -189c-21 -27 -45 -56 -72 -87c-94 -113 -91 -125 -91 -140h83v108h150v-251h-379v98c0 77 4 113 99 253c21 33 44 69 63 96c35 57 43 76 43 103v40
c0 19 -7 28 -22 28z" />
    <glyph glyph-name="three" unicode="3" horiz-adv-x="394" 
d="M168 508h-149v97c0 76 44 148 156 148h29c113 0 168 -57 168 -148v-74c0 -68 -32 -95 -51 -109c35 -12 60 -46 60 -95v-171c0 -108 -69 -167 -174 -167h-29c-128 0 -167 76 -167 147v140h158v-110c0 -18 8 -27 23 -27s23 9 23 27v127c0 19 -3 25 -22 25h-79v151h73
c16 0 24 9 24 26v95c0 21 -6 27 -22 27c-15 0 -21 -7 -21 -27v-82z" />
    <glyph glyph-name="four" unicode="4" horiz-adv-x="401" 
d="M164 305v159c-8 -26 -37 -113 -53 -159h53zM8 152v132c43 112 123 341 166 465h149v-444h70v-153h-70v-152h-159v152h-156z" />
    <glyph glyph-name="five" unicode="5" horiz-adv-x="397" 
d="M176 329h-156v415h348v-147h-196v-126c21 29 56 67 104 67h10c68 0 97 -58 97 -111v-281c0 -85 -59 -157 -167 -157h-40c-124 0 -163 74 -163 143v141h159v-111c0 -17 5 -28 22 -28c15 0 20 12 20 28v210c0 15 -3 28 -19 28s-19 -13 -19 -28v-43z" />
    <glyph glyph-name="six" unicode="6" horiz-adv-x="422" 
d="M299 484h8c69 0 101 -56 101 -109v-217c0 -92 -66 -168 -178 -168h-34c-121 0 -180 71 -180 166v427c0 92 54 171 179 171h29c119 0 170 -70 170 -151v-89h-167v73c0 17 -7 25 -20 25c-16 0 -21 -10 -21 -25v-170c19 24 55 67 113 67zM212 135c23 0 25 16 25 32v154
c0 23 -6 33 -25 33c-17 0 -26 -11 -26 -33v-154c0 -17 5 -32 26 -32z" />
    <glyph glyph-name="seven" unicode="7" horiz-adv-x="369" 
d="M12 744h346v-131c-8 -64 -20 -104 -47 -248c-23 -113 -31 -206 -31 -271v-94h-196v79c0 63 6 123 54 256c80 215 88 241 88 270h-69v-101h-145v240z" />
    <glyph glyph-name="eight" unicode="8" horiz-adv-x="412" 
d="M393 598v-89c0 -57 -30 -89 -57 -106c39 -20 64 -54 64 -110v-133c0 -111 -67 -170 -180 -171h-29c-119 0 -178 57 -178 172v132c0 56 23 87 62 110c-29 19 -55 49 -55 106v90c0 83 46 154 172 154h26c124 0 175 -67 175 -155zM230 164v133c0 20 -5 32 -24 32
c-16 0 -24 -11 -24 -32v-133c0 -17 7 -29 24 -29c16 0 24 10 24 29zM229 484v106c0 19 -8 28 -23 28s-23 -9 -23 -28v-106c0 -19 8 -28 24 -28c15 0 22 9 22 28z" />
    <glyph glyph-name="nine" unicode="9" horiz-adv-x="421" 
d="M130 258h-8c-71 0 -108 59 -108 127v199c0 84 45 169 171 169h36c124 0 185 -71 185 -167v-434c0 -84 -52 -163 -176 -163h-31c-126 0 -172 63 -172 140v99h168v-73c0 -16 4 -25 21 -25c15 0 19 10 19 25v169c-21 -24 -57 -66 -105 -66zM209 608c-21 0 -25 -17 -25 -33
v-154c0 -22 8 -33 25 -33s26 11 26 33v154c0 17 -3 33 -26 33z" />
    <glyph glyph-name="colon" unicode=":" horiz-adv-x="174" 
d="M158 161v-161h-142v161h142zM158 455v-160h-142v160h142z" />
    <glyph glyph-name="semicolon" unicode=";" horiz-adv-x="174" 
d="M124 -101h-80c11 25 24 68 27 101h-55v161h142v-120c0 -64 -21 -113 -34 -142zM158 455v-160h-142v160h142z" />
    <glyph glyph-name="less" unicode="&#x3c;" horiz-adv-x="296" 
d="M12 253v98l269 106v-108l-148 -48l148 -46v-110z" />
    <glyph glyph-name="equal" unicode="=" horiz-adv-x="341" 
d="M16 291h309v-93h-309v93zM16 406h309v-93h-309v93z" />
    <glyph glyph-name="greater" unicode="&#x3e;" horiz-adv-x="295" 
d="M14 349v108l270 -106v-98l-270 -108v110l149 47z" />
    <glyph glyph-name="question" unicode="?" horiz-adv-x="377" 
d="M231 186h-123v102c0 48 6 67 33 110l45 71c16 25 18 42 18 71v51c0 21 -5 31 -22 31c-19 0 -22 -11 -22 -31v-112h-148v116c0 80 25 158 156 158h35c119 0 162 -63 162 -153v-51c0 -62 -8 -97 -45 -144l-64 -82c-21 -26 -25 -37 -25 -75v-62zM241 161v-161h-142v161h142z
" />
    <glyph glyph-name="at" unicode="@" horiz-adv-x="648" 
d="M498 23l55 -62c-29 -39 -105 -103 -227 -103h-5c-119 0 -306 39 -306 387v103c0 237 115 383 314 383h9c176 0 295 -90 295 -314v-89c0 -233 -71 -290 -159 -290h-16c-59 0 -92 25 -109 68c-31 -48 -64 -68 -97 -68h-5c-50 0 -98 47 -93 125l13 273c3 64 37 106 85 106h7
c39 0 69 -27 92 -58l2 54h149l-22 -394c-1 -11 1 -20 13 -20c28 0 45 81 45 202v89c0 192 -88 234 -200 234h-9c-129 0 -215 -94 -215 -303v-100c0 -280 131 -304 207 -304h5c93 0 149 52 172 81zM334 167l13 245c1 19 -5 28 -16 28c-13 0 -15 -9 -16 -28l-13 -245
c-1 -18 4 -27 15 -27s16 9 17 27z" />
    <glyph glyph-name="A" unicode="A" horiz-adv-x="397" 
d="M240 0l-12 109h-76l-11 -109h-143l95 744h203l104 -744h-160zM190 482l-23 -226h46z" />
    <glyph glyph-name="B" unicode="B" horiz-adv-x="425" 
d="M18 0v744h250c85 0 131 -39 131 -140v-82c0 -71 -45 -105 -69 -113c35 -11 83 -39 83 -127v-110c0 -115 -45 -172 -135 -172h-260zM210 328h-27v-196h30c20 0 28 8 28 40v118c0 27 -7 38 -31 38zM207 617h-24v-160h23c19 0 30 9 30 37v88c0 23 -6 35 -29 35z" />
    <glyph glyph-name="C" unicode="C" horiz-adv-x="418" 
d="M241 176v149h163v-154c0 -93 -45 -183 -176 -183h-29c-139 0 -183 82 -183 197v378c0 107 48 191 182 191h30c132 0 176 -76 176 -174v-122h-163v115c0 24 -6 37 -27 37s-27 -10 -27 -37v-397c0 -25 7 -39 28 -39c20 0 26 16 26 39z" />
    <glyph glyph-name="D" unicode="D" horiz-adv-x="420" 
d="M18 0v744h236c92 0 149 -45 149 -164v-409c0 -117 -51 -171 -148 -171h-237zM181 606v-463h23c24 0 31 14 31 45v375c0 31 -6 43 -29 43h-25z" />
    <glyph glyph-name="E" unicode="E" 
d="M18 744h309v-154h-146v-127h117v-158h-117v-148h152v-157h-315v744z" />
    <glyph glyph-name="F" unicode="F" horiz-adv-x="339" 
d="M18 0v744h311v-153h-148v-128h114v-157h-114v-306h-163z" />
    <glyph glyph-name="G" unicode="G" horiz-adv-x="427" 
d="M163 -10h-8c-93 0 -139 78 -139 169v406c0 100 46 189 182 189h28c145 0 179 -89 179 -179v-86h-160v84c0 24 -6 39 -30 39c-19 0 -28 -13 -28 -39v-399c0 -29 11 -43 33 -43c23 0 34 14 34 42v138h-46v137h204v-448h-107c-2 15 -12 53 -20 69c-19 -32 -55 -79 -122 -79z
" />
    <glyph glyph-name="H" unicode="H" horiz-adv-x="424" 
d="M183 300v-300h-165v744h165v-270h57v270h165v-744h-165v300h-57z" />
    <glyph glyph-name="I" unicode="I" horiz-adv-x="201" 
d="M183 744v-744h-165v744h165z" />
    <glyph glyph-name="J" unicode="J" horiz-adv-x="399" 
d="M12 332h154v-168c0 -17 7 -26 22 -26h2c14 0 21 9 21 26v580h170v-585c0 -104 -54 -168 -166 -168h-49c-108 0 -154 57 -154 157v184z" />
    <glyph glyph-name="K" unicode="K" horiz-adv-x="425" 
d="M183 297v-297h-165v744h165v-263l77 263h164l-101 -332l107 -412h-173z" />
    <glyph glyph-name="L" unicode="L" horiz-adv-x="327" 
d="M18 744h165v-586h135v-158h-300v744z" />
    <glyph glyph-name="M" unicode="M" horiz-adv-x="504" 
d="M18 0v744h197l41 -348l43 348h186v-744h-142v406l-63 -406h-59l-63 406v-406h-140z" />
    <glyph glyph-name="N" unicode="N" horiz-adv-x="423" 
d="M18 744h160l85 -360v360h141v-744h-145l-98 388v-388h-143v744z" />
    <glyph glyph-name="O" unicode="O" horiz-adv-x="433" 
d="M418 544v-353c0 -129 -71 -202 -184 -202h-32c-121 0 -186 73 -186 202v353c0 128 54 210 185 210h32c132 0 185 -83 185 -210zM247 180v381c0 28 -10 42 -30 42c-23 0 -30 -14 -30 -42v-381c0 -23 8 -37 31 -37c21 0 29 14 29 37z" />
    <glyph glyph-name="P" unicode="P" horiz-adv-x="408" 
d="M261 287h-79v-287h-164v744h238c99 0 140 -50 140 -150v-154c0 -97 -50 -153 -135 -153zM182 614v-190h20c24 0 29 13 29 36v117c0 23 -4 37 -29 37h-20z" />
    <glyph glyph-name="Q" unicode="Q" horiz-adv-x="434" 
d="M418 544v-353c0 -108 -49 -176 -132 -196l64 -150h-188v147c-96 15 -146 84 -146 199v353c0 128 54 210 185 210h32c133 0 185 -83 185 -210zM247 180v381c0 28 -10 42 -30 42c-23 0 -30 -14 -30 -42v-381c0 -23 8 -37 31 -37c21 0 29 14 29 37z" />
    <glyph glyph-name="R" unicode="R" horiz-adv-x="417" 
d="M183 616v-171h21c21 0 30 9 30 36v100c0 27 -4 35 -27 35h-24zM183 305v-305h-165v744h259c73 0 123 -43 123 -131v-98c0 -69 -36 -100 -65 -113c28 -11 65 -42 65 -97v-246c0 -28 5 -43 10 -54v-5h-163c-7 9 -13 26 -13 53v216c0 25 -5 36 -28 36h-23z" />
    <glyph glyph-name="S" unicode="S" horiz-adv-x="411" 
d="M190 754h37c121 0 165 -59 165 -152v-89h-159v80c0 20 -5 32 -25 32c-19 0 -25 -12 -25 -33v-19c0 -31 7 -49 36 -76l85 -76c75 -69 98 -119 98 -200v-37c0 -116 -57 -194 -184 -194h-36c-115 0 -173 55 -173 164v119h162v-103c0 -25 7 -39 28 -39c20 0 27 15 27 44v20
c0 42 -3 61 -39 94l-86 77c-63 56 -85 116 -85 192v35c0 99 58 161 174 161z" />
    <glyph glyph-name="T" unicode="T" horiz-adv-x="368" 
d="M9 744h350v-154h-93v-590h-164v590h-93v154z" />
    <glyph glyph-name="U" unicode="U" horiz-adv-x="430" 
d="M18 177v567h170v-559c0 -25 9 -38 27 -38c20 0 27 14 27 38v559h170v-567c0 -113 -65 -189 -182 -189h-32c-124 0 -180 74 -180 189z" />
    <glyph glyph-name="V" unicode="V" horiz-adv-x="421" 
d="M106 0l-107 744h174l45 -466l45 466h159l-100 -744h-216z" />
    <glyph glyph-name="W" unicode="W" horiz-adv-x="629" 
d="M242 744h155l40 -457l35 457h158l-95 -744h-187l-32 394l-32 -394h-191l-94 744h169l34 -461z" />
    <glyph glyph-name="X" unicode="X" horiz-adv-x="411" 
d="M86 398l-80 346h167l35 -218l34 218h157l-76 -346l91 -398h-166l-44 251l-46 -251h-161z" />
    <glyph glyph-name="Y" unicode="Y" horiz-adv-x="382" 
d="M387 744l-109 -463v-281h-164v278l-120 466h165l41 -245l39 245h148z" />
    <glyph glyph-name="Z" unicode="Z" horiz-adv-x="368" 
d="M18 744h331v-140l-160 -450h169v-154h-349v141l159 451h-150v152z" />
    <glyph glyph-name="bracketleft" unicode="[" horiz-adv-x="214" 
d="M207 808v-112h-55v-716h55v-112h-182v940h182z" />
    <glyph glyph-name="backslash" unicode="\" horiz-adv-x="238" 
d="M138 -131l-140 939h112l139 -939h-111z" />
    <glyph glyph-name="bracketright" unicode="]" horiz-adv-x="214" 
d="M7 -132v112h54v716h-54v112h182v-940h-182z" />
    <glyph glyph-name="asciicircum" unicode="^" horiz-adv-x="267" 
d="M203 744l62 -318h-108l-25 169l-23 -169h-107l62 318h139z" />
    <glyph glyph-name="underscore" unicode="_" horiz-adv-x="381" 
d="M3 -127v107h375v-107h-375z" />
    <glyph glyph-name="grave" unicode="`" 
d="M212 707l45 -146h-123l-50 146h128z" />
    <glyph glyph-name="a" unicode="a" horiz-adv-x="388" 
d="M202 136v123c-7 -4 -20 -12 -28 -21c-8 -11 -11 -19 -11 -39v-63c0 -16 4 -26 19 -26s20 11 20 26zM11 96v106c0 57 23 91 68 115c27 13 96 42 112 50c8 4 11 5 11 20v28c0 16 -6 24 -19 24h-3c-16 0 -20 -9 -20 -24v-50h-142v61c0 71 45 121 152 121h22
c115 0 164 -43 164 -127v-277c0 -9 3 -12 15 -12h14v-131h-141c-27 0 -41 20 -41 61c-17 -28 -52 -67 -103 -67h-4c-56 0 -85 49 -85 102z" />
    <glyph glyph-name="b" unicode="b" horiz-adv-x="395" 
d="M16 744h160v-270c19 24 54 69 106 69h6c60 0 92 -53 92 -113v-309c0 -64 -45 -131 -108 -131h-3c-55 0 -87 38 -114 81c-5 -19 -13 -60 -13 -71h-126v744zM176 392v-251c0 -16 4 -30 20 -30c17 0 22 13 22 29v252c0 20 -7 30 -22 30c-17 0 -20 -15 -20 -30z" />
    <glyph glyph-name="c" unicode="c" horiz-adv-x="368" 
d="M212 241h145v-108c0 -83 -52 -145 -152 -145h-30c-105 0 -162 57 -162 157v240c0 93 44 164 161 164h33c112 0 150 -61 150 -143v-81h-144v78c0 19 -4 29 -21 29c-15 0 -18 -9 -18 -28v-265c0 -16 3 -27 18 -27c13 0 20 9 20 26v103z" />
    <glyph glyph-name="d" unicode="d" horiz-adv-x="397" 
d="M222 744h160v-744h-159v60c-19 -29 -54 -71 -103 -71h-3c-60 0 -102 60 -102 129v305c0 64 33 121 92 121h6c54 0 87 -40 109 -67v267zM222 146v239c0 21 -4 36 -23 36s-23 -12 -23 -32v-246c0 -19 4 -32 23 -32s23 15 23 35z" />
    <glyph glyph-name="e" unicode="e" horiz-adv-x="375" 
d="M174 549h31c96 0 158 -48 158 -160v-138h-195v-113c0 -20 7 -30 22 -30c16 0 21 11 21 30v76h152v-74c0 -97 -65 -151 -158 -151h-31c-99 0 -161 50 -161 154v246c0 93 51 160 161 160zM168 410v-61h45v61c0 23 -4 33 -23 33s-22 -10 -22 -33z" />
    <glyph glyph-name="f" unicode="f" horiz-adv-x="301" 
d="M292 744v-129h-46c-16 0 -19 -5 -19 -20v-57h65v-135h-65v-403h-159v403h-62v135h62v118c0 53 37 88 92 88h132z" />
    <glyph glyph-name="g" unicode="g" horiz-adv-x="396" 
d="M221 -55v114c-19 -29 -53 -69 -101 -69c-60 0 -105 45 -105 120v304c0 70 32 128 97 128h3c51 0 83 -36 108 -69v65h158v-595c0 -76 -48 -138 -167 -138h-31c-121 0 -161 49 -161 111v63h155v-36c0 -15 4 -22 20 -22h3c16 0 21 8 21 24zM221 136v255c0 15 -3 30 -22 30
s-22 -13 -22 -29v-256c0 -16 3 -30 22 -30c15 0 22 14 22 30z" />
    <glyph glyph-name="h" unicode="h" horiz-adv-x="399" 
d="M16 0v744h160v-272c23 35 58 71 110 71h6c64 0 91 -53 91 -97v-446h-162v387c0 15 -4 28 -23 28s-22 -12 -22 -31v-384h-160z" />
    <glyph glyph-name="i" unicode="i" horiz-adv-x="191" 
d="M176 538v-538h-160v538h160zM176 702v-141h-160v141h160z" />
    <glyph glyph-name="j" unicode="j" horiz-adv-x="192" 
d="M176 702v-141h-160v141h160zM-46 -47h45c12 0 17 4 17 19v566h160v-645c0 -51 -34 -81 -79 -81h-143v141z" />
    <glyph glyph-name="k" unicode="k" horiz-adv-x="391" 
d="M176 362l60 176h151l-84 -225l92 -313h-156l-63 222v-222h-160v744h160v-382z" />
    <glyph glyph-name="l" unicode="l" horiz-adv-x="191" 
d="M176 744v-744h-160v744h160z" />
    <glyph glyph-name="m" unicode="m" horiz-adv-x="597" 
d="M16 0v538h158v-67c18 29 56 73 106 73h6c52 0 78 -35 89 -70c23 31 58 70 111 70h6c67 0 89 -56 89 -99v-445h-161v384c0 19 -2 31 -21 31c-15 0 -19 -9 -20 -24v-391h-162v384c0 19 -2 31 -21 31c-17 0 -20 -12 -20 -31v-384h-160z" />
    <glyph glyph-name="n" unicode="n" horiz-adv-x="399" 
d="M16 0v538h158v-68c27 39 61 73 112 73h7c71 0 90 -64 90 -100v-443h-162v386c0 16 -4 29 -23 29s-22 -13 -22 -32v-383h-160z" />
    <glyph glyph-name="o" unicode="o" horiz-adv-x="396" 
d="M13 167v205c0 117 61 177 169 177h31c111 0 170 -60 170 -176v-205c0 -113 -65 -179 -170 -179h-32c-116 0 -168 65 -168 178zM174 390v-238c0 -20 4 -34 23 -34s24 14 24 34v238c0 20 -5 34 -24 34s-23 -14 -23 -34z" />
    <glyph glyph-name="p" unicode="p" horiz-adv-x="397" 
d="M16 538h159v-66c32 47 62 73 109 73h3c67 0 95 -54 95 -130v-298c0 -76 -46 -128 -102 -128h-3c-43 0 -74 23 -101 62v-239h-160v726zM176 395v-258c0 -19 6 -32 21 -32c19 0 22 14 22 31v259c0 19 -5 30 -22 30s-21 -13 -21 -30z" />
    <glyph glyph-name="q" unicode="q" horiz-adv-x="397" 
d="M264 538h118v-726h-160v247c-23 -35 -56 -69 -103 -69h-5c-56 0 -99 57 -99 125v288c0 81 33 142 112 142h7c57 0 87 -42 114 -82c7 15 13 50 16 75zM222 144v249c0 19 -5 33 -24 33c-16 0 -21 -14 -21 -31v-258c0 -21 7 -31 22 -31c17 0 23 15 23 38z" />
    <glyph glyph-name="r" unicode="r" horiz-adv-x="359" 
d="M174 538v-69c13 24 42 72 96 72h9c48 0 70 -30 70 -73v-194h-144v122c0 15 -3 22 -15 22c-9 0 -14 -7 -14 -22v-396h-160v538h158z" />
    <glyph glyph-name="s" unicode="s" horiz-adv-x="350" 
d="M336 438v-62h-140v49c0 15 -3 24 -18 24s-19 -9 -19 -24v-14c0 -20 3 -27 22 -42l80 -60c67 -48 83 -94 83 -154v-18c0 -91 -54 -148 -154 -148h-36c-97 0 -147 46 -147 127v75h143v-63c0 -17 7 -26 21 -26h1c12 0 18 9 18 26v16c0 24 -6 39 -26 54l-76 55
c-63 44 -75 91 -75 146v18c0 84 48 132 147 132h35c94 0 141 -37 141 -111z" />
    <glyph glyph-name="t" unicode="t" horiz-adv-x="296" 
d="M286 0h-155c-33 0 -64 24 -64 71v332h-61v135h61v178h160v-178h59v-135h-59v-245c0 -15 2 -20 18 -20h41v-138z" />
    <glyph glyph-name="u" unicode="u" horiz-adv-x="395" 
d="M379 538v-538h-157v69c-27 -39 -59 -73 -112 -73h-5c-64 0 -89 59 -89 101v441h161v-386c0 -15 5 -29 21 -29c19 0 22 14 22 31v384h159z" />
    <glyph glyph-name="v" unicode="v" horiz-adv-x="368" 
d="M84 0l-86 538h158l29 -328l31 328h154l-89 -538h-197z" />
    <glyph glyph-name="w" unicode="w" horiz-adv-x="567" 
d="M256 0h-173l-85 538h158l28 -323l32 323h141l31 -328l29 328h152l-85 -538h-170l-29 271z" />
    <glyph glyph-name="x" unicode="x" horiz-adv-x="368" 
d="M76 289l-73 249h154l29 -148l27 148h150l-70 -245l77 -293h-155l-32 163l-34 -163h-151z" />
    <glyph glyph-name="y" unicode="y" horiz-adv-x="369" 
d="M100 22l-102 516h158l33 -286l28 286h155l-123 -644c-12 -63 -46 -82 -81 -82h-141v136h57c15 0 18 6 19 22l1 13c1 11 0 19 -4 39z" />
    <glyph glyph-name="z" unicode="z" horiz-adv-x="310" 
d="M15 538h282v-121l-121 -282h126v-135h-295v121l124 288h-116v129z" />
    <glyph glyph-name="braceleft" unicode="{" horiz-adv-x="227" 
d="M188 254c0 -53 -29 -178 -29 -226c0 -31 9 -53 44 -53h17v-106h-62c-80 0 -126 39 -126 116c0 48 32 193 32 260c0 27 -12 41 -35 41h-16v110h20c25 0 31 14 31 37c0 75 -32 197 -32 258c0 77 46 117 126 117h62v-107h-24c-27 0 -37 -13 -37 -38c0 -44 29 -177 29 -225
c0 -51 -13 -81 -60 -97c47 -16 60 -44 60 -87z" />
    <glyph glyph-name="bar" unicode="|" horiz-adv-x="194" 
d="M150 808v-939h-106v939h106z" />
    <glyph glyph-name="braceright" unicode="}" horiz-adv-x="227" 
d="M39 438c0 48 30 181 30 225c0 25 -13 38 -38 38h-24v107h62c80 0 126 -40 126 -117c0 -61 -32 -183 -32 -258c0 -23 7 -37 32 -37h20v-110h-17c-23 0 -35 -14 -35 -41c0 -67 32 -212 32 -260c0 -77 -46 -116 -126 -116h-62v106h17c35 0 45 22 45 53c0 48 -30 173 -30 226
c0 43 13 71 60 87c-47 16 -60 46 -60 97z" />
    <glyph glyph-name="asciitilde" unicode="~" horiz-adv-x="304" 
d="M145 338c-17 17 -22 24 -29 24c-5 0 -7 -4 -7 -11v-53h-100v111c0 52 26 93 75 93c31 0 49 -11 76 -38c16 -16 21 -22 28 -22c5 0 7 4 7 11v53h101v-121c0 -51 -32 -84 -75 -84c-33 0 -49 10 -76 37z" />
    <glyph glyph-name="exclamdown" unicode="&#xa1;" horiz-adv-x="192" 
d="M21 377v161h141v-161h-141zM179 -206h-176l49 558h79z" />
    <glyph glyph-name="cent" unicode="&#xa2;" horiz-adv-x="372" 
d="M362 242v-109c0 -83 -54 -145 -152 -145v-63h-33v63h-4c-103 0 -160 56 -160 156v243c0 93 46 162 159 162h5v65h33v-65h2c109 0 150 -60 150 -141v-83h-131v75c0 19 -5 33 -21 38v-331c15 7 20 21 20 38v97h132zM157 400v-255c0 -19 5 -33 20 -38v331
c-13 -5 -20 -17 -20 -38z" />
    <glyph glyph-name="sterling" unicode="&#xa3;" horiz-adv-x="459" 
d="M237 296v-32c0 -60 -21 -100 -49 -129h109v115h148v-250h-435v119c53 7 79 46 79 115v3c0 16 -1 36 -3 59h-76v129h63c-4 43 -7 80 -7 104v50c0 101 44 175 177 175h24c128 0 161 -75 161 -155v-128h-147v112c0 21 -6 35 -25 35c-20 0 -26 -11 -26 -35v-46
c0 -27 0 -67 3 -112h129v-129h-125z" />
    <glyph glyph-name="yen" unicode="&#xa5;" horiz-adv-x="394" 
d="M281 204v-204h-164v204h-97v90h97v22h-97v89h82l-103 339h162l42 -228l40 228h146l-94 -339h85v-89h-99v-22h99v-90h-99z" />
    <glyph glyph-name="section" unicode="&#xa7;" horiz-adv-x="447" 
d="M438 283v-22c0 -69 -39 -101 -87 -117c37 -35 51 -65 51 -126v-48c0 -104 -57 -165 -172 -165h-35c-108 0 -158 48 -158 156v89h155v-90c0 -19 8 -29 24 -29c15 0 22 10 22 31v39c0 31 -5 47 -34 70c-8 5 -95 62 -105 70c-72 48 -90 83 -90 155v27c0 64 34 96 85 112
c-35 37 -48 75 -48 142v21c0 88 46 156 169 156h34c103 0 158 -42 158 -150v-79h-154v73c0 23 -5 31 -22 31s-22 -11 -22 -31v-27c0 -35 5 -46 32 -67l109 -75c66 -47 88 -81 88 -146zM253 304l-85 60c-11 -3 -16 -11 -16 -25v-10c0 -23 7 -33 35 -54l86 -60c9 3 15 8 15 28
v7c0 23 -6 31 -35 54z" />
    <glyph glyph-name="dieresis" unicode="&#xa8;" 
d="M159 680v-119h-118v119h118zM301 680v-119h-118v119h118z" />
    <glyph glyph-name="copyright" unicode="&#xa9;" horiz-adv-x="558" 
d="M286 -11h-10c-162 0 -260 79 -260 267v234c0 175 101 265 261 265h12c156 0 253 -84 253 -265v-234c0 -188 -113 -267 -256 -267zM278 60h8c121 0 174 77 174 214v198c0 132 -51 212 -172 212h-10c-124 0 -178 -68 -178 -212v-198c0 -141 55 -214 178 -214zM284 216
c13 0 15 10 15 25v99h122v-107c0 -67 -45 -123 -128 -123h-16c-92 0 -137 52 -137 136v252c0 84 44 138 133 138h21c77 0 126 -38 126 -122v-79h-121v73c0 15 -2 23 -15 23c-12 0 -15 -7 -15 -23v-267c0 -15 4 -25 15 -25z" />
    <glyph glyph-name="ordfeminine" unicode="&#xaa;" horiz-adv-x="238" 
d="M218 674v-148c0 -5 2 -7 7 -7h9v-76h-85c-17 0 -25 12 -25 37c-9 -16 -30 -41 -62 -41h-1c-35 0 -52 28 -52 61v50c0 36 14 52 43 67c17 8 57 23 65 29c5 2 7 6 7 12v11c0 9 -4 14 -12 14c-7 0 -11 -5 -11 -14v-22h-88v31c0 41 28 71 91 71h14c72 0 100 -26 100 -75z
M124 521v62c-7 -3 -12 -6 -16 -10s-6 -11 -6 -22v-31c0 -9 3 -13 10 -13c8 0 12 5 12 14z" />
    <glyph glyph-name="guillemotleft" unicode="&#xab;" horiz-adv-x="315" 
d="M122 286l53 -171h-114l-50 138v67l50 135h114zM263 286l44 -171h-113l-51 171l51 169h114z" />
    <glyph glyph-name="registered" unicode="&#xae;" horiz-adv-x="305" 
d="M158 394h-9c-84 0 -138 47 -138 142v73c0 89 50 141 138 141h10c84 0 134 -50 134 -139v-75c0 -91 -60 -142 -135 -142zM149 433h9c64 0 89 38 89 106v69c0 63 -24 103 -88 103h-10c-65 0 -92 -31 -92 -106v-66c0 -68 25 -106 92 -106zM146 554v-89h-60v220h89
c30 0 45 -14 45 -41v-26c0 -17 -7 -29 -21 -35c14 -5 21 -15 21 -30v-67c0 -8 1 -14 4 -17v-4h-58c-3 3 -4 9 -4 18v59c0 8 -3 12 -10 12h-6zM146 644v-46h7c7 0 9 1 9 12v23c0 7 -3 11 -9 11h-7z" />
    <glyph glyph-name="macron" unicode="&#xaf;" 
d="M61 570v100h220v-100h-220z" />
    <glyph glyph-name="degree" unicode="&#xb0;" horiz-adv-x="218" 
d="M6 648c0 56 41 100 104 100c60 0 102 -45 102 -100c0 -56 -42 -99 -102 -99c-63 0 -104 43 -104 99zM73 649c0 -23 12 -38 36 -38c23 0 36 15 36 38c0 21 -15 37 -36 37c-24 0 -36 -16 -36 -37z" />
    <glyph glyph-name="acute" unicode="&#xb4;" 
d="M84 561l46 146h128l-50 -146h-124z" />
    <glyph glyph-name="paragraph" unicode="&#xb6;" horiz-adv-x="425" 
d="M419 744v-112h-41v-632h-101v632h-33v-632h-102v343h-6c-67 0 -124 37 -124 126v149c0 84 50 126 125 126h282z" />
    <glyph glyph-name="periodcentered" unicode="&#xb7;" horiz-adv-x="170" 
d="M156 397v-161h-142v161h142z" />
    <glyph glyph-name="cedilla" unicode="&#xb8;" 
d="M158 -196h-75v71h58c14 0 21 5 21 15v1c0 9 -7 14 -21 14h-43v95h68v-35h5c59 -1 89 -26 89 -75v-3c0 -55 -39 -83 -102 -83z" />
    <glyph glyph-name="ordmasculine" unicode="&#xba;" horiz-adv-x="242" 
d="M131 439h-19c-63 0 -101 34 -101 102v106c0 67 38 102 101 102h19c60 0 100 -33 100 -102v-106c0 -67 -40 -102 -100 -102zM110 657v-126c0 -9 2 -17 11 -17c11 0 13 8 13 17v126c0 11 -2 18 -13 18c-9 0 -11 -7 -11 -18z" />
    <glyph glyph-name="guillemotright" unicode="&#xbb;" horiz-adv-x="314" 
d="M139 115l54 169l-54 171h114l51 -137v-67l-51 -136h-114zM7 115l46 169l-46 171h114l51 -171l-51 -169h-114z" />
    <glyph glyph-name="questiondown" unicode="&#xbf;" horiz-adv-x="377" 
d="M142 352h123v-102c0 -48 -6 -67 -33 -110l-45 -71c-16 -25 -18 -42 -18 -71v-51c0 -21 5 -31 22 -31c19 0 22 11 22 31v112h148v-116c0 -80 -25 -158 -156 -158h-35c-119 0 -162 63 -162 153v51c0 62 8 97 45 144l64 82c21 26 25 37 25 75v62zM132 377v161h142v-161h-142
z" />
    <glyph glyph-name="Agrave" unicode="&#xc0;" horiz-adv-x="397" 
d="M240 0l-12 109h-76l-11 -109h-143l95 744h203l104 -744h-160zM190 482l-23 -226h46zM216 890l45 -123h-126l-48 123h129z" />
    <glyph glyph-name="Aacute" unicode="&#xc1;" horiz-adv-x="397" 
d="M240 0l-12 109h-76l-11 -109h-143l95 744h203l104 -744h-160zM190 482l-23 -226h46zM130 767l46 123h130l-50 -123h-126z" />
    <glyph glyph-name="Acircumflex" unicode="&#xc2;" horiz-adv-x="397" 
d="M240 0l-12 109h-76l-11 -109h-143l95 744h203l104 -744h-160zM190 482l-23 -226h46zM256 890l71 -123h-108l-27 47l-26 -47h-108l70 123h128z" />
    <glyph glyph-name="Atilde" unicode="&#xc3;" horiz-adv-x="397" 
d="M240 0l-12 109h-76l-11 -109h-143l95 744h203l104 -744h-160zM190 482l-23 -226h46zM193 785c-15 7 -22 10 -29 10c-5 0 -8 -4 -8 -11v-18h-85v50c0 47 22 75 61 75h1c23 0 39 -5 64 -16c19 -8 23 -11 30 -11c5 0 7 4 7 11v19h85v-49c0 -48 -25 -75 -61 -75h-2
c-19 0 -36 4 -63 15z" />
    <glyph glyph-name="Adieresis" unicode="&#xc4;" horiz-adv-x="397" 
d="M240 0l-12 109h-76l-11 -109h-143l95 744h203l104 -744h-160zM190 482l-23 -226h46zM322 885v-118h-118v118h118zM180 885v-118h-118v118h118z" />
    <glyph glyph-name="Aring" unicode="&#xc5;" horiz-adv-x="397" 
d="M240 0l-12 109h-76l-11 -109h-143l95 744h203l104 -744h-160zM190 482l-23 -226h46zM158 845c0 -20 14 -35 34 -35s34 15 34 35c0 19 -14 34 -34 34s-34 -15 -34 -34zM192 928c49 0 86 -34 86 -83c0 -48 -37 -83 -86 -83s-86 35 -86 83c0 49 37 83 86 83z" />
    <glyph glyph-name="AE" unicode="&#xc6;" horiz-adv-x="552" 
d="M543 0h-301v117h-72l-18 -117h-158l140 744h401v-155h-129v-126h101v-158h-101v-148h137v-157zM193 263h49v305z" />
    <glyph glyph-name="Ccedilla" unicode="&#xc7;" horiz-adv-x="418" 
d="M241 176v149h163v-154c0 -93 -45 -183 -176 -183h-29c-139 0 -183 82 -183 197v378c0 107 48 191 182 191h30c132 0 176 -76 176 -174v-122h-163v115c0 24 -6 37 -27 37s-27 -10 -27 -37v-397c0 -25 7 -39 28 -39c20 0 26 16 26 39zM210 -196h-75v71h58c14 0 21 5 21 15
v1c0 9 -7 14 -21 14h-43v95h68v-35h5c59 -1 89 -26 89 -75v-3c0 -55 -39 -83 -102 -83z" />
    <glyph glyph-name="Egrave" unicode="&#xc8;" 
d="M18 744h309v-154h-146v-127h117v-158h-117v-148h152v-157h-315v744zM199 890l45 -123h-126l-48 123h129z" />
    <glyph glyph-name="Eacute" unicode="&#xc9;" 
d="M18 744h309v-154h-146v-127h117v-158h-117v-148h152v-157h-315v744zM110 767l46 123h130l-50 -123h-126z" />
    <glyph glyph-name="Ecircumflex" unicode="&#xca;" 
d="M18 744h309v-154h-146v-127h117v-158h-117v-148h152v-157h-315v744zM238 890l71 -123h-108l-27 47l-26 -47h-108l70 123h128z" />
    <glyph glyph-name="Edieresis" unicode="&#xcb;" 
d="M18 744h309v-154h-146v-127h117v-158h-117v-148h152v-157h-315v744zM304 885v-118h-118v118h118zM162 885v-118h-118v118h118z" />
    <glyph glyph-name="Igrave" unicode="&#xcc;" horiz-adv-x="201" 
d="M183 744v-744h-165v744h165zM120 890l45 -123h-126l-48 123h129z" />
    <glyph glyph-name="Iacute" unicode="&#xcd;" horiz-adv-x="201" 
d="M183 744v-744h-165v744h165zM38 767l46 123h130l-50 -123h-126z" />
    <glyph glyph-name="Icircumflex" unicode="&#xce;" horiz-adv-x="201" 
d="M183 744v-744h-165v744h165zM163 889l71 -123h-108l-27 47l-26 -47h-108l70 123h128z" />
    <glyph glyph-name="Idieresis" unicode="&#xcf;" horiz-adv-x="201" 
d="M183 744v-744h-165v744h165zM231 885v-118h-118v118h118zM89 885v-118h-118v118h118z" />
    <glyph glyph-name="Ntilde" unicode="&#xd1;" horiz-adv-x="423" 
d="M18 744h160l85 -360v360h141v-744h-145l-98 388v-388h-143v744zM219 785c-15 7 -22 10 -29 10c-5 0 -8 -4 -8 -11v-18h-85v50c0 47 22 75 61 75h1c23 0 39 -5 64 -16c19 -8 23 -11 30 -11c5 0 7 4 7 11v19h85v-49c0 -48 -25 -75 -61 -75h-2c-19 0 -36 4 -63 15z" />
    <glyph glyph-name="Ograve" unicode="&#xd2;" horiz-adv-x="433" 
d="M418 544v-353c0 -129 -71 -202 -184 -202h-32c-121 0 -186 73 -186 202v353c0 128 54 210 185 210h32c132 0 185 -83 185 -210zM247 180v381c0 28 -10 42 -30 42c-23 0 -30 -14 -30 -42v-381c0 -23 8 -37 31 -37c21 0 29 14 29 37zM236 890l45 -123h-126l-48 123h129z
" />
    <glyph glyph-name="Oacute" unicode="&#xd3;" horiz-adv-x="433" 
d="M418 544v-353c0 -129 -71 -202 -184 -202h-32c-121 0 -186 73 -186 202v353c0 128 54 210 185 210h32c132 0 185 -83 185 -210zM247 180v381c0 28 -10 42 -30 42c-23 0 -30 -14 -30 -42v-381c0 -23 8 -37 31 -37c21 0 29 14 29 37zM153 767l46 123h130l-50 -123h-126z
" />
    <glyph glyph-name="Ocircumflex" unicode="&#xd4;" horiz-adv-x="433" 
d="M418 544v-353c0 -129 -71 -202 -184 -202h-32c-121 0 -186 73 -186 202v353c0 128 54 210 185 210h32c132 0 185 -83 185 -210zM247 180v381c0 28 -10 42 -30 42c-23 0 -30 -14 -30 -42v-381c0 -23 8 -37 31 -37c21 0 29 14 29 37zM281 890l71 -123h-108l-27 47l-26 -47
h-108l70 123h128z" />
    <glyph glyph-name="Otilde" unicode="&#xd5;" horiz-adv-x="433" 
d="M418 544v-353c0 -129 -71 -202 -184 -202h-32c-121 0 -186 73 -186 202v353c0 128 54 210 185 210h32c132 0 185 -83 185 -210zM247 180v381c0 28 -10 42 -30 42c-23 0 -30 -14 -30 -42v-381c0 -23 8 -37 31 -37c21 0 29 14 29 37zM215 788c-15 7 -22 10 -29 10
c-5 0 -8 -4 -8 -11v-18h-85v50c0 47 22 75 61 75h1c23 0 39 -5 64 -16c19 -8 23 -11 30 -11c5 0 7 4 7 11v19h85v-49c0 -48 -25 -75 -61 -75h-2c-19 0 -36 4 -63 15z" />
    <glyph glyph-name="Odieresis" unicode="&#xd6;" horiz-adv-x="433" 
d="M418 544v-353c0 -129 -71 -202 -184 -202h-32c-121 0 -186 73 -186 202v353c0 128 54 210 185 210h32c132 0 185 -83 185 -210zM247 180v381c0 28 -10 42 -30 42c-23 0 -30 -14 -30 -42v-381c0 -23 8 -37 31 -37c21 0 29 14 29 37zM347 885v-118h-118v118h118zM205 885
v-118h-118v118h118z" />
    <glyph glyph-name="Oslash" unicode="&#xd8;" horiz-adv-x="429" 
d="M413 545v-354c0 -129 -71 -202 -184 -202h-27c-44 0 -80 12 -108 36l-12 -25h-82l38 84c-15 29 -22 63 -22 107v353c0 128 54 210 185 210h26c44 0 79 -11 105 -33l11 23h83l-37 -83c15 -29 24 -67 24 -116zM215 142c24 0 31 15 31 38v195l-63 -163v-32
c0 -23 8 -38 32 -38zM215 604c-24 0 -32 -12 -32 -43v-183l63 163v20c0 29 -10 43 -31 43z" />
    <glyph glyph-name="Ugrave" unicode="&#xd9;" horiz-adv-x="430" 
d="M18 177v567h170v-559c0 -25 9 -38 27 -38c20 0 27 14 27 38v559h170v-567c0 -113 -65 -189 -182 -189h-32c-124 0 -180 74 -180 189zM235 890l45 -123h-126l-48 123h129z" />
    <glyph glyph-name="Uacute" unicode="&#xda;" horiz-adv-x="430" 
d="M18 177v567h170v-559c0 -25 9 -38 27 -38c20 0 27 14 27 38v559h170v-567c0 -113 -65 -189 -182 -189h-32c-124 0 -180 74 -180 189zM150 767l46 123h130l-50 -123h-126z" />
    <glyph glyph-name="Ucircumflex" unicode="&#xdb;" horiz-adv-x="430" 
d="M18 177v567h170v-559c0 -25 9 -38 27 -38c20 0 27 14 27 38v559h170v-567c0 -113 -65 -189 -182 -189h-32c-124 0 -180 74 -180 189zM277 890l71 -123h-108l-27 47l-26 -47h-108l70 123h128z" />
    <glyph glyph-name="Udieresis" unicode="&#xdc;" horiz-adv-x="430" 
d="M18 177v567h170v-559c0 -25 9 -38 27 -38c20 0 27 14 27 38v559h170v-567c0 -113 -65 -189 -182 -189h-32c-124 0 -180 74 -180 189zM344 885v-118h-118v118h118zM202 885v-118h-118v118h118z" />
    <glyph glyph-name="germandbls" unicode="&#xdf;" horiz-adv-x="399" 
d="M315 443c41 -13 73 -45 73 -109v-200c0 -84 -39 -134 -124 -134h-73v132h14c11 0 16 7 16 21v165c0 15 -3 21 -18 21h-12v131h12c11 0 17 7 17 22v101c0 17 -6 29 -21 29h-5c-13 0 -19 -9 -19 -28v-594h-159v593c0 88 49 156 161 156h38c113 0 160 -58 160 -140v-66
c0 -55 -33 -89 -60 -100z" />
    <glyph glyph-name="agrave" unicode="&#xe0;" horiz-adv-x="388" 
d="M202 136v123c-7 -4 -20 -12 -28 -21c-8 -11 -11 -19 -11 -39v-63c0 -16 4 -26 19 -26s20 11 20 26zM11 96v106c0 57 23 91 68 115c27 13 96 42 112 50c8 4 11 5 11 20v28c0 16 -6 24 -19 24h-3c-16 0 -20 -9 -20 -24v-50h-142v61c0 71 45 121 152 121h22
c115 0 164 -43 164 -127v-277c0 -9 3 -12 15 -12h14v-131h-141c-27 0 -41 20 -41 61c-17 -28 -52 -67 -103 -67h-4c-56 0 -85 49 -85 102zM200 707l45 -146h-123l-50 146h128z" />
    <glyph glyph-name="aacute" unicode="&#xe1;" horiz-adv-x="388" 
d="M202 136v123c-7 -4 -20 -12 -28 -21c-8 -11 -11 -19 -11 -39v-63c0 -16 4 -26 19 -26s20 11 20 26zM11 96v106c0 57 23 91 68 115c27 13 96 42 112 50c8 4 11 5 11 20v28c0 16 -6 24 -19 24h-3c-16 0 -20 -9 -20 -24v-50h-142v61c0 71 45 121 152 121h22
c115 0 164 -43 164 -127v-277c0 -9 3 -12 15 -12h14v-131h-141c-27 0 -41 20 -41 61c-17 -28 -52 -67 -103 -67h-4c-56 0 -85 49 -85 102zM121 561l46 146h128l-50 -146h-124z" />
    <glyph glyph-name="acircumflex" unicode="&#xe2;" horiz-adv-x="388" 
d="M202 136v123c-7 -4 -20 -12 -28 -21c-8 -11 -11 -19 -11 -39v-63c0 -16 4 -26 19 -26s20 11 20 26zM11 96v106c0 57 23 91 68 115c27 13 96 42 112 50c8 4 11 5 11 20v28c0 16 -6 24 -19 24h-3c-16 0 -20 -9 -20 -24v-50h-142v61c0 71 45 121 152 121h22
c115 0 164 -43 164 -127v-277c0 -9 3 -12 15 -12h14v-131h-141c-27 0 -41 20 -41 61c-17 -28 -52 -67 -103 -67h-4c-56 0 -85 49 -85 102zM249 707l68 -146h-109l-24 65l-25 -65h-107l67 146h130z" />
    <glyph glyph-name="atilde" unicode="&#xe3;" horiz-adv-x="388" 
d="M202 136v123c-7 -4 -20 -12 -28 -21c-8 -11 -11 -19 -11 -39v-63c0 -16 4 -26 19 -26s20 11 20 26zM11 96v106c0 57 23 91 68 115c27 13 96 42 112 50c8 4 11 5 11 20v28c0 16 -6 24 -19 24h-3c-16 0 -20 -9 -20 -24v-50h-142v61c0 71 45 121 152 121h22
c115 0 164 -43 164 -127v-277c0 -9 3 -12 15 -12h14v-131h-141c-27 0 -41 20 -41 61c-17 -28 -52 -67 -103 -67h-4c-56 0 -85 49 -85 102zM219 694h86v-66c0 -37 -21 -65 -61 -65h-2c-20 0 -35 5 -63 20c-15 7 -20 11 -27 11c-5 0 -7 -4 -7 -12v-20h-86v62c0 40 21 69 62 69
h1c21 0 35 -4 63 -19c15 -7 21 -11 28 -11c4 0 6 4 6 11v20z" />
    <glyph glyph-name="adieresis" unicode="&#xe4;" horiz-adv-x="388" 
d="M202 136v123c-7 -4 -20 -12 -28 -21c-8 -11 -11 -19 -11 -39v-63c0 -16 4 -26 19 -26s20 11 20 26zM11 96v106c0 57 23 91 68 115c27 13 96 42 112 50c8 4 11 5 11 20v28c0 16 -6 24 -19 24h-3c-16 0 -20 -9 -20 -24v-50h-142v61c0 71 45 121 152 121h22
c115 0 164 -43 164 -127v-277c0 -9 3 -12 15 -12h14v-131h-141c-27 0 -41 20 -41 61c-17 -28 -52 -67 -103 -67h-4c-56 0 -85 49 -85 102zM170 682v-119h-118v119h118zM312 682v-119h-118v119h118z" />
    <glyph glyph-name="aring" unicode="&#xe5;" horiz-adv-x="388" 
d="M202 136v123c-7 -4 -20 -12 -28 -21c-8 -11 -11 -19 -11 -39v-63c0 -16 4 -26 19 -26s20 11 20 26zM11 96v106c0 57 23 91 68 115c27 13 96 42 112 50c8 4 11 5 11 20v28c0 16 -6 24 -19 24h-3c-16 0 -20 -9 -20 -24v-50h-142v61c0 71 45 121 152 121h22
c115 0 164 -43 164 -127v-277c0 -9 3 -12 15 -12h14v-131h-141c-27 0 -41 20 -41 61c-17 -28 -52 -67 -103 -67h-4c-56 0 -85 49 -85 102zM181 609c20 0 34 15 34 35c0 19 -14 34 -34 34s-34 -15 -34 -34c0 -20 14 -35 34 -35zM181 561c-49 0 -86 35 -86 83
c0 49 37 83 86 83s86 -34 86 -83c0 -48 -37 -83 -86 -83z" />
    <glyph glyph-name="ae" unicode="&#xe6;" horiz-adv-x="563" 
d="M219 65c-23 -35 -61 -71 -117 -71h-3c-59 0 -88 50 -88 103v90c0 59 23 92 68 116c26 16 96 42 112 50c8 4 11 5 11 20v42c0 16 -6 24 -19 24h-4c-13 0 -19 -8 -19 -24v-64h-142v75c0 71 46 121 151 121h20c59 0 86 -20 97 -29c11 11 36 31 91 31h15
c96 0 160 -45 160 -165v-134h-195v-112c1 -23 6 -30 21 -30c19 0 22 11 22 30v76h152v-71c0 -96 -56 -154 -159 -154h-30c-94 0 -128 41 -144 76zM202 136v110c-7 -4 -20 -12 -28 -21c-9 -11 -11 -19 -11 -40v-49c0 -17 6 -26 19 -26c15 0 20 11 20 26zM357 412v-63h45v62
c0 21 -3 32 -22 32s-23 -12 -23 -31z" />
    <glyph glyph-name="ccedilla" unicode="&#xe7;" horiz-adv-x="368" 
d="M212 241h145v-108c0 -83 -52 -145 -152 -145h-30c-105 0 -162 57 -162 157v240c0 93 44 164 161 164h33c112 0 150 -61 150 -143v-81h-144v78c0 19 -4 29 -21 29c-15 0 -18 -9 -18 -28v-265c0 -16 3 -27 18 -27c13 0 20 9 20 26v103zM186 -196h-75v71h58c14 0 21 5 21 15
v1c0 9 -7 14 -21 14h-43v95h68v-35h5c59 -1 89 -26 89 -75v-3c0 -55 -39 -83 -102 -83z" />
    <glyph glyph-name="egrave" unicode="&#xe8;" horiz-adv-x="375" 
d="M174 549h31c96 0 158 -48 158 -160v-138h-195v-113c0 -20 7 -30 22 -30c16 0 21 11 21 30v76h152v-74c0 -97 -65 -151 -158 -151h-31c-99 0 -161 50 -161 154v246c0 93 51 160 161 160zM168 410v-61h45v61c0 23 -4 33 -23 33s-22 -10 -22 -33zM205 707l45 -146h-123
l-50 146h128z" />
    <glyph glyph-name="eacute" unicode="&#xe9;" horiz-adv-x="375" 
d="M174 549h31c96 0 158 -48 158 -160v-138h-195v-113c0 -20 7 -30 22 -30c16 0 21 11 21 30v76h152v-74c0 -97 -65 -151 -158 -151h-31c-99 0 -161 50 -161 154v246c0 93 51 160 161 160zM168 410v-61h45v61c0 23 -4 33 -23 33s-22 -10 -22 -33zM127 561l46 146h128
l-50 -146h-124z" />
    <glyph glyph-name="ecircumflex" unicode="&#xea;" horiz-adv-x="375" 
d="M174 549h31c96 0 158 -48 158 -160v-138h-195v-113c0 -20 7 -30 22 -30c16 0 21 11 21 30v76h152v-74c0 -97 -65 -151 -158 -151h-31c-99 0 -161 50 -161 154v246c0 93 51 160 161 160zM168 410v-61h45v61c0 23 -4 33 -23 33s-22 -10 -22 -33zM254 707l68 -146h-109
l-24 65l-25 -65h-107l67 146h130z" />
    <glyph glyph-name="edieresis" unicode="&#xeb;" horiz-adv-x="375" 
d="M174 549h31c96 0 158 -48 158 -160v-138h-195v-113c0 -20 7 -30 22 -30c16 0 21 11 21 30v76h152v-74c0 -97 -65 -151 -158 -151h-31c-99 0 -161 50 -161 154v246c0 93 51 160 161 160zM168 410v-61h45v61c0 23 -4 33 -23 33s-22 -10 -22 -33zM176 684v-119h-118v119h118
zM318 684v-119h-118v119h118z" />
    <glyph glyph-name="igrave" unicode="&#xec;" horiz-adv-x="191" 
d="M176 538v-538h-160v538h160zM114 707l45 -146h-123l-50 146h128z" />
    <glyph glyph-name="iacute" unicode="&#xed;" horiz-adv-x="191" 
d="M176 538v-538h-160v538h160zM36 561l46 146h128l-50 -146h-124z" />
    <glyph glyph-name="icircumflex" unicode="&#xee;" horiz-adv-x="191" 
d="M160 707l52 -146h-98l-19 69l-20 -69h-96l51 146h130zM176 538v-538h-160v538h160z" />
    <glyph glyph-name="idieresis" unicode="&#xef;" horiz-adv-x="191" 
d="M86 681v-120h-106v120h106zM211 681v-120h-106v120h106zM176 538v-538h-160v538h160z" />
    <glyph glyph-name="ntilde" unicode="&#xf1;" horiz-adv-x="399" 
d="M16 0v538h158v-68c27 39 61 73 112 73h7c71 0 90 -64 90 -100v-443h-162v386c0 16 -4 29 -23 29s-22 -13 -22 -32v-383h-160zM235 692h86v-66c0 -37 -21 -65 -61 -65h-2c-20 0 -35 5 -63 20c-15 7 -20 11 -27 11c-5 0 -7 -4 -7 -12v-20h-86v62c0 40 21 69 62 69h1
c21 0 35 -4 63 -19c15 -7 21 -11 28 -11c4 0 6 4 6 11v20z" />
    <glyph glyph-name="ograve" unicode="&#xf2;" horiz-adv-x="396" 
d="M13 167v205c0 117 61 177 169 177h31c111 0 170 -60 170 -176v-205c0 -113 -65 -179 -170 -179h-32c-116 0 -168 65 -168 178zM174 390v-238c0 -20 4 -34 23 -34s24 14 24 34v238c0 20 -5 34 -24 34s-23 -14 -23 -34zM215 707l45 -146h-123l-50 146h128z" />
    <glyph glyph-name="oacute" unicode="&#xf3;" horiz-adv-x="396" 
d="M13 167v205c0 117 61 177 169 177h31c111 0 170 -60 170 -176v-205c0 -113 -65 -179 -170 -179h-32c-116 0 -168 65 -168 178zM174 390v-238c0 -20 4 -34 23 -34s24 14 24 34v238c0 20 -5 34 -24 34s-23 -14 -23 -34zM136 561l46 146h128l-50 -146h-124z" />
    <glyph glyph-name="ocircumflex" unicode="&#xf4;" horiz-adv-x="396" 
d="M13 167v205c0 117 61 177 169 177h31c111 0 170 -60 170 -176v-205c0 -113 -65 -179 -170 -179h-32c-116 0 -168 65 -168 178zM174 390v-238c0 -20 4 -34 23 -34s24 14 24 34v238c0 20 -5 34 -24 34s-23 -14 -23 -34zM263 707l68 -146h-109l-24 65l-25 -65h-107l67 146
h130z" />
    <glyph glyph-name="otilde" unicode="&#xf5;" horiz-adv-x="396" 
d="M13 167v205c0 117 61 177 169 177h31c111 0 170 -60 170 -176v-205c0 -113 -65 -179 -170 -179h-32c-116 0 -168 65 -168 178zM174 390v-238c0 -20 4 -34 23 -34s24 14 24 34v238c0 20 -5 34 -24 34s-23 -14 -23 -34zM233 696h86v-66c0 -37 -21 -65 -61 -65h-2
c-20 0 -35 5 -63 20c-15 7 -20 11 -27 11c-5 0 -7 -4 -7 -12v-20h-86v62c0 40 21 69 62 69h1c21 0 35 -4 63 -19c15 -7 21 -11 28 -11c4 0 6 4 6 11v20z" />
    <glyph glyph-name="odieresis" unicode="&#xf6;" horiz-adv-x="396" 
d="M13 167v205c0 117 61 177 169 177h31c111 0 170 -60 170 -176v-205c0 -113 -65 -179 -170 -179h-32c-116 0 -168 65 -168 178zM174 390v-238c0 -20 4 -34 23 -34s24 14 24 34v238c0 20 -5 34 -24 34s-23 -14 -23 -34zM185 684v-119h-118v119h118zM327 684v-119h-118v119
h118z" />
    <glyph glyph-name="divide" unicode="&#xf7;" horiz-adv-x="346" 
d="M14 351h319v-99h-319v99zM228 484v-109h-110v109h110zM228 227v-110h-110v110h110z" />
    <glyph glyph-name="oslash" unicode="&#xf8;" horiz-adv-x="388" 
d="M13 166v206c0 121 63 177 172 177h18c43 0 75 -10 100 -29l11 18h77l-40 -67c15 -25 23 -59 23 -98v-206c0 -115 -64 -178 -173 -178h-16c-44 0 -78 12 -102 29l-11 -18h-76l39 66c-15 27 -22 60 -22 100zM219 377v13c0 19 -3 36 -26 36c-20 0 -24 -17 -24 -36v-112z
M193 117c21 0 26 15 26 35v111l-50 -98v-13c0 -21 5 -35 24 -35z" />
    <glyph glyph-name="ugrave" unicode="&#xf9;" horiz-adv-x="395" 
d="M379 538v-538h-157v69c-27 -39 -59 -73 -112 -73h-5c-64 0 -89 59 -89 101v441h161v-386c0 -15 5 -29 21 -29c19 0 22 14 22 31v384h159zM216 707l45 -146h-123l-50 146h128z" />
    <glyph glyph-name="uacute" unicode="&#xfa;" horiz-adv-x="395" 
d="M379 538v-538h-157v69c-27 -39 -59 -73 -112 -73h-5c-64 0 -89 59 -89 101v441h161v-386c0 -15 5 -29 21 -29c19 0 22 14 22 31v384h159zM136 561l46 146h128l-50 -146h-124z" />
    <glyph glyph-name="ucircumflex" unicode="&#xfb;" horiz-adv-x="395" 
d="M379 538v-538h-157v69c-27 -39 -59 -73 -112 -73h-5c-64 0 -89 59 -89 101v441h161v-386c0 -15 5 -29 21 -29c19 0 22 14 22 31v384h159zM262 707l68 -146h-109l-24 65l-25 -65h-107l67 146h130z" />
    <glyph glyph-name="udieresis" unicode="&#xfc;" horiz-adv-x="395" 
d="M379 538v-538h-157v69c-27 -39 -59 -73 -112 -73h-5c-64 0 -89 59 -89 101v441h161v-386c0 -15 5 -29 21 -29c19 0 22 14 22 31v384h159zM186 680v-119h-118v119h118zM328 680v-119h-118v119h118z" />
    <glyph glyph-name="ydieresis" unicode="&#xff;" horiz-adv-x="369" 
d="M100 22l-102 516h158l33 -286l28 286h155l-123 -644c-12 -63 -46 -82 -81 -82h-141v136h57c15 0 18 6 19 22l1 13c1 11 0 19 -4 39zM173 680v-119h-118v119h118zM315 680v-119h-118v119h118z" />
    <glyph glyph-name="dotlessi" unicode="&#x131;" horiz-adv-x="191" 
d="M176 538v-538h-160v538h160z" />
    <glyph glyph-name="OE" unicode="&#x152;" horiz-adv-x="559" 
d="M16 186v372c0 109 39 194 135 194h3c61 0 84 -35 98 -51v43h290v-155h-130v-126h102v-158h-102v-148h138v-157h-298v44c-13 -21 -46 -54 -99 -54h-4c-84 0 -133 67 -133 196zM245 186v373c0 28 -7 45 -28 45c-23 0 -30 -17 -30 -45v-373c0 -29 7 -45 30 -45
c21 0 28 17 28 45z" />
    <glyph glyph-name="oe" unicode="&#x153;" horiz-adv-x="585" 
d="M573 251h-195v-113c0 -20 7 -30 22 -30s22 10 22 30v76h151v-75c0 -97 -63 -151 -158 -151h-30c-43 0 -74 18 -89 31c-16 -12 -45 -32 -92 -32h-23c-117 0 -168 66 -168 179v206c0 121 63 178 167 178h26c47 0 79 -17 94 -32c15 15 44 31 87 31h30c93 0 156 -48 156 -160
v-138zM174 390v-238c0 -21 4 -35 23 -35s24 14 24 35v238c0 20 -4 34 -24 34c-19 0 -23 -14 -23 -34zM378 408v-59h45v63c0 20 -4 30 -23 30s-22 -11 -22 -34z" />
    <glyph glyph-name="Ydieresis" unicode="&#x178;" horiz-adv-x="382" 
d="M387 744l-109 -463v-281h-164v278l-120 466h165l41 -245l39 245h148zM328 885v-118h-118v118h118zM186 885v-118h-118v118h118z" />
    <glyph glyph-name="circumflex" unicode="&#x2c6;" 
d="M236 707l68 -146h-109l-24 65l-25 -65h-107l67 146h130z" />
    <glyph glyph-name="caron" unicode="&#x2c7;" 
d="M107 561l-68 146h108l24 -64l25 64h108l-68 -146h-129z" />
    <glyph glyph-name="breve" unicode="&#x2d8;" 
d="M174 559h-4c-76 0 -122 43 -122 119v12h99v-7c0 -23 8 -35 24 -35h1c17 0 25 12 25 35v7h97v-12c0 -76 -49 -119 -120 -119z" />
    <glyph glyph-name="dotaccent" unicode="&#x2d9;" 
d="M251 702v-141h-160v141h160z" />
    <glyph glyph-name="ring" unicode="&#x2da;" 
d="M171 607c20 0 34 15 34 35c0 19 -14 34 -34 34s-34 -15 -34 -34c0 -20 14 -35 34 -35zM171 559c-49 0 -86 35 -86 83c0 49 37 83 86 83s86 -34 86 -83c0 -48 -37 -83 -86 -83z" />
    <glyph glyph-name="ogonek" unicode="&#x2db;" 
d="M94 -123v13c0 37 30 71 82 110h71c-32 -39 -42 -55 -42 -76v-3c0 -14 9 -21 27 -21h15v-88h-69c-49 0 -84 24 -84 65z" />
    <glyph glyph-name="tilde" unicode="&#x2dc;" 
d="M208 692h86v-66c0 -37 -21 -65 -61 -65h-2c-20 0 -35 5 -63 20c-15 7 -20 11 -27 11c-5 0 -7 -4 -7 -12v-20h-86v62c0 40 21 69 62 69h1c21 0 35 -4 63 -19c15 -7 21 -11 28 -11c4 0 6 4 6 11v20z" />
    <glyph glyph-name="hungarumlaut" unicode="&#x2dd;" 
d="M40 561l29 146h106l-30 -146h-105zM167 561l29 146h107l-32 -146h-104z" />
    <glyph glyph-name="endash" unicode="&#x2013;" horiz-adv-x="386" 
d="M14 352h358v-103h-358v103z" />
    <glyph glyph-name="emdash" unicode="&#x2014;" horiz-adv-x="584" 
d="M14 352h556v-103h-556v103z" />
    <glyph glyph-name="quoteleft" unicode="&#x2018;" horiz-adv-x="159" 
d="M42 744h76c-9 -27 -22 -66 -23 -95h50v-140h-131v108c0 55 17 104 28 127z" />
    <glyph glyph-name="quoteright" unicode="&#x2019;" horiz-adv-x="159" 
d="M116 509h-76c9 27 22 66 23 95h-49v140h131v-108c0 -55 -18 -104 -29 -127z" />
    <glyph glyph-name="quotesinglbase" unicode="&#x201a;" horiz-adv-x="159" 
d="M116 -95h-76c9 25 22 66 23 95h-49v140h131v-108c0 -56 -18 -104 -29 -127z" />
    <glyph glyph-name="quotedblleft" unicode="&#x201c;" horiz-adv-x="305" 
d="M189 744h76c-9 -27 -22 -66 -23 -95h49v-140h-131v108c0 55 18 104 29 127zM42 744h76c-9 -27 -22 -66 -23 -95h50v-140h-131v108c0 55 17 104 28 127z" />
    <glyph glyph-name="quotedblright" unicode="&#x201d;" horiz-adv-x="305" 
d="M263 509h-76c9 27 21 66 22 95h-49v140h131v-108c0 -55 -17 -104 -28 -127zM116 509h-76c9 27 22 66 23 95h-49v140h131v-108c0 -55 -18 -104 -29 -127z" />
    <glyph glyph-name="quotedblbase" unicode="&#x201e;" horiz-adv-x="305" 
d="M116 -95h-76c9 27 22 66 23 95h-49v140h131v-108c0 -55 -18 -104 -29 -127zM263 -95h-76c9 27 21 66 22 95h-49v140h131v-108c0 -55 -17 -104 -28 -127z" />
    <glyph glyph-name="dagger" unicode="&#x2020;" horiz-adv-x="303" 
d="M72 0v462h-64v139h64v143h159v-143h63v-139h-63v-462h-159z" />
    <glyph glyph-name="daggerdbl" unicode="&#x2021;" horiz-adv-x="303" 
d="M72 143h-64v139h64v180h-64v139h64v143h159v-143h63v-139h-63v-180h63v-139h-63v-143h-159v143z" />
    <glyph glyph-name="bullet" unicode="&#x2022;" horiz-adv-x="266" 
d="M133 206c-72 0 -123 51 -123 123c0 71 51 124 123 124s123 -52 123 -124s-51 -123 -123 -123z" />
    <glyph glyph-name="ellipsis" unicode="&#x2026;" horiz-adv-x="500" 
d="M344 161h142v-161h-142v161zM179 0v161h141v-161h-141zM156 0h-142v161h142v-161z" />
    <glyph glyph-name="perthousand" unicode="&#x2030;" horiz-adv-x="812" 
d="M687 -6h-19c-72 0 -113 39 -113 118v111c0 79 44 118 113 118h20c72 0 113 -41 113 -118v-111c0 -77 -43 -118 -114 -118zM426 -6h-19c-73 0 -113 39 -113 118v111c0 79 44 118 112 118h21c72 0 112 -41 112 -118v-111c0 -77 -44 -118 -113 -118zM11 522v111
c0 80 44 118 112 118h20c72 0 113 -39 113 -118v-111c0 -76 -44 -118 -113 -118h-20c-72 0 -112 41 -112 118zM376 744h98l-299 -744h-98zM148 506v145c0 11 -5 17 -15 17c-9 0 -14 -6 -14 -17v-145c0 -11 5 -17 14 -17c10 0 15 6 15 17zM678 78c9 0 14 6 14 17v145
c0 11 -3 18 -14 18s-14 -7 -14 -18v-145c0 -11 5 -17 14 -17zM417 78c9 0 14 6 14 17v145c0 11 -3 18 -14 18s-14 -7 -14 -18v-145c0 -11 5 -17 14 -17z" />
    <glyph glyph-name="guilsinglleft" unicode="&#x2039;" horiz-adv-x="186" 
d="M132 286l46 -171h-122l-45 138v67l45 135h123z" />
    <glyph glyph-name="guilsinglright" unicode="&#x203a;" horiz-adv-x="186" 
d="M53 286l-46 169h123l45 -136v-67l-45 -137h-123z" />
    <glyph glyph-name="fraction" unicode="&#x2044;" horiz-adv-x="394" 
d="M297 744h95l-296 -744h-94z" />
    <glyph glyph-name="Euro" unicode="&#x20ac;" horiz-adv-x="464" 
d="M6 287v90h55v23h-55v89h55v74c0 107 50 191 180 191h34c130 0 174 -76 174 -174v-71h-162v64c0 24 -5 37 -28 37c-20 0 -27 -12 -27 -37v-84h129v-89h-129v-23h129v-90h-129v-110c0 -26 9 -39 28 -39c21 0 27 15 27 39v88h162v-93c0 -93 -46 -183 -175 -183h-30
c-139 0 -183 82 -183 197v101h-55z" />
    <glyph glyph-name="trademark" unicode="&#x2122;" horiz-adv-x="390" 
d="M166 460v284h95l14 -120l12 120h91v-284h-67v156l-23 -156h-33l-22 156v-156h-67zM154 744v-72h-31v-212h-86v212h-31v72h148z" />
    <glyph glyph-name="uni0192" unicode="&#x192;" horiz-adv-x="301" 
d="M35 -188l26 540h-55v132h61l8 163c3 65 39 97 108 97h108v-129h-37c-16 0 -20 -4 -23 -23l-5 -108h65v-132h-72l-26 -540h-158z" />
    <glyph glyph-name="brokenbar" unicode="&#xa6;" horiz-adv-x="194" 
d="M150 345v-476h-106v476h106zM150 808v-427h-106v427h106z" />
    <glyph glyph-name="onequarter" unicode="&#xbc;" horiz-adv-x="420" 
d="M49 627h-43v77c40 0 52 17 55 40h89v-341h-101v224zM304 744h95l-296 -744h-94zM195 53v70c21 50 63 159 84 220h105v-206h29v-84h-29v-53h-97v53h-92zM260 137h27v77c-5 -19 -21 -60 -27 -77z" />
    <glyph glyph-name="onehalf" unicode="&#xbd;" horiz-adv-x="470" 
d="M304 744h95l-296 -744h-94zM49 627h-43v77c40 0 52 17 55 40h89v-341h-101v224zM461 0h-232v44c0 45 12 65 84 140c35 35 38 44 38 62v15c0 10 -4 15 -12 15c-7 0 -11 -5 -11 -15v-45h-94v44c0 45 22 88 97 88h17c81 0 106 -38 106 -86v-14c0 -47 -21 -73 -74 -113
c-57 -46 -57 -45 -57 -59h52v46h86v-122z" />
    <glyph glyph-name="threequarters" unicode="&#xbe;" horiz-adv-x="481" 
d="M364 744h95l-296 -744h-94zM103 631h-93v35c0 49 26 84 98 84h13c67 0 103 -23 103 -82v-18c0 -33 -19 -51 -34 -56c19 -7 42 -23 42 -62v-41c0 -60 -32 -96 -108 -96h-15c-81 0 -101 40 -101 85v47h97v-42c0 -9 4 -13 11 -13s10 4 10 13v44c0 9 -4 13 -11 13h-45v76h42
c9 0 13 4 13 13v35c0 9 -4 14 -12 14c-7 0 -10 -5 -10 -14v-35zM256 53v70c21 50 63 159 84 220h105v-206h29v-84h-29v-53h-97v53h-92zM321 137h27v77c-5 -19 -21 -60 -27 -77z" />
    <glyph glyph-name="Eth" unicode="&#xd0;" horiz-adv-x="426" 
d="M25 457v287h235c93 0 150 -45 150 -164v-409c0 -117 -50 -171 -149 -171h-236v314h-24v143h24zM188 314v-171h22c25 0 32 14 32 45v375c0 31 -7 43 -30 43h-24v-149h38v-143h-38z" />
    <glyph glyph-name="multiply" unicode="&#xd7;" horiz-adv-x="320" 
d="M242 148l-82 83l-81 -83l-70 68l82 84l-82 84l70 71l82 -84l81 84l70 -69l-83 -84l83 -84z" />
    <glyph glyph-name="Yacute" unicode="&#xdd;" horiz-adv-x="382" 
d="M387 744l-109 -463v-281h-164v278l-120 466h165l41 -245l39 245h148zM133 767l46 123h130l-50 -123h-126z" />
    <glyph glyph-name="Thorn" unicode="&#xde;" horiz-adv-x="410" 
d="M261 180h-78v-180h-165v744h165v-142h77c88 0 138 -39 138 -142v-132c0 -103 -56 -148 -137 -148zM183 477v-168h23c21 0 28 10 28 35v99c0 23 -5 34 -29 34h-22z" />
    <glyph glyph-name="eth" unicode="&#xf0;" horiz-adv-x="392" 
d="M66 546v91l60 23l-46 84h154l20 -35l78 30v-91l-36 -14l36 -63c37 -67 47 -106 47 -182v-227c0 -99 -63 -173 -170 -173h-27c-119 0 -169 68 -169 167v248c0 80 38 136 98 136h5c47 0 80 -28 107 -56l-56 101zM220 153v237c0 19 -3 34 -24 34c-20 0 -23 -15 -23 -34v-237
c0 -20 4 -35 23 -35s24 15 24 35z" />
    <glyph glyph-name="yacute" unicode="&#xfd;" horiz-adv-x="369" 
d="M100 22l-102 516h158l33 -286l28 286h155l-123 -644c-12 -63 -46 -82 -81 -82h-141v136h57c15 0 18 6 19 22l1 13c1 11 0 19 -4 39zM122 561l46 146h128l-50 -146h-124z" />
    <glyph glyph-name="thorn" unicode="&#xfe;" horiz-adv-x="397" 
d="M16 744h160v-271c31 47 63 72 110 72h3c64 0 93 -53 93 -129v-299c0 -76 -46 -128 -102 -128h-3c-43 0 -74 23 -101 62v-239h-160v932zM176 395v-258c0 -19 6 -32 21 -32c19 0 22 14 22 31v259c0 19 -5 30 -22 30s-21 -13 -21 -30z" />
    <glyph glyph-name="Lslash" unicode="&#x141;" 
d="M33 744h165v-284l85 58v-128l-85 -57v-175h135v-158h-300v222l-29 -19v124l29 20v397z" />
    <glyph glyph-name="lslash" unicode="&#x142;" horiz-adv-x="222" 
d="M191 407v-407h-160v304l-27 -17v116l27 17v324h160v-219l27 18v-118z" />
    <glyph glyph-name="Scaron" unicode="&#x160;" horiz-adv-x="411" 
d="M190 754h37c121 0 165 -59 165 -152v-89h-159v80c0 20 -5 32 -25 32c-19 0 -25 -12 -25 -33v-19c0 -31 7 -49 36 -76l85 -76c75 -69 98 -119 98 -200v-37c0 -116 -57 -194 -184 -194h-36c-115 0 -173 55 -173 164v119h162v-103c0 -25 7 -39 28 -39c20 0 27 15 27 44v20
c0 42 -3 61 -39 94l-86 77c-63 56 -85 116 -85 192v35c0 99 58 161 174 161zM148 767l-71 123h109l25 -48l26 48h109l-71 -123h-127z" />
    <glyph glyph-name="scaron" unicode="&#x161;" horiz-adv-x="350" 
d="M336 438v-62h-140v49c0 15 -3 24 -18 24s-19 -9 -19 -24v-14c0 -20 3 -27 22 -42l80 -60c67 -48 83 -94 83 -154v-18c0 -91 -54 -148 -154 -148h-36c-97 0 -147 46 -147 127v75h143v-63c0 -17 7 -26 21 -26h1c12 0 18 9 18 26v16c0 24 -6 39 -26 54l-76 55
c-63 44 -75 91 -75 146v18c0 84 48 132 147 132h35c94 0 141 -37 141 -111zM115 561l-68 146h108l24 -64l25 64h108l-68 -146h-129z" />
    <glyph glyph-name="Zcaron" unicode="&#x17d;" horiz-adv-x="368" 
d="M18 744h331v-140l-160 -450h169v-154h-349v141l159 451h-150v152zM120 767l-71 123h109l25 -48l26 48h109l-71 -123h-127z" />
    <glyph glyph-name="zcaron" unicode="&#x17e;" horiz-adv-x="310" 
d="M15 538h282v-121l-121 -282h126v-135h-295v121l124 288h-116v129zM92 561l-68 146h108l24 -64l25 64h108l-68 -146h-129z" />
    <glyph glyph-name="minus" unicode="&#x2212;" horiz-adv-x="329" 
d="M14 351h301v-99h-301v99z" />
    <glyph glyph-name="Dcroat" unicode="&#x110;" horiz-adv-x="426" 
d="M25 457v287h235c93 0 150 -45 150 -164v-409c0 -117 -50 -171 -149 -171h-236v314h-24v143h24zM188 314v-171h22c25 0 32 14 32 45v375c0 31 -7 43 -30 43h-24v-149h38v-143h-38z" />
    <glyph glyph-name="Eng" unicode="&#x14a;" horiz-adv-x="421" 
d="M312 -188h-110v132h41c15 0 22 9 22 26v30l-105 390v-390h-142v744h159l86 -373v373h140v-830c0 -64 -36 -102 -91 -102z" />
    <glyph glyph-name="IJ" unicode="&#x132;" horiz-adv-x="596" 
d="M183 744v-744h-165v744h165zM209 332h154v-168c0 -17 7 -26 22 -26h2c14 0 21 9 21 26v580h170v-585c0 -104 -54 -168 -166 -168h-49c-108 0 -154 57 -154 157v184z" />
    <glyph glyph-name="dcroat" unicode="&#x111;" horiz-adv-x="397" 
d="M143 575v112h268v-112h-268zM222 744h160v-744h-159v60c-19 -29 -54 -71 -103 -71h-3c-60 0 -102 60 -102 129v305c0 64 33 121 92 121h6c54 0 87 -40 109 -67v267zM222 146v239c0 21 -4 36 -23 36s-23 -12 -23 -32v-246c0 -19 4 -32 23 -32s23 15 23 35z" />
    <glyph glyph-name="eng" unicode="&#x14b;" horiz-adv-x="399" 
d="M221 -28v414c0 16 -4 29 -23 29s-22 -13 -22 -32v-383h-160v538h156v-70c31 41 65 75 114 75h10c68 0 87 -64 87 -100v-550c0 -51 -34 -81 -79 -81h-117v140h17c12 0 17 4 17 20z" />
    <glyph glyph-name="ij" unicode="&#x133;" horiz-adv-x="379" 
d="M176 538v-538h-160v538h160zM176 702v-141h-160v141h160zM363 702v-141h-160v141h160zM141 -47h45c12 0 17 4 17 19v566h160v-645c0 -51 -34 -81 -79 -81h-143v141z" />
    <glyph glyph-name="Abreve" unicode="&#x102;" horiz-adv-x="397" 
d="M240 0l-12 109h-76l-11 -109h-143l95 744h203l104 -744h-160zM190 482l-23 -226h46zM196 764h-5c-76 0 -121 46 -121 113v8h99v-6c0 -16 8 -27 24 -27h1c16 0 24 11 24 27v6h98v-8c0 -67 -49 -113 -120 -113z" />
    <glyph glyph-name="Amacron" unicode="&#x100;" horiz-adv-x="397" 
d="M240 0l-12 109h-76l-11 -109h-143l95 744h203l104 -744h-160zM190 482l-23 -226h46zM84 774v100h220v-100h-220z" />
    <glyph glyph-name="Aogonek" unicode="&#x104;" horiz-adv-x="397" 
d="M240 0l-12 109h-76l-11 -109h-143l95 744h203l104 -744h-160zM190 482l-23 -226h46zM245 -123v13c0 37 30 71 82 110h71c-32 -39 -42 -55 -42 -76v-3c0 -14 9 -21 27 -21h15v-88h-69c-49 0 -84 24 -84 65z" />
    <glyph glyph-name="Aringacute" unicode="&#x1fa;" horiz-adv-x="397" 
d="M240 0l-12 109h-76l-11 -109h-143l95 744h203l104 -744h-160zM190 482l-23 -226h46zM133 941l46 123h130l-50 -123h-126zM159 845c0 -20 14 -35 34 -35s34 15 34 35c0 19 -14 34 -34 34s-34 -15 -34 -34zM193 928c49 0 86 -34 86 -83c0 -48 -37 -83 -86 -83
s-86 35 -86 83c0 49 37 83 86 83z" />
    <glyph glyph-name="AEacute" unicode="&#x1fc;" horiz-adv-x="552" 
d="M266 767l46 123h130l-50 -123h-126zM543 0h-301v117h-72l-18 -117h-158l140 744h401v-155h-129v-126h101v-158h-101v-148h137v-157zM193 263h49v305z" />
    <glyph glyph-name="Cacute" unicode="&#x106;" horiz-adv-x="418" 
d="M153 771l46 119h129l-48 -119h-127zM241 176v149h163v-154c0 -93 -45 -183 -176 -183h-29c-139 0 -183 82 -183 197v378c0 107 48 191 182 191h30c132 0 176 -76 176 -174v-122h-163v115c0 24 -6 37 -27 37s-27 -10 -27 -37v-397c0 -25 7 -39 28 -39c20 0 26 16 26 39z
" />
    <glyph glyph-name="Ccaron" unicode="&#x10c;" horiz-adv-x="418" 
d="M148 771l-69 119h110l26 -48l26 48h111l-70 -119h-134zM241 176v149h163v-154c0 -93 -45 -183 -176 -183h-29c-139 0 -183 82 -183 197v378c0 107 48 191 182 191h30c132 0 176 -76 176 -174v-122h-163v115c0 24 -6 37 -27 37s-27 -10 -27 -37v-397c0 -25 7 -39 28 -39
c20 0 26 16 26 39z" />
    <glyph glyph-name="Ccircumflex" unicode="&#x108;" horiz-adv-x="418" 
d="M282 890l69 -119h-109l-28 44l-25 -44h-109l68 119h134zM241 176v149h163v-154c0 -93 -45 -183 -176 -183h-29c-139 0 -183 82 -183 197v378c0 107 48 191 182 191h30c132 0 176 -76 176 -174v-122h-163v115c0 24 -6 37 -27 37s-27 -10 -27 -37v-397c0 -25 7 -39 28 -39
c20 0 26 16 26 39z" />
    <glyph glyph-name="Cdotaccent" unicode="&#x10a;" horiz-adv-x="418" 
d="M294 908v-137h-160v137h160zM241 176v149h163v-154c0 -93 -45 -183 -176 -183h-29c-139 0 -183 82 -183 197v378c0 107 48 191 182 191h30c132 0 176 -76 176 -174v-122h-163v115c0 24 -6 37 -27 37s-27 -10 -27 -37v-397c0 -25 7 -39 28 -39c20 0 26 16 26 39z" />
    <glyph glyph-name="Dcaron" unicode="&#x10e;" horiz-adv-x="420" 
d="M125 767l-71 123h109l25 -48l26 48h109l-71 -123h-127zM18 0v744h236c92 0 149 -45 149 -164v-409c0 -117 -51 -171 -148 -171h-237zM181 606v-463h23c24 0 31 14 31 45v375c0 31 -6 43 -29 43h-25z" />
    <glyph glyph-name="Ebreve" unicode="&#x114;" 
d="M18 744h309v-154h-146v-127h117v-158h-117v-148h152v-157h-315v744zM179 764h-5c-76 0 -121 46 -121 113v8h99v-6c0 -16 8 -27 24 -27h1c16 0 24 11 24 27v6h98v-8c0 -67 -49 -113 -120 -113z" />
    <glyph glyph-name="Ecaron" unicode="&#x11a;" 
d="M113 767l-71 123h109l25 -48l26 48h109l-71 -123h-127zM18 744h309v-154h-146v-127h117v-158h-117v-148h152v-157h-315v744z" />
    <glyph glyph-name="Edotaccent" unicode="&#x116;" 
d="M257 908v-141h-160v141h160zM18 744h309v-154h-146v-127h117v-158h-117v-148h152v-157h-315v744z" />
    <glyph glyph-name="Emacron" unicode="&#x112;" 
d="M18 744h309v-154h-146v-127h117v-158h-117v-148h152v-157h-315v744zM64 774v100h220v-100h-220z" />
    <glyph glyph-name="Eogonek" unicode="&#x118;" 
d="M131 -123v13c0 37 30 71 82 110h71c-32 -39 -42 -55 -42 -76v-3c0 -14 9 -21 27 -21h15v-88h-69c-49 0 -84 24 -84 65zM18 744h309v-154h-146v-127h117v-158h-117v-148h152v-157h-315v744z" />
    <glyph glyph-name="Gbreve" unicode="&#x11e;" horiz-adv-x="427" 
d="M216 767h-5c-76 0 -121 46 -121 113v8h99v-6c0 -16 8 -27 24 -27h1c16 0 24 11 24 27v6h98v-8c0 -67 -49 -113 -120 -113zM163 -10h-8c-93 0 -139 78 -139 169v406c0 100 46 189 182 189h28c145 0 179 -89 179 -179v-86h-160v84c0 24 -6 39 -30 39c-19 0 -28 -13 -28 -39
v-399c0 -29 11 -43 33 -43c23 0 34 14 34 42v138h-46v137h204v-448h-107c-2 15 -12 53 -20 69c-19 -32 -55 -79 -122 -79z" />
    <glyph glyph-name="Gcircumflex" unicode="&#x11c;" horiz-adv-x="427" 
d="M280 890l69 -119h-109l-27 44l-26 -44h-108l68 119h133zM163 -10h-8c-93 0 -139 78 -139 169v406c0 100 46 189 182 189h28c145 0 179 -89 179 -179v-86h-160v84c0 24 -6 39 -30 39c-19 0 -28 -13 -28 -39v-399c0 -29 11 -43 33 -43c23 0 34 14 34 42v138h-46v137h204
v-448h-107c-2 15 -12 53 -20 69c-19 -32 -55 -79 -122 -79z" />
    <glyph glyph-name="uni0122" unicode="&#x122;" horiz-adv-x="427" 
d="M261 -212h-66c8 21 13 44 15 71h-53v117h126v-77c0 -53 -15 -94 -22 -111zM163 -10h-8c-93 0 -139 78 -139 169v406c0 100 46 189 182 189h28c145 0 179 -89 179 -179v-86h-160v84c0 24 -6 39 -30 39c-19 0 -28 -13 -28 -39v-399c0 -29 11 -43 33 -43c23 0 34 14 34 42
v138h-46v137h204v-448h-107c-2 15 -12 53 -20 69c-19 -32 -55 -79 -122 -79z" />
    <glyph glyph-name="Gdotaccent" unicode="&#x120;" horiz-adv-x="427" 
d="M296 908v-137h-160v137h160zM163 -10h-8c-93 0 -139 78 -139 169v406c0 100 46 189 182 189h28c145 0 179 -89 179 -179v-86h-160v84c0 24 -6 39 -30 39c-19 0 -28 -13 -28 -39v-399c0 -29 11 -43 33 -43c23 0 34 14 34 42v138h-46v137h204v-448h-107
c-2 15 -12 53 -20 69c-19 -32 -55 -79 -122 -79z" />
    <glyph glyph-name="Hbar" unicode="&#x126;" horiz-adv-x="429" 
d="M-1 550v112h431v-112h-431zM185 300v-300h-165v744h165v-270h57v270h165v-744h-165v300h-57z" />
    <glyph glyph-name="Hcircumflex" unicode="&#x124;" horiz-adv-x="424" 
d="M183 300v-300h-165v744h165v-270h57v270h165v-744h-165v300h-57zM275 890l71 -123h-108l-27 47l-26 -47h-108l70 123h128z" />
    <glyph glyph-name="Ibreve" unicode="&#x12c;" horiz-adv-x="201" 
d="M183 744v-744h-165v744h165zM104 764h-5c-76 0 -121 46 -121 113v8h99v-6c0 -16 8 -27 24 -27h1c16 0 24 11 24 27v6h98v-8c0 -67 -49 -113 -120 -113z" />
    <glyph glyph-name="Idotaccent" unicode="&#x130;" horiz-adv-x="201" 
d="M183 744v-744h-165v744h165zM182 908v-141h-160v141h160z" />
    <glyph glyph-name="Imacron" unicode="&#x12a;" horiz-adv-x="201" 
d="M183 744v-744h-165v744h165zM-9 774v100h220v-100h-220z" />
    <glyph glyph-name="Iogonek" unicode="&#x12e;" horiz-adv-x="201" 
d="M183 744v-744h-165v744h165zM31 -123v13c0 37 30 71 82 110h71c-32 -39 -42 -55 -42 -76v-3c0 -14 9 -21 27 -21h15v-88h-69c-49 0 -84 24 -84 65z" />
    <glyph glyph-name="Itilde" unicode="&#x128;" horiz-adv-x="201" 
d="M183 744v-744h-165v744h165zM99 785c-15 7 -22 10 -29 10c-5 0 -8 -4 -8 -11v-18h-85v50c0 47 22 75 61 75h1c23 0 39 -5 64 -16c19 -8 23 -11 30 -11c5 0 7 4 7 11v19h85v-49c0 -48 -25 -75 -61 -75h-2c-19 0 -36 4 -63 15z" />
    <glyph glyph-name="Jcircumflex" unicode="&#x134;" horiz-adv-x="399" 
d="M355 890l71 -123h-108l-27 47l-26 -47h-108l70 123h128zM12 332h154v-168c0 -17 7 -26 22 -26h2c14 0 21 9 21 26v580h170v-585c0 -104 -54 -168 -166 -168h-49c-108 0 -154 57 -154 157v184z" />
    <glyph glyph-name="uni0136" unicode="&#x136;" horiz-adv-x="425" 
d="M262 -211h-66c8 21 13 44 15 71h-53v117h126v-77c0 -53 -15 -94 -22 -111zM183 297v-297h-165v744h165v-263l77 263h164l-101 -332l107 -412h-173z" />
    <glyph glyph-name="Lacute" unicode="&#x139;" horiz-adv-x="327" 
d="M39 767l46 123h130l-50 -123h-126zM18 744h165v-586h135v-158h-300v744z" />
    <glyph glyph-name="Lcaron" unicode="&#x13d;" horiz-adv-x="327" 
d="M198 586l6 158h104l-11 -158h-99zM18 744h165v-586h135v-158h-300v744z" />
    <glyph glyph-name="uni013B" unicode="&#x13b;" horiz-adv-x="327" 
d="M212 -211h-66c8 21 13 44 15 71h-53v117h126v-77c0 -53 -15 -94 -22 -111zM18 744h165v-586h135v-158h-300v744z" />
    <glyph glyph-name="Ldot" unicode="&#x13f;" horiz-adv-x="356" 
d="M346 468v-161h-141v161h141zM18 744h165v-586h135v-158h-300v744z" />
    <glyph glyph-name="Nacute" unicode="&#x143;" horiz-adv-x="423" 
d="M149 767l46 123h130l-50 -123h-126zM18 744h160l85 -360v360h141v-744h-145l-98 388v-388h-143v744z" />
    <glyph glyph-name="Ncaron" unicode="&#x147;" horiz-adv-x="423" 
d="M150 767l-71 123h109l25 -48l26 48h109l-71 -123h-127zM18 744h160l85 -360v360h141v-744h-145l-98 388v-388h-143v744z" />
    <glyph glyph-name="uni0145" unicode="&#x145;" horiz-adv-x="423" 
d="M254 -211h-66c8 21 13 44 15 71h-53v117h126v-77c0 -53 -15 -94 -22 -111zM18 744h160l85 -360v360h141v-744h-145l-98 388v-388h-143v744z" />
    <glyph glyph-name="Obreve" unicode="&#x14e;" horiz-adv-x="433" 
d="M219 767h-5c-76 0 -121 46 -121 113v8h99v-6c0 -16 8 -27 24 -27h1c16 0 24 11 24 27v6h98v-8c0 -67 -49 -113 -120 -113zM418 544v-353c0 -129 -71 -202 -184 -202h-32c-121 0 -186 73 -186 202v353c0 128 54 210 185 210h32c132 0 185 -83 185 -210zM247 180v381
c0 28 -10 42 -30 42c-23 0 -30 -14 -30 -42v-381c0 -23 8 -37 31 -37c21 0 29 14 29 37z" />
    <glyph glyph-name="Ohungarumlaut" unicode="&#x150;" horiz-adv-x="433" 
d="M103 771l27 119h108l-30 -119h-105zM231 771l30 119h108l-32 -119h-106zM418 544v-353c0 -129 -71 -202 -184 -202h-32c-121 0 -186 73 -186 202v353c0 128 54 210 185 210h32c132 0 185 -83 185 -210zM247 180v381c0 28 -10 42 -30 42c-23 0 -30 -14 -30 -42v-381
c0 -23 8 -37 31 -37c21 0 29 14 29 37z" />
    <glyph glyph-name="Omacron" unicode="&#x14c;" horiz-adv-x="433" 
d="M106 777v100h220v-100h-220zM418 544v-353c0 -129 -71 -202 -184 -202h-32c-121 0 -186 73 -186 202v353c0 128 54 210 185 210h32c132 0 185 -83 185 -210zM247 180v381c0 28 -10 42 -30 42c-23 0 -30 -14 -30 -42v-381c0 -23 8 -37 31 -37c21 0 29 14 29 37z" />
    <glyph glyph-name="Oslashacute" unicode="&#x1fe;" horiz-adv-x="429" 
d="M150 771l46 119h129l-48 -119h-127zM413 545v-354c0 -129 -71 -202 -184 -202h-27c-44 0 -80 12 -108 36l-12 -25h-82l38 84c-15 29 -22 63 -22 107v353c0 128 54 210 185 210h26c44 0 79 -11 105 -33l11 23h83l-37 -83c15 -29 24 -67 24 -116zM215 142c24 0 31 15 31 38
v195l-63 -163v-32c0 -23 8 -38 32 -38zM215 604c-24 0 -32 -12 -32 -43v-183l63 163v20c0 29 -10 43 -31 43z" />
    <glyph glyph-name="Racute" unicode="&#x154;" horiz-adv-x="417" 
d="M137 767l46 123h130l-50 -123h-126zM183 616v-171h21c21 0 30 9 30 36v100c0 27 -4 35 -27 35h-24zM183 305v-305h-165v744h259c73 0 123 -43 123 -131v-98c0 -69 -36 -100 -65 -113c28 -11 65 -42 65 -97v-246c0 -28 5 -43 10 -54v-5h-163c-7 9 -13 26 -13 53v216
c0 25 -5 36 -28 36h-23z" />
    <glyph glyph-name="Rcaron" unicode="&#x158;" horiz-adv-x="417" 
d="M134 767l-71 123h109l25 -48l26 48h109l-71 -123h-127zM183 616v-171h21c21 0 30 9 30 36v100c0 27 -4 35 -27 35h-24zM183 305v-305h-165v744h259c73 0 123 -43 123 -131v-98c0 -69 -36 -100 -65 -113c28 -11 65 -42 65 -97v-246c0 -28 5 -43 10 -54v-5h-163
c-7 9 -13 26 -13 53v216c0 25 -5 36 -28 36h-23z" />
    <glyph glyph-name="uni0156" unicode="&#x156;" horiz-adv-x="417" 
d="M254 -211h-66c8 21 13 44 15 71h-53v117h126v-77c0 -53 -15 -94 -22 -111zM183 616v-171h21c21 0 30 9 30 36v100c0 27 -4 35 -27 35h-24zM183 305v-305h-165v744h259c73 0 123 -43 123 -131v-98c0 -69 -36 -100 -65 -113c28 -11 65 -42 65 -97v-246c0 -28 5 -43 10 -54
v-5h-163c-7 9 -13 26 -13 53v216c0 25 -5 36 -28 36h-23z" />
    <glyph glyph-name="Sacute" unicode="&#x15a;" horiz-adv-x="411" 
d="M145 771l46 119h130l-49 -119h-127zM190 754h37c121 0 165 -59 165 -152v-89h-159v80c0 20 -5 32 -25 32c-19 0 -25 -12 -25 -33v-19c0 -31 7 -49 36 -76l85 -76c75 -69 98 -119 98 -200v-37c0 -116 -57 -194 -184 -194h-36c-115 0 -173 55 -173 164v119h162v-103
c0 -25 7 -39 28 -39c20 0 27 15 27 44v20c0 42 -3 61 -39 94l-86 77c-63 56 -85 116 -85 192v35c0 99 58 161 174 161z" />
    <glyph glyph-name="uni015E" unicode="&#x15e;" horiz-adv-x="411" 
d="M190 754h37c121 0 165 -59 165 -152v-89h-159v80c0 20 -5 32 -25 32c-19 0 -25 -12 -25 -33v-19c0 -31 7 -49 36 -76l85 -76c75 -69 98 -119 98 -200v-37c0 -116 -57 -194 -184 -194h-36c-115 0 -173 55 -173 164v119h162v-103c0 -25 7 -39 28 -39c20 0 27 15 27 44v20
c0 42 -3 61 -39 94l-86 77c-63 56 -85 116 -85 192v35c0 99 58 161 174 161zM199 -196h-75v71h58c14 0 21 5 21 15v1c0 9 -7 14 -21 14h-43v95h68v-35h5c59 -1 89 -26 89 -75v-3c0 -55 -39 -83 -102 -83z" />
    <glyph glyph-name="Scircumflex" unicode="&#x15c;" horiz-adv-x="411" 
d="M276 890l69 -119h-110l-27 44l-25 -44h-109l68 119h134zM190 754h37c121 0 165 -59 165 -152v-89h-159v80c0 20 -5 32 -25 32c-19 0 -25 -12 -25 -33v-19c0 -31 7 -49 36 -76l85 -76c75 -69 98 -119 98 -200v-37c0 -116 -57 -194 -184 -194h-36c-115 0 -173 55 -173 164
v119h162v-103c0 -25 7 -39 28 -39c20 0 27 15 27 44v20c0 42 -3 61 -39 94l-86 77c-63 56 -85 116 -85 192v35c0 99 58 161 174 161z" />
    <glyph glyph-name="uni0218" unicode="&#x218;" horiz-adv-x="411" 
d="M246 -214h-66c8 21 13 44 15 71h-53v117h126v-77c0 -53 -15 -94 -22 -111zM190 754h37c121 0 165 -59 165 -152v-89h-159v80c0 20 -5 32 -25 32c-19 0 -25 -12 -25 -33v-19c0 -31 7 -49 36 -76l85 -76c75 -69 98 -119 98 -200v-37c0 -116 -57 -194 -184 -194h-36
c-115 0 -173 55 -173 164v119h162v-103c0 -25 7 -39 28 -39c20 0 27 15 27 44v20c0 42 -3 61 -39 94l-86 77c-63 56 -85 116 -85 192v35c0 99 58 161 174 161z" />
    <glyph glyph-name="Tcaron" unicode="&#x164;" horiz-adv-x="368" 
d="M120 767l-71 123h109l25 -48l26 48h109l-71 -123h-127zM9 744h350v-154h-93v-590h-164v590h-93v154z" />
    <glyph glyph-name="Tcommaaccent" unicode="&#x162;" horiz-adv-x="368" 
d="M225 -211h-66c8 21 13 44 15 71h-53v117h126v-77c0 -53 -15 -94 -22 -111zM9 744h350v-154h-93v-590h-164v590h-93v154z" />
    <glyph glyph-name="uni021A" unicode="&#x21a;" horiz-adv-x="368" 
d="M225 -211h-66c8 21 13 44 15 71h-53v117h126v-77c0 -53 -15 -94 -22 -111zM9 744h350v-154h-93v-590h-164v590h-93v154z" />
    <glyph glyph-name="Tbar" unicode="&#x166;" horiz-adv-x="368" 
d="M331 330h-295v132h295v-132zM9 744h350v-154h-93v-590h-164v590h-93v154z" />
    <glyph glyph-name="Ubreve" unicode="&#x16c;" horiz-adv-x="430" 
d="M18 177v567h170v-559c0 -25 9 -38 27 -38c20 0 27 14 27 38v559h170v-567c0 -113 -65 -189 -182 -189h-32c-124 0 -180 74 -180 189zM217 764h-5c-76 0 -121 46 -121 113v8h99v-6c0 -16 8 -27 24 -27h1c16 0 24 11 24 27v6h98v-8c0 -67 -49 -113 -120 -113z" />
    <glyph glyph-name="Uhungarumlaut" unicode="&#x170;" horiz-adv-x="430" 
d="M98 767l27 123h109l-30 -123h-106zM227 767l29 123h109l-33 -123h-105zM18 177v567h170v-559c0 -25 9 -38 27 -38c20 0 27 14 27 38v559h170v-567c0 -113 -65 -189 -182 -189h-32c-124 0 -180 74 -180 189z" />
    <glyph glyph-name="Umacron" unicode="&#x16a;" horiz-adv-x="430" 
d="M18 177v567h170v-559c0 -25 9 -38 27 -38c20 0 27 14 27 38v559h170v-567c0 -113 -65 -189 -182 -189h-32c-124 0 -180 74 -180 189zM104 774v100h220v-100h-220z" />
    <glyph glyph-name="Uogonek" unicode="&#x172;" horiz-adv-x="430" 
d="M178 -123v13c0 35 26 67 71 99c-7 -1 -12 -1 -19 -1h-32c-124 0 -180 74 -180 189v567h170v-559c0 -25 9 -38 27 -38c20 0 27 14 27 38v559h170v-567c0 -92 -40 -134 -80 -177c-31 -35 -42 -55 -42 -76v-3c0 -14 9 -21 26 -21h16v-88h-70c-48 0 -84 24 -84 65z" />
    <glyph glyph-name="Uring" unicode="&#x16e;" horiz-adv-x="430" 
d="M18 177v567h170v-559c0 -25 9 -38 27 -38c20 0 27 14 27 38v559h170v-567c0 -113 -65 -189 -182 -189h-32c-124 0 -180 74 -180 189zM180 845c0 -20 14 -35 34 -35s34 15 34 35c0 19 -14 34 -34 34s-34 -15 -34 -34zM214 928c49 0 86 -34 86 -83c0 -48 -37 -83 -86 -83
s-86 35 -86 83c0 49 37 83 86 83z" />
    <glyph glyph-name="Utilde" unicode="&#x168;" horiz-adv-x="430" 
d="M216 785c-15 7 -22 10 -29 10c-5 0 -8 -4 -8 -11v-18h-85v50c0 47 22 75 61 75h1c23 0 39 -5 64 -16c19 -8 23 -11 30 -11c5 0 7 4 7 11v19h85v-49c0 -48 -25 -75 -61 -75h-2c-19 0 -36 4 -63 15zM18 177v567h170v-559c0 -25 9 -38 27 -38c20 0 27 14 27 38v559h170v-567
c0 -113 -65 -189 -182 -189h-32c-124 0 -180 74 -180 189z" />
    <glyph glyph-name="Wacute" unicode="&#x1e82;" horiz-adv-x="629" 
d="M255 767l46 123h130l-50 -123h-126zM242 744h155l40 -457l35 457h158l-95 -744h-187l-32 394l-32 -394h-191l-94 744h169l34 -461z" />
    <glyph glyph-name="Wcircumflex" unicode="&#x174;" horiz-adv-x="629" 
d="M378 890l71 -123h-108l-27 47l-26 -47h-108l70 123h128zM242 744h155l40 -457l35 457h158l-95 -744h-187l-32 394l-32 -394h-191l-94 744h169l34 -461z" />
    <glyph glyph-name="Wdieresis" unicode="&#x1e84;" horiz-adv-x="629" 
d="M445 885v-118h-118v118h118zM303 885v-118h-118v118h118zM242 744h155l40 -457l35 457h158l-95 -744h-187l-32 394l-32 -394h-191l-94 744h169l34 -461z" />
    <glyph glyph-name="Wgrave" unicode="&#x1e80;" horiz-adv-x="629" 
d="M336 890l45 -123h-126l-48 123h129zM242 744h155l40 -457l35 457h158l-95 -744h-187l-32 394l-32 -394h-191l-94 744h169l34 -461z" />
    <glyph glyph-name="Ycircumflex" unicode="&#x176;" horiz-adv-x="382" 
d="M387 744l-109 -463v-281h-164v278l-120 466h165l41 -245l39 245h148zM261 890l71 -123h-108l-27 47l-26 -47h-108l70 123h128z" />
    <glyph glyph-name="Ygrave" unicode="&#x1ef2;" horiz-adv-x="382" 
d="M387 744l-109 -463v-281h-164v278l-120 466h165l41 -245l39 245h148zM217 890l45 -123h-126l-48 123h129z" />
    <glyph glyph-name="Zacute" unicode="&#x179;" horiz-adv-x="368" 
d="M116 767l46 123h130l-50 -123h-126zM18 744h331v-140l-160 -450h169v-154h-349v141l159 451h-150v152z" />
    <glyph glyph-name="Zdotaccent" unicode="&#x17b;" horiz-adv-x="368" 
d="M18 744h331v-140l-160 -450h169v-154h-349v141l159 451h-150v152zM264 908v-141h-160v141h160z" />
    <glyph glyph-name="abreve" unicode="&#x103;" horiz-adv-x="388" 
d="M202 136v123c-7 -4 -20 -12 -28 -21c-8 -11 -11 -19 -11 -39v-63c0 -16 4 -26 19 -26s20 11 20 26zM11 96v106c0 57 23 91 68 115c27 13 96 42 112 50c8 4 11 5 11 20v28c0 16 -6 24 -19 24h-3c-16 0 -20 -9 -20 -24v-50h-142v61c0 71 45 121 152 121h22
c115 0 164 -43 164 -127v-277c0 -9 3 -12 15 -12h14v-131h-141c-27 0 -41 20 -41 61c-17 -28 -52 -67 -103 -67h-4c-56 0 -85 49 -85 102zM181 561h-4c-76 0 -122 43 -122 119v12h99v-7c0 -23 8 -35 24 -35h1c17 0 25 12 25 35v7h97v-12c0 -76 -49 -119 -120 -119z" />
    <glyph glyph-name="amacron" unicode="&#x101;" horiz-adv-x="388" 
d="M202 136v123c-7 -4 -20 -12 -28 -21c-8 -11 -11 -19 -11 -39v-63c0 -16 4 -26 19 -26s20 11 20 26zM11 96v106c0 57 23 91 68 115c27 13 96 42 112 50c8 4 11 5 11 20v28c0 16 -6 24 -19 24h-3c-16 0 -20 -9 -20 -24v-50h-142v61c0 71 45 121 152 121h22
c115 0 164 -43 164 -127v-277c0 -9 3 -12 15 -12h14v-131h-141c-27 0 -41 20 -41 61c-17 -28 -52 -67 -103 -67h-4c-56 0 -85 49 -85 102zM72 572v100h220v-100h-220z" />
    <glyph glyph-name="aogonek" unicode="&#x105;" horiz-adv-x="388" 
d="M202 136v123c-7 -4 -20 -12 -28 -21c-8 -11 -11 -19 -11 -39v-63c0 -16 4 -26 19 -26s20 11 20 26zM11 96v106c0 57 23 91 68 115c27 13 96 42 112 50c8 4 11 5 11 20v28c0 16 -6 24 -19 24h-3c-16 0 -20 -9 -20 -24v-50h-142v61c0 71 45 121 152 121h22
c115 0 164 -43 164 -127v-277c0 -9 3 -12 15 -12h14v-131h-141c-27 0 -41 20 -41 61c-17 -28 -52 -67 -103 -67h-4c-56 0 -85 49 -85 102zM231 -123v13c0 37 30 71 82 110h71c-32 -39 -42 -55 -42 -76v-3c0 -14 9 -21 27 -21h15v-88h-69c-49 0 -84 24 -84 65z" />
    <glyph glyph-name="aringacute" unicode="&#x1fb;" horiz-adv-x="388" 
d="M202 136v123c-7 -4 -20 -12 -28 -21c-8 -11 -11 -19 -11 -39v-63c0 -16 4 -26 19 -26s20 11 20 26zM11 96v106c0 57 23 91 68 115c27 13 96 42 112 50c8 4 11 5 11 20v28c0 16 -6 24 -19 24h-3c-16 0 -20 -9 -20 -24v-50h-142v61c0 71 45 121 152 121h22
c115 0 164 -43 164 -127v-277c0 -9 3 -12 15 -12h14v-131h-141c-27 0 -41 20 -41 61c-17 -28 -52 -67 -103 -67h-4c-56 0 -85 49 -85 102zM123 741l46 146h128l-50 -146h-124zM182 609c20 0 34 15 34 35c0 19 -14 34 -34 34s-34 -15 -34 -34c0 -20 14 -35 34 -35zM182 561
c-49 0 -86 35 -86 83c0 49 37 83 86 83s86 -34 86 -83c0 -48 -37 -83 -86 -83z" />
    <glyph glyph-name="aeacute" unicode="&#x1fd;" horiz-adv-x="563" 
d="M222 561l46 146h128l-50 -146h-124zM219 65c-23 -35 -61 -71 -117 -71h-3c-59 0 -88 50 -88 103v90c0 59 23 92 68 116c26 16 96 42 112 50c8 4 11 5 11 20v42c0 16 -6 24 -19 24h-4c-13 0 -19 -8 -19 -24v-64h-142v75c0 71 46 121 151 121h20c59 0 86 -20 97 -29
c11 11 36 31 91 31h15c96 0 160 -45 160 -165v-134h-195v-112c1 -23 6 -30 21 -30c19 0 22 11 22 30v76h152v-71c0 -96 -56 -154 -159 -154h-30c-94 0 -128 41 -144 76zM202 136v110c-7 -4 -20 -12 -28 -21c-9 -11 -11 -19 -11 -40v-49c0 -17 6 -26 19 -26c15 0 20 11 20 26
zM357 412v-63h45v62c0 21 -3 32 -22 32s-23 -12 -23 -31z" />
    <glyph glyph-name="cacute" unicode="&#x107;" horiz-adv-x="368" 
d="M128 566l46 141h128l-49 -141h-125zM212 241h145v-108c0 -83 -52 -145 -152 -145h-30c-105 0 -162 57 -162 157v240c0 93 44 164 161 164h33c112 0 150 -61 150 -143v-81h-144v78c0 19 -4 29 -21 29c-15 0 -18 -9 -18 -28v-265c0 -16 3 -27 18 -27c13 0 20 9 20 26v103z
" />
    <glyph glyph-name="ccaron" unicode="&#x10d;" horiz-adv-x="368" 
d="M126 566l-66 141h108l24 -64l25 64h107l-66 -141h-132zM212 241h145v-108c0 -83 -52 -145 -152 -145h-30c-105 0 -162 57 -162 157v240c0 93 44 164 161 164h33c112 0 150 -61 150 -143v-81h-144v78c0 19 -4 29 -21 29c-15 0 -18 -9 -18 -28v-265c0 -16 3 -27 18 -27
c13 0 20 9 20 26v103z" />
    <glyph glyph-name="ccircumflex" unicode="&#x109;" horiz-adv-x="368" 
d="M255 707l68 -141h-109l-24 60l-25 -60h-106l67 141h129zM212 241h145v-108c0 -83 -52 -145 -152 -145h-30c-105 0 -162 57 -162 157v240c0 93 44 164 161 164h33c112 0 150 -61 150 -143v-81h-144v78c0 19 -4 29 -21 29c-15 0 -18 -9 -18 -28v-265c0 -16 3 -27 18 -27
c13 0 20 9 20 26v103z" />
    <glyph glyph-name="cdotaccent" unicode="&#x10b;" horiz-adv-x="368" 
d="M271 702v-136h-160v136h160zM212 241h145v-108c0 -83 -52 -145 -152 -145h-30c-105 0 -162 57 -162 157v240c0 93 44 164 161 164h33c112 0 150 -61 150 -143v-81h-144v78c0 19 -4 29 -21 29c-15 0 -18 -9 -18 -28v-265c0 -16 3 -27 18 -27c13 0 20 9 20 26v103z" />
    <glyph glyph-name="dcaron" unicode="&#x10f;" horiz-adv-x="397" 
d="M396 586l6 158h104l-11 -158h-99zM222 744h160v-744h-159v60c-19 -29 -54 -71 -103 -71h-3c-60 0 -102 60 -102 129v305c0 64 33 121 92 121h6c54 0 87 -40 109 -67v267zM222 146v239c0 21 -4 36 -23 36s-23 -12 -23 -32v-246c0 -19 4 -32 23 -32s23 15 23 35z" />
    <glyph glyph-name="ebreve" unicode="&#x115;" horiz-adv-x="375" 
d="M174 549h31c96 0 158 -48 158 -160v-138h-195v-113c0 -20 7 -30 22 -30c16 0 21 11 21 30v76h152v-74c0 -97 -65 -151 -158 -151h-31c-99 0 -161 50 -161 154v246c0 93 51 160 161 160zM168 410v-61h45v61c0 23 -4 33 -23 33s-22 -10 -22 -33zM191 563h-4
c-76 0 -122 43 -122 119v12h99v-7c0 -23 8 -35 24 -35h1c17 0 25 12 25 35v7h97v-12c0 -76 -49 -119 -120 -119z" />
    <glyph glyph-name="ecaron" unicode="&#x11b;" horiz-adv-x="375" 
d="M123 566l-66 139h108l24 -62l25 62h108l-67 -139h-132zM174 549h31c96 0 158 -48 158 -160v-138h-195v-113c0 -20 7 -30 22 -30c16 0 21 11 21 30v76h152v-74c0 -97 -65 -151 -158 -151h-31c-99 0 -161 50 -161 154v246c0 93 51 160 161 160zM168 410v-61h45v61
c0 23 -4 33 -23 33s-22 -10 -22 -33z" />
    <glyph glyph-name="edotaccent" unicode="&#x117;" horiz-adv-x="375" 
d="M269 702v-136h-160v136h160zM174 549h31c96 0 158 -48 158 -160v-138h-195v-113c0 -20 7 -30 22 -30c16 0 21 11 21 30v76h152v-74c0 -97 -65 -151 -158 -151h-31c-99 0 -161 50 -161 154v246c0 93 51 160 161 160zM168 410v-61h45v61c0 23 -4 33 -23 33s-22 -10 -22 -33
z" />
    <glyph glyph-name="emacron" unicode="&#x113;" horiz-adv-x="375" 
d="M174 549h31c96 0 158 -48 158 -160v-138h-195v-113c0 -20 7 -30 22 -30c16 0 21 11 21 30v76h152v-74c0 -97 -65 -151 -158 -151h-31c-99 0 -161 50 -161 154v246c0 93 51 160 161 160zM168 410v-61h45v61c0 23 -4 33 -23 33s-22 -10 -22 -33zM78 574v100h220v-100h-220z
" />
    <glyph glyph-name="eogonek" unicode="&#x119;" horiz-adv-x="375" 
d="M301 -1c-29 -35 -41 -52 -41 -75v-3c0 -14 9 -21 26 -21h16v-88h-70c-48 0 -84 24 -84 65v13c0 35 26 65 73 100c-7 -1 -11 -1 -16 -1h-31c-99 0 -161 50 -161 154v246c0 93 51 160 161 160h31c96 0 158 -48 158 -160v-138h-195v-113c0 -20 7 -30 22 -30
c16 0 21 11 21 30v76h152v-72c0 -72 -31 -106 -62 -143zM168 410v-61h45v61c0 23 -4 33 -23 33s-22 -10 -22 -33z" />
    <glyph glyph-name="gbreve" unicode="&#x11f;" horiz-adv-x="396" 
d="M221 -55v114c-19 -29 -53 -69 -101 -69c-60 0 -105 45 -105 120v304c0 70 32 128 97 128h3c51 0 83 -36 108 -69v65h158v-595c0 -76 -48 -138 -167 -138h-31c-121 0 -161 49 -161 111v63h155v-36c0 -15 4 -22 20 -22h3c16 0 21 8 21 24zM221 136v255c0 15 -3 30 -22 30
s-22 -13 -22 -29v-256c0 -16 3 -30 22 -30c15 0 22 14 22 30zM198 559h-4c-76 0 -122 43 -122 119v12h99v-7c0 -23 8 -35 24 -35h1c17 0 25 12 25 35v7h97v-12c0 -76 -49 -119 -120 -119z" />
    <glyph glyph-name="gcircumflex" unicode="&#x11d;" horiz-adv-x="396" 
d="M260 707l68 -146h-109l-24 65l-25 -65h-107l67 146h130zM221 -55v114c-19 -29 -53 -69 -101 -69c-60 0 -105 45 -105 120v304c0 70 32 128 97 128h3c51 0 83 -36 108 -69v65h158v-595c0 -76 -48 -138 -167 -138h-31c-121 0 -161 49 -161 111v63h155v-36
c0 -15 4 -22 20 -22h3c16 0 21 8 21 24zM221 136v255c0 15 -3 30 -22 30s-22 -13 -22 -29v-256c0 -16 3 -30 22 -30c15 0 22 14 22 30z" />
    <glyph glyph-name="uni0123" unicode="&#x123;" horiz-adv-x="396" 
d="M151 749h67c-8 -21 -14 -46 -15 -71h52v-117h-127v76c0 53 16 95 23 112zM221 -55v114c-19 -29 -53 -69 -101 -69c-60 0 -105 45 -105 120v304c0 70 32 128 97 128h3c51 0 83 -36 108 -69v65h158v-595c0 -76 -48 -138 -167 -138h-31c-121 0 -161 49 -161 111v63h155v-36
c0 -15 4 -22 20 -22h3c16 0 21 8 21 24zM221 136v255c0 15 -3 30 -22 30s-22 -13 -22 -29v-256c0 -16 3 -30 22 -30c15 0 22 14 22 30z" />
    <glyph glyph-name="gdotaccent" unicode="&#x121;" horiz-adv-x="396" 
d="M221 -55v114c-19 -29 -53 -69 -101 -69c-60 0 -105 45 -105 120v304c0 70 32 128 97 128h3c51 0 83 -36 108 -69v65h158v-595c0 -76 -48 -138 -167 -138h-31c-121 0 -161 49 -161 111v63h155v-36c0 -15 4 -22 20 -22h3c16 0 21 8 21 24zM221 136v255c0 15 -3 30 -22 30
s-22 -13 -22 -29v-256c0 -16 3 -30 22 -30c15 0 22 14 22 30zM276 702v-141h-160v141h160z" />
    <glyph glyph-name="hbar" unicode="&#x127;" horiz-adv-x="399" 
d="M-14 575v112h268v-112h-268zM16 0v744h160v-272c23 35 58 71 110 71h6c64 0 91 -53 91 -97v-446h-162v387c0 15 -4 28 -23 28s-22 -12 -22 -31v-384h-160z" />
    <glyph glyph-name="hcircumflex" unicode="&#x125;" horiz-adv-x="399" 
d="M16 0v744h160v-272c23 35 58 71 110 71h6c64 0 91 -53 91 -97v-446h-162v387c0 15 -4 28 -23 28s-22 -12 -22 -31v-384h-160zM253 890l71 -123h-108l-27 47l-26 -47h-108l70 123h128z" />
    <glyph glyph-name="ibreve" unicode="&#x12d;" horiz-adv-x="191" 
d="M98 559h-4c-79 0 -108 46 -108 106v25h92v-16c0 -17 3 -27 18 -27c13 0 19 9 19 27v16h90v-25c0 -60 -31 -106 -107 -106zM176 538v-538h-160v538h160z" />
    <glyph glyph-name="idotaccent" horiz-adv-x="191" 
d="M176 538v-538h-160v538h160zM176 702v-141h-160v141h160z" />
    <glyph glyph-name="imacron" unicode="&#x12b;" horiz-adv-x="191" 
d="M-3 570v99h197v-99h-197zM176 538v-538h-160v538h160z" />
    <glyph glyph-name="iogonek" unicode="&#x12f;" horiz-adv-x="191" 
d="M176 538v-538h-160v538h160zM176 702v-141h-160v141h160zM23 -123v13c0 37 30 71 82 110h71c-32 -39 -42 -55 -42 -76v-3c0 -14 9 -21 27 -21h15v-88h-69c-49 0 -84 24 -84 65z" />
    <glyph glyph-name="itilde" unicode="&#x129;" horiz-adv-x="191" 
d="M129 692h79v-71c0 -35 -18 -59 -53 -59h-2c-19 0 -35 5 -60 20c-13 8 -17 11 -24 11c-4 0 -6 -4 -6 -11v-22h-78v66c0 40 18 64 53 64h2c19 0 34 -6 59 -19c13 -7 19 -11 24 -11c4 0 6 3 6 10v22zM176 538v-538h-160v538h160z" />
    <glyph glyph-name="jcircumflex" unicode="&#x135;" horiz-adv-x="192" 
d="M159 707l52 -146h-98l-20 69l-19 -69h-97l52 146h130zM-46 -47h45c12 0 17 4 17 19v566h160v-645c0 -51 -34 -81 -79 -81h-143v141z" />
    <glyph glyph-name="uni0137" unicode="&#x137;" horiz-adv-x="391" 
d="M247 -211h-66c8 21 13 44 15 71h-53v117h126v-77c0 -53 -15 -94 -22 -111zM176 362l60 176h151l-84 -225l92 -313h-156l-63 222v-222h-160v744h160v-382z" />
    <glyph glyph-name="lacute" unicode="&#x13a;" horiz-adv-x="191" 
d="M33 767l46 123h130l-50 -123h-126zM176 744v-744h-160v744h160z" />
    <glyph glyph-name="lcaron" unicode="&#x13e;" horiz-adv-x="191" 
d="M190 586l6 158h104l-11 -158h-99zM176 744v-744h-160v744h160z" />
    <glyph glyph-name="uni013C" unicode="&#x13c;" horiz-adv-x="191" 
d="M139 -211h-66c8 21 13 44 15 71h-53v117h126v-77c0 -53 -15 -94 -22 -111zM176 744v-744h-160v744h160z" />
    <glyph glyph-name="ldot" unicode="&#x140;" 
d="M336 467v-161h-142v161h142zM176 744v-744h-160v744h160z" />
    <glyph glyph-name="nacute" unicode="&#x144;" horiz-adv-x="399" 
d="M137 561l46 146h128l-50 -146h-124zM16 0v538h158v-68c27 39 61 73 112 73h7c71 0 90 -64 90 -100v-443h-162v386c0 16 -4 29 -23 29s-22 -13 -22 -32v-383h-160z" />
    <glyph glyph-name="napostrophe" unicode="&#x149;" horiz-adv-x="516" 
d="M105 509h-76c9 27 22 66 23 95h-49v140h131v-108c0 -55 -18 -104 -29 -127zM133 0v538h158v-68c27 39 61 73 112 73h7c71 0 90 -64 90 -100v-443h-162v386c0 16 -4 29 -23 29s-22 -13 -22 -32v-383h-160z" />
    <glyph glyph-name="ncaron" unicode="&#x148;" horiz-adv-x="399" 
d="M134 561l-68 146h108l24 -64l25 64h108l-68 -146h-129zM16 0v538h158v-68c27 39 61 73 112 73h7c71 0 90 -64 90 -100v-443h-162v386c0 16 -4 29 -23 29s-22 -13 -22 -32v-383h-160z" />
    <glyph glyph-name="uni0146" unicode="&#x146;" horiz-adv-x="399" 
d="M241 -211h-66c8 21 13 44 15 71h-53v117h126v-77c0 -53 -15 -94 -22 -111zM16 0v538h158v-68c27 39 61 73 112 73h7c71 0 90 -64 90 -100v-443h-162v386c0 16 -4 29 -23 29s-22 -13 -22 -32v-383h-160z" />
    <glyph glyph-name="obreve" unicode="&#x14f;" horiz-adv-x="396" 
d="M13 167v205c0 117 61 177 169 177h31c111 0 170 -60 170 -176v-205c0 -113 -65 -179 -170 -179h-32c-116 0 -168 65 -168 178zM174 390v-238c0 -20 4 -34 23 -34s24 14 24 34v238c0 20 -5 34 -24 34s-23 -14 -23 -34zM200 563h-4c-76 0 -122 43 -122 119v12h99v-7
c0 -23 8 -35 24 -35h1c17 0 25 12 25 35v7h97v-12c0 -76 -49 -119 -120 -119z" />
    <glyph glyph-name="ohungarumlaut" unicode="&#x151;" horiz-adv-x="396" 
d="M89 566l28 141h106l-29 -141h-105zM216 566l29 141h106l-31 -141h-104zM13 167v205c0 117 61 177 169 177h31c111 0 170 -60 170 -176v-205c0 -113 -65 -179 -170 -179h-32c-116 0 -168 65 -168 178zM174 390v-238c0 -20 4 -34 23 -34s24 14 24 34v238c0 20 -5 34 -24 34
s-23 -14 -23 -34z" />
    <glyph glyph-name="omacron" unicode="&#x14d;" horiz-adv-x="396" 
d="M88 574v100h220v-100h-220zM13 167v205c0 117 61 177 169 177h31c111 0 170 -60 170 -176v-205c0 -113 -65 -179 -170 -179h-32c-116 0 -168 65 -168 178zM174 390v-238c0 -20 4 -34 23 -34s24 14 24 34v238c0 20 -5 34 -24 34s-23 -14 -23 -34z" />
    <glyph glyph-name="oslashacute" unicode="&#x1ff;" horiz-adv-x="388" 
d="M130 566l46 141h128l-49 -141h-125zM13 166v206c0 121 63 177 172 177h18c43 0 75 -10 100 -29l11 18h77l-40 -67c15 -25 23 -59 23 -98v-206c0 -115 -64 -178 -173 -178h-16c-44 0 -78 12 -102 29l-11 -18h-76l39 66c-15 27 -22 60 -22 100zM219 377v13
c0 19 -3 36 -26 36c-20 0 -24 -17 -24 -36v-112zM193 117c21 0 26 15 26 35v111l-50 -98v-13c0 -21 5 -35 24 -35z" />
    <glyph glyph-name="racute" unicode="&#x155;" horiz-adv-x="359" 
d="M130 561l46 146h128l-50 -146h-124zM174 538v-69c13 24 42 72 96 72h9c48 0 70 -30 70 -73v-194h-144v122c0 15 -3 22 -15 22c-9 0 -14 -7 -14 -22v-396h-160v538h158z" />
    <glyph glyph-name="rcaron" unicode="&#x159;" horiz-adv-x="359" 
d="M127 561l-68 146h108l24 -64l25 64h108l-68 -146h-129zM174 538v-69c13 24 42 72 96 72h9c48 0 70 -30 70 -73v-194h-144v122c0 15 -3 22 -15 22c-9 0 -14 -7 -14 -22v-396h-160v538h158z" />
    <glyph glyph-name="uni0157" unicode="&#x157;" horiz-adv-x="359" 
d="M137 -211h-66c8 21 13 44 15 71h-53v117h126v-77c0 -53 -15 -94 -22 -111zM174 538v-69c13 24 42 72 96 72h9c48 0 70 -30 70 -73v-194h-144v122c0 15 -3 22 -15 22c-9 0 -14 -7 -14 -22v-396h-160v538h158z" />
    <glyph glyph-name="sacute" unicode="&#x15b;" horiz-adv-x="350" 
d="M115 566l46 141h127l-49 -141h-124zM336 438v-62h-140v49c0 15 -3 24 -18 24s-19 -9 -19 -24v-14c0 -20 3 -27 22 -42l80 -60c67 -48 83 -94 83 -154v-18c0 -91 -54 -148 -154 -148h-36c-97 0 -147 46 -147 127v75h143v-63c0 -17 7 -26 21 -26h1c12 0 18 9 18 26v16
c0 24 -6 39 -26 54l-76 55c-63 44 -75 91 -75 146v18c0 84 48 132 147 132h35c94 0 141 -37 141 -111z" />
    <glyph glyph-name="uni015F" unicode="&#x15f;" horiz-adv-x="350" 
d="M336 438v-62h-140v49c0 15 -3 24 -18 24s-19 -9 -19 -24v-14c0 -20 3 -27 22 -42l80 -60c67 -48 83 -94 83 -154v-18c0 -91 -54 -148 -154 -148h-36c-97 0 -147 46 -147 127v75h143v-63c0 -17 7 -26 21 -26h1c12 0 18 9 18 26v16c0 24 -6 39 -26 54l-76 55
c-63 44 -75 91 -75 146v18c0 84 48 132 147 132h35c94 0 141 -37 141 -111zM171 -196h-75v71h58c14 0 21 5 21 15v1c0 9 -7 14 -21 14h-43v95h68v-35h5c59 -1 89 -26 89 -75v-3c0 -55 -39 -83 -102 -83z" />
    <glyph glyph-name="scircumflex" unicode="&#x15d;" horiz-adv-x="350" 
d="M243 707l68 -141h-108l-25 60l-24 -60h-107l67 141h129zM336 438v-62h-140v49c0 15 -3 24 -18 24s-19 -9 -19 -24v-14c0 -20 3 -27 22 -42l80 -60c67 -48 83 -94 83 -154v-18c0 -91 -54 -148 -154 -148h-36c-97 0 -147 46 -147 127v75h143v-63c0 -17 7 -26 21 -26h1
c12 0 18 9 18 26v16c0 24 -6 39 -26 54l-76 55c-63 44 -75 91 -75 146v18c0 84 48 132 147 132h35c94 0 141 -37 141 -111z" />
    <glyph glyph-name="uni0219" unicode="&#x219;" horiz-adv-x="350" 
d="M215 -214h-66c8 21 13 44 15 71h-53v117h126v-77c0 -53 -15 -94 -22 -111zM336 438v-62h-140v49c0 15 -3 24 -18 24s-19 -9 -19 -24v-14c0 -20 3 -27 22 -42l80 -60c67 -48 83 -94 83 -154v-18c0 -91 -54 -148 -154 -148h-36c-97 0 -147 46 -147 127v75h143v-63
c0 -17 7 -26 21 -26h1c12 0 18 9 18 26v16c0 24 -6 39 -26 54l-76 55c-63 44 -75 91 -75 146v18c0 84 48 132 147 132h35c94 0 141 -37 141 -111z" />
    <glyph glyph-name="tbar" unicode="&#x167;" horiz-adv-x="296" 
d="M286 0h-154c-35 0 -65 24 -65 71v159h-61v115h61v58h-61v135h61v178h160v-178h59v-135h-59v-58h59v-115h-59v-72c0 -15 2 -20 18 -20h41v-138z" />
    <glyph glyph-name="tcaron" unicode="&#x165;" horiz-adv-x="296" 
d="M241 586l6 158h104l-11 -158h-99zM286 0h-155c-33 0 -64 24 -64 71v332h-61v135h61v178h160v-178h59v-135h-59v-245c0 -15 2 -20 18 -20h41v-138z" />
    <glyph glyph-name="tcommaaccent" unicode="&#x163;" horiz-adv-x="296" 
d="M228 -211h-66c8 21 13 44 15 71h-53v117h126v-77c0 -53 -15 -94 -22 -111zM286 0h-155c-33 0 -64 24 -64 71v332h-61v135h61v178h160v-178h59v-135h-59v-245c0 -15 2 -20 18 -20h41v-138z" />
    <glyph glyph-name="uni021B" unicode="&#x21b;" horiz-adv-x="296" 
d="M228 -211h-66c8 21 13 44 15 71h-53v117h126v-77c0 -53 -15 -94 -22 -111zM286 0h-155c-33 0 -64 24 -64 71v332h-61v135h61v178h160v-178h59v-135h-59v-245c0 -15 2 -20 18 -20h41v-138z" />
    <glyph glyph-name="ubreve" unicode="&#x16d;" horiz-adv-x="395" 
d="M379 538v-538h-157v69c-27 -39 -59 -73 -112 -73h-5c-64 0 -89 59 -89 101v441h161v-386c0 -15 5 -29 21 -29c19 0 22 14 22 31v384h159zM200 559h-4c-76 0 -122 43 -122 119v12h99v-7c0 -23 8 -35 24 -35h1c17 0 25 12 25 35v7h97v-12c0 -76 -49 -119 -120 -119z" />
    <glyph glyph-name="uhungarumlaut" unicode="&#x171;" horiz-adv-x="395" 
d="M379 538v-538h-157v69c-27 -39 -59 -73 -112 -73h-5c-64 0 -89 59 -89 101v441h161v-386c0 -15 5 -29 21 -29c19 0 22 14 22 31v384h159zM84 561l29 146h106l-30 -146h-105zM211 561l29 146h107l-32 -146h-104z" />
    <glyph glyph-name="umacron" unicode="&#x16b;" horiz-adv-x="395" 
d="M379 538v-538h-157v69c-27 -39 -59 -73 -112 -73h-5c-64 0 -89 59 -89 101v441h161v-386c0 -15 5 -29 21 -29c19 0 22 14 22 31v384h159zM88 570v100h220v-100h-220z" />
    <glyph glyph-name="uogonek" unicode="&#x173;" horiz-adv-x="395" 
d="M226 -123v13c0 37 30 71 82 110h71c-32 -39 -42 -55 -42 -76v-3c0 -14 9 -21 27 -21h15v-88h-69c-49 0 -84 24 -84 65zM379 538v-538h-157v69c-27 -39 -59 -73 -112 -73h-5c-64 0 -89 59 -89 101v441h161v-386c0 -15 5 -29 21 -29c19 0 22 14 22 31v384h159z" />
    <glyph glyph-name="uring" unicode="&#x16f;" horiz-adv-x="395" 
d="M197 607c20 0 34 15 34 35c0 19 -14 34 -34 34s-34 -15 -34 -34c0 -20 14 -35 34 -35zM197 559c-49 0 -86 35 -86 83c0 49 37 83 86 83s86 -34 86 -83c0 -48 -37 -83 -86 -83zM379 538v-538h-157v69c-27 -39 -59 -73 -112 -73h-5c-64 0 -89 59 -89 101v441h161v-386
c0 -15 5 -29 21 -29c19 0 22 14 22 31v384h159z" />
    <glyph glyph-name="utilde" unicode="&#x169;" horiz-adv-x="395" 
d="M379 538v-538h-157v69c-27 -39 -59 -73 -112 -73h-5c-64 0 -89 59 -89 101v441h161v-386c0 -15 5 -29 21 -29c19 0 22 14 22 31v384h159zM236 692h86v-66c0 -37 -21 -65 -61 -65h-2c-20 0 -35 5 -63 20c-15 7 -20 11 -27 11c-5 0 -7 -4 -7 -12v-20h-86v62
c0 40 21 69 62 69h1c21 0 35 -4 63 -19c15 -7 21 -11 28 -11c4 0 6 4 6 11v20z" />
    <glyph glyph-name="wacute" unicode="&#x1e83;" horiz-adv-x="567" 
d="M225 561l46 146h128l-50 -146h-124zM256 0h-173l-85 538h158l28 -323l32 323h141l31 -328l29 328h152l-85 -538h-170l-29 271z" />
    <glyph glyph-name="wcircumflex" unicode="&#x175;" horiz-adv-x="567" 
d="M349 707l68 -146h-109l-24 65l-25 -65h-107l67 146h130zM256 0h-173l-85 538h158l28 -323l32 323h141l31 -328l29 328h152l-85 -538h-170l-29 271z" />
    <glyph glyph-name="wdieresis" unicode="&#x1e85;" horiz-adv-x="567" 
d="M272 680v-119h-118v119h118zM414 680v-119h-118v119h118zM256 0h-173l-85 538h158l28 -323l32 323h141l31 -328l29 328h152l-85 -538h-170l-29 271z" />
    <glyph glyph-name="wgrave" unicode="&#x1e81;" horiz-adv-x="567" 
d="M256 0h-173l-85 538h158l28 -323l32 323h141l31 -328l29 328h152l-85 -538h-170l-29 271zM301 707l45 -146h-123l-50 146h128z" />
    <glyph glyph-name="ycircumflex" unicode="&#x177;" horiz-adv-x="369" 
d="M100 22l-102 516h158l33 -286l28 286h155l-123 -644c-12 -63 -46 -82 -81 -82h-141v136h57c15 0 18 6 19 22l1 13c1 11 0 19 -4 39zM249 707l68 -146h-109l-24 65l-25 -65h-107l67 146h130z" />
    <glyph glyph-name="ygrave" unicode="&#x1ef3;" horiz-adv-x="369" 
d="M100 22l-102 516h158l33 -286l28 286h155l-123 -644c-12 -63 -46 -82 -81 -82h-141v136h57c15 0 18 6 19 22l1 13c1 11 0 19 -4 39zM206 707l45 -146h-123l-50 146h128z" />
    <glyph glyph-name="zacute" unicode="&#x17a;" horiz-adv-x="310" 
d="M92 561l46 146h128l-50 -146h-124zM15 538h282v-121l-121 -282h126v-135h-295v121l124 288h-116v129z" />
    <glyph glyph-name="zdotaccent" unicode="&#x17c;" horiz-adv-x="310" 
d="M15 538h282v-121l-121 -282h126v-135h-295v121l124 288h-116v129zM238 702v-141h-160v141h160z" />
    <glyph glyph-name="space_uni0326" 
d="M212 -211h-66c8 21 13 44 15 71h-53v117h126v-77c0 -53 -15 -94 -22 -111z" />
    <glyph glyph-name="oneeighth" unicode="&#x215b;" horiz-adv-x="466" 
d="M49 627h-43v77c40 0 52 17 55 40h89v-341h-101v224zM304 744h95l-296 -744h-94zM454 264v-21c0 -39 -20 -53 -35 -61c19 -8 39 -29 39 -65v-33c0 -56 -35 -90 -107 -90h-12c-76 0 -106 34 -106 90v33c0 32 17 54 36 65c-15 11 -32 26 -32 61v21c0 53 30 84 102 84h12
c69 0 103 -31 103 -84zM357 86v43c0 11 -2 17 -13 17c-7 0 -11 -6 -11 -17v-43c0 -11 4 -16 11 -16c11 0 13 8 13 16zM356 229v32c0 11 -1 16 -12 16c-7 0 -10 -5 -10 -16v-32c0 -11 4 -17 11 -17s11 6 11 17z" />
    <glyph glyph-name="onethird" unicode="&#x2153;" horiz-adv-x="468" 
d="M49 627h-43v77c40 0 52 17 55 40h89v-341h-101v224zM304 744h95l-296 -744h-94zM330 229h-93v35c0 49 26 84 98 84h13c67 0 103 -23 103 -82v-18c0 -33 -19 -51 -34 -56c19 -7 42 -23 42 -62v-41c0 -60 -32 -96 -108 -96h-15c-81 0 -101 40 -101 85v47h97v-42
c0 -9 4 -13 11 -13s10 4 10 13v44c0 9 -4 13 -11 13h-45v76h42c9 0 13 4 13 13v35c0 9 -4 14 -12 14c-7 0 -10 -5 -10 -14v-35z" />
    <glyph glyph-name="threeeighths" unicode="&#x215c;" horiz-adv-x="526" 
d="M364 744h95l-296 -744h-94zM103 631h-93v35c0 49 26 84 98 84h13c67 0 103 -23 103 -82v-18c0 -33 -19 -51 -34 -56c19 -7 42 -23 42 -62v-41c0 -60 -32 -96 -108 -96h-15c-81 0 -101 40 -101 85v47h97v-42c0 -9 4 -13 11 -13s10 4 10 13v44c0 9 -4 13 -11 13h-45v76h42
c9 0 13 4 13 13v35c0 9 -4 14 -12 14c-7 0 -10 -5 -10 -14v-35zM513 264v-21c0 -39 -20 -53 -35 -61c19 -8 39 -29 39 -65v-33c0 -56 -35 -90 -107 -90h-12c-76 0 -106 34 -106 90v33c0 32 17 54 36 65c-15 11 -32 26 -32 61v21c0 53 30 84 102 84h12c69 0 103 -31 103 -84z
M416 86v43c0 11 -2 17 -13 17c-7 0 -11 -6 -11 -17v-43c0 -11 4 -16 11 -16c11 0 13 8 13 16zM415 229v32c0 11 -1 16 -12 16c-7 0 -10 -5 -10 -16v-32c0 -11 4 -17 11 -17s11 6 11 17z" />
    <glyph glyph-name="fiveeighths" unicode="&#x215d;" horiz-adv-x="525" 
d="M364 744h95l-296 -744h-94zM107 545h-93v199h207v-78h-116v-55c13 16 30 36 61 36h4c45 0 63 -31 63 -74v-79c0 -60 -32 -98 -107 -98h-15c-79 0 -103 37 -103 86v39h99v-39c0 -9 4 -13 11 -13s10 4 10 13v77c0 10 -3 15 -10 15s-11 -5 -11 -15v-14zM513 264v-21
c0 -39 -20 -53 -35 -61c19 -8 39 -29 39 -65v-33c0 -56 -35 -90 -107 -90h-12c-76 0 -106 34 -106 90v33c0 32 17 54 36 65c-15 11 -32 26 -32 61v21c0 53 30 84 102 84h12c69 0 103 -31 103 -84zM416 86v43c0 11 -2 17 -13 17c-7 0 -11 -6 -11 -17v-43c0 -11 4 -16 11 -16
c11 0 13 8 13 16zM415 229v32c0 11 -1 16 -12 16c-7 0 -10 -5 -10 -16v-32c0 -11 4 -17 11 -17s11 6 11 17z" />
    <glyph glyph-name="twothirds" unicode="&#x2154;" horiz-adv-x="553" 
d="M239 402h-232v44c0 45 12 65 84 140c35 35 38 44 38 62v15c0 10 -4 15 -12 15c-7 0 -11 -5 -11 -15v-45h-94v44c0 45 22 88 97 88h17c81 0 106 -38 106 -86v-14c0 -47 -21 -73 -74 -113c-57 -46 -57 -45 -57 -59h52v46h86v-122zM389 744h95l-296 -744h-94zM416 229h-93
v35c0 49 26 84 98 84h13c67 0 103 -23 103 -82v-18c0 -33 -19 -51 -34 -56c19 -7 42 -23 42 -62v-41c0 -60 -32 -96 -108 -96h-15c-81 0 -101 40 -101 85v47h97v-42c0 -9 4 -13 11 -13s10 4 10 13v44c0 9 -4 13 -11 13h-45v76h42c9 0 13 4 13 13v35c0 9 -4 14 -12 14
c-7 0 -10 -5 -10 -14v-35z" />
    <glyph glyph-name="seveneighths" unicode="&#x215e;" horiz-adv-x="490" 
d="M9 744h206v-44c0 -23 -10 -60 -29 -143c-11 -53 -12 -90 -12 -139v-16h-118v15c0 44 4 72 31 136c37 88 44 105 44 123h-35v-57h-87v125zM327 744h95l-296 -744h-94zM477 264v-21c0 -39 -20 -53 -35 -61c19 -8 39 -29 39 -65v-33c0 -56 -35 -90 -107 -90h-12
c-76 0 -106 34 -106 90v33c0 32 17 54 36 65c-15 11 -32 26 -32 61v21c0 53 30 84 102 84h12c69 0 103 -31 103 -84zM380 86v43c0 11 -2 17 -13 17c-7 0 -11 -6 -11 -17v-43c0 -11 4 -16 11 -16c11 0 13 8 13 16zM379 229v32c0 11 -1 16 -12 16c-7 0 -10 -5 -10 -16v-32
c0 -11 4 -17 11 -17s11 6 11 17z" />
    <glyph glyph-name="uni2032" unicode="&#x2032;" horiz-adv-x="135" 
d="M133 744l-23 -209h-108l22 209h109z" />
    <glyph glyph-name="uni2033" unicode="&#x2033;" horiz-adv-x="256" 
d="M130 744l-22 -209h-106l22 209h106zM254 744l-22 -209h-107l23 209h106z" />
    <glyph glyph-name="uni24C5" unicode="&#x24c5;" horiz-adv-x="559" 
d="M287 -11h-12c-160 0 -259 79 -259 267v234c0 175 100 265 260 265h14c156 0 253 -84 253 -265v-234c0 -188 -114 -267 -256 -267zM277 60h10c123 0 173 77 173 214v198c0 133 -47 212 -171 212h-12c-127 0 -177 -68 -177 -212v-198c0 -141 52 -214 177 -214zM329 306h-53
v-185h-122v504h175c61 0 97 -26 97 -105v-107c0 -75 -37 -107 -97 -107zM276 534v-135h14c11 0 16 9 16 26v85c0 17 -3 24 -16 24h-14z" />
    <glyph glyph-name="zero.num" unicode="&#xe416;" horiz-adv-x="264" 
d="M125 750h15c83 0 113 -51 113 -112v-133c0 -58 -37 -109 -113 -109h-16c-81 0 -112 51 -112 109v133c0 60 30 112 113 112zM132 663c-11 0 -13 -8 -13 -19v-141c0 -9 2 -17 13 -17c9 0 13 6 13 17v141c0 12 -2 19 -13 19z" />
    <glyph glyph-name="one.num" unicode="&#xe417;" horiz-adv-x="166" 
d="M49 627h-43v77c40 0 52 17 55 40h89v-341h-101v224z" />
    <glyph glyph-name="two.num" unicode="&#xe418;" horiz-adv-x="247" 
d="M239 402h-232v44c0 45 12 65 84 140c35 35 38 44 38 62v15c0 10 -4 15 -12 15c-7 0 -11 -5 -11 -15v-45h-94v44c0 45 22 88 97 88h17c81 0 106 -38 106 -86v-14c0 -47 -21 -73 -74 -113c-57 -46 -57 -45 -57 -59h52v46h86v-122z" />
    <glyph glyph-name="three.num" unicode="&#xe419;" horiz-adv-x="240" 
d="M103 631h-93v35c0 49 26 84 98 84h13c67 0 103 -23 103 -82v-18c0 -33 -19 -51 -34 -56c19 -7 42 -23 42 -62v-41c0 -60 -32 -96 -108 -96h-15c-81 0 -101 40 -101 85v47h97v-42c0 -9 4 -13 11 -13s10 4 10 13v44c0 9 -4 13 -11 13h-45v76h42c9 0 13 4 13 13v35
c0 9 -4 14 -12 14c-7 0 -10 -5 -10 -14v-35z" />
    <glyph glyph-name="four.num" unicode="&#xe41a;" horiz-adv-x="231" 
d="M6 455v70c21 50 63 159 84 220h105v-206h29v-84h-29v-53h-97v53h-92zM71 539h27v77c-5 -19 -21 -60 -27 -77z" />
    <glyph glyph-name="five.num" unicode="&#xe41b;" horiz-adv-x="242" 
d="M107 545h-93v199h207v-78h-116v-55c13 16 30 36 61 36h4c45 0 63 -31 63 -74v-79c0 -60 -32 -98 -107 -98h-15c-79 0 -103 37 -103 86v39h99v-39c0 -9 4 -13 11 -13s10 4 10 13v77c0 10 -3 15 -10 15s-11 -5 -11 -15v-14z" />
    <glyph glyph-name="six.num" unicode="&#xe41c;" horiz-adv-x="257" 
d="M182 623h2c47 0 64 -34 64 -70v-56c0 -63 -39 -101 -114 -101h-9c-77 0 -113 39 -113 102v152c0 51 26 100 111 100h8c85 0 109 -41 109 -93v-21h-102v24c0 9 -4 14 -11 14s-10 -5 -10 -14v-69c12 15 33 32 65 32zM129 472c11 0 13 9 13 18v47c0 13 -4 19 -13 19
c-11 0 -12 -8 -12 -19v-47c0 -9 1 -18 12 -18z" />
    <glyph glyph-name="seven.num" unicode="&#xe41d;" horiz-adv-x="222" 
d="M9 744h206v-44c0 -23 -10 -60 -29 -143c-11 -53 -12 -90 -12 -139v-16h-118v15c0 44 4 72 31 136c37 88 44 105 44 123h-35v-57h-87v125z" />
    <glyph glyph-name="eight.num" unicode="&#xe41e;" horiz-adv-x="242" 
d="M230 666v-21c0 -39 -20 -53 -35 -61c19 -8 39 -29 39 -65v-33c0 -56 -35 -90 -107 -90h-12c-76 0 -106 34 -106 90v33c0 32 17 54 36 65c-15 11 -32 26 -32 61v21c0 53 30 84 102 84h12c69 0 103 -31 103 -84zM133 488v43c0 11 -2 17 -13 17c-7 0 -11 -6 -11 -17v-43
c0 -11 4 -16 11 -16c11 0 13 8 13 16zM132 631v32c0 11 -1 16 -12 16c-7 0 -10 -5 -10 -16v-32c0 -11 4 -17 11 -17s11 6 11 17z" />
    <glyph glyph-name="nine.num" unicode="&#xe41f;" horiz-adv-x="257" 
d="M9 596v54c0 60 34 100 113 100h10c80 0 114 -38 114 -101v-152c0 -52 -26 -101 -113 -101h-8c-85 0 -108 40 -108 91v23h102v-24c0 -9 4 -14 11 -14s11 5 11 14v69c-13 -15 -32 -31 -63 -31h-2c-45 0 -67 35 -67 72zM128 674c-11 0 -13 -7 -13 -18v-48
c0 -12 4 -18 13 -18c11 0 13 7 13 18v48c0 9 -2 18 -13 18z" />
    <glyph glyph-name="zero.den" unicode="&#xe402;" horiz-adv-x="264" 
d="M125 349h15c83 0 113 -51 113 -112v-133c0 -58 -37 -109 -113 -109h-16c-81 0 -112 51 -112 109v133c0 60 30 112 113 112zM132 262c-11 0 -13 -8 -13 -19v-141c0 -9 2 -17 13 -17c9 0 13 6 13 17v141c0 12 -2 19 -13 19z" />
    <glyph glyph-name="one.den" unicode="&#xe403;" horiz-adv-x="166" 
d="M49 225h-43v77c40 0 52 17 55 40h89v-341h-101v224z" />
    <glyph glyph-name="two.den" unicode="&#xe404;" horiz-adv-x="247" 
d="M239 0h-232v44c0 45 12 65 84 140c35 35 38 44 38 62v15c0 10 -4 15 -12 15c-7 0 -11 -5 -11 -15v-45h-94v44c0 45 22 88 97 88h17c81 0 106 -38 106 -86v-14c0 -47 -21 -73 -74 -113c-57 -46 -57 -45 -57 -59h52v46h86v-122z" />
    <glyph glyph-name="three.den" unicode="&#xe405;" horiz-adv-x="240" 
d="M103 230h-93v35c0 49 26 84 98 84h13c67 0 103 -23 103 -82v-18c0 -33 -19 -51 -34 -56c19 -7 42 -23 42 -62v-41c0 -60 -32 -96 -108 -96h-15c-81 0 -101 40 -101 85v47h97v-42c0 -9 4 -13 11 -13s10 4 10 13v44c0 9 -4 13 -11 13h-45v76h42c9 0 13 4 13 13v35
c0 9 -4 14 -12 14c-7 0 -10 -5 -10 -14v-35z" />
    <glyph glyph-name="four.den" unicode="&#xe406;" horiz-adv-x="230" 
d="M6 53v70c21 50 63 159 84 220h105v-206h29v-84h-29v-53h-97v53h-92zM71 137h27v77c-5 -19 -21 -60 -27 -77z" />
    <glyph glyph-name="five.den" unicode="&#xe407;" horiz-adv-x="242" 
d="M107 144h-93v199h207v-78h-116v-55c13 16 30 36 61 36h4c45 0 63 -31 63 -74v-79c0 -60 -32 -98 -107 -98h-15c-79 0 -103 37 -103 86v39h99v-39c0 -9 4 -13 11 -13s10 4 10 13v77c0 10 -3 15 -10 15s-11 -5 -11 -15v-14z" />
    <glyph glyph-name="six.den" unicode="&#xe408;" horiz-adv-x="257" 
d="M182 222h2c47 0 64 -34 64 -70v-56c0 -63 -39 -101 -114 -101h-9c-77 0 -113 39 -113 102v152c0 51 26 100 111 100h8c85 0 109 -41 109 -93v-21h-102v24c0 9 -4 14 -11 14s-10 -5 -10 -14v-69c12 15 33 32 65 32zM129 71c11 0 13 9 13 18v47c0 13 -4 19 -13 19
c-11 0 -12 -8 -12 -19v-47c0 -9 1 -18 12 -18z" />
    <glyph glyph-name="seven.den" unicode="&#xe409;" horiz-adv-x="222" 
d="M9 342h206v-44c0 -23 -10 -60 -29 -143c-11 -53 -12 -90 -12 -139v-16h-118v15c0 44 4 72 31 136c37 88 44 105 44 123h-35v-57h-87v125z" />
    <glyph glyph-name="eight.den" unicode="&#xe40a;" horiz-adv-x="242" 
d="M230 264v-21c0 -39 -20 -53 -35 -61c19 -8 39 -29 39 -65v-33c0 -56 -35 -90 -107 -90h-12c-76 0 -106 34 -106 90v33c0 32 17 54 36 65c-15 11 -32 26 -32 61v21c0 53 30 84 102 84h12c69 0 103 -31 103 -84zM133 86v43c0 11 -2 17 -13 17c-7 0 -11 -6 -11 -17v-43
c0 -11 4 -16 11 -16c11 0 13 8 13 16zM132 229v32c0 11 -1 16 -12 16c-7 0 -10 -5 -10 -16v-32c0 -11 4 -17 11 -17s11 6 11 17z" />
    <glyph glyph-name="nine.den" unicode="&#xe40b;" horiz-adv-x="257" 
d="M9 195v54c0 60 34 100 113 100h10c80 0 114 -38 114 -101v-152c0 -52 -26 -101 -113 -101h-8c-85 0 -108 40 -108 91v23h102v-24c0 -9 4 -14 11 -14s11 5 11 14v69c-13 -15 -32 -31 -63 -31h-2c-45 0 -67 35 -67 72zM128 273c-11 0 -13 -7 -13 -18v-48
c0 -12 4 -18 13 -18c11 0 13 7 13 18v48c0 9 -2 18 -13 18z" />
    <glyph glyph-name="zero.sub" unicode="&#x2080;" horiz-adv-x="264" 
d="M125 235h15c83 0 113 -51 113 -112v-133c0 -58 -37 -109 -113 -109h-16c-81 0 -112 51 -112 109v133c0 60 30 112 113 112zM132 148c-11 0 -13 -8 -13 -19v-141c0 -9 2 -17 13 -17c9 0 13 6 13 17v141c0 12 -2 19 -13 19z" />
    <glyph glyph-name="one.sub" unicode="&#x2081;" horiz-adv-x="166" 
d="M49 112h-43v77c40 0 52 17 55 40h89v-342h-101v225z" />
    <glyph glyph-name="two.sub" unicode="&#x2082;" horiz-adv-x="247" 
d="M239 -113h-232v44c0 45 12 65 84 140c35 35 38 44 38 62v15c0 10 -4 15 -12 15c-7 0 -11 -5 -11 -15v-45h-94v44c0 45 22 88 97 88h17c81 0 106 -38 106 -86v-14c0 -47 -21 -73 -74 -113c-57 -46 -57 -45 -57 -59h52v46h86v-122z" />
    <glyph glyph-name="three.sub" unicode="&#x2083;" horiz-adv-x="240" 
d="M103 116h-93v35c0 49 26 84 98 84h13c67 0 103 -23 103 -82v-18c0 -33 -19 -51 -34 -56c19 -7 42 -23 42 -62v-41c0 -60 -32 -96 -108 -96h-15c-81 0 -101 40 -101 85v47h97v-42c0 -9 4 -13 11 -13s10 4 10 13v44c0 9 -4 13 -11 13h-45v76h42c9 0 13 4 13 13v35
c0 9 -4 14 -12 14c-7 0 -10 -5 -10 -14v-35z" />
    <glyph glyph-name="four.sub" unicode="&#x2084;" horiz-adv-x="231" 
d="M6 -60v70c21 50 63 159 84 220h105v-206h29v-84h-29v-53h-97v53h-92zM71 24h27v77c-5 -19 -21 -60 -27 -77z" />
    <glyph glyph-name="five.sub" unicode="&#x2085;" horiz-adv-x="242" 
d="M107 30h-93v199h207v-78h-116v-55c13 16 30 36 61 36h4c45 0 63 -31 63 -74v-79c0 -60 -32 -98 -107 -98h-15c-79 0 -103 37 -103 86v39h99v-39c0 -9 4 -13 11 -13s10 4 10 13v77c0 10 -3 15 -10 15s-11 -5 -11 -15v-14z" />
    <glyph glyph-name="six.sub" unicode="&#x2086;" horiz-adv-x="257" 
d="M182 108h2c47 0 64 -34 64 -70v-56c0 -63 -39 -101 -114 -101h-9c-77 0 -113 39 -113 102v152c0 51 26 100 111 100h8c85 0 109 -41 109 -93v-21h-102v24c0 9 -4 14 -11 14s-10 -5 -10 -14v-69c12 15 33 32 65 32zM129 -43c11 0 13 9 13 18v47c0 13 -4 19 -13 19
c-11 0 -12 -8 -12 -19v-47c0 -9 1 -18 12 -18z" />
    <glyph glyph-name="seven.sub" unicode="&#x2087;" horiz-adv-x="223" 
d="M9 229h206v-44c0 -23 -10 -60 -29 -143c-11 -53 -12 -90 -12 -139v-16h-118v15c0 44 4 72 31 136c37 88 44 105 44 123h-35v-57h-87v125z" />
    <glyph glyph-name="eight.sub" unicode="&#x2088;" horiz-adv-x="242" 
d="M230 151v-21c0 -39 -20 -53 -35 -61c19 -8 39 -29 39 -65v-33c0 -56 -35 -90 -107 -90h-12c-76 0 -106 34 -106 90v33c0 32 17 54 36 65c-15 11 -32 26 -32 61v21c0 53 30 84 102 84h12c69 0 103 -31 103 -84zM133 -27v43c0 11 -2 17 -13 17c-7 0 -11 -6 -11 -17v-43
c0 -11 4 -16 11 -16c11 0 13 8 13 16zM132 116v32c0 11 -1 16 -12 16c-7 0 -10 -5 -10 -16v-32c0 -11 4 -17 11 -17s11 6 11 17z" />
    <glyph glyph-name="nine.sub" unicode="&#x2089;" horiz-adv-x="257" 
d="M9 81v54c0 60 34 100 113 100h10c80 0 114 -38 114 -101v-152c0 -52 -26 -101 -113 -101h-8c-85 0 -108 40 -108 91v23h102v-24c0 -9 4 -14 11 -14s11 5 11 14v69c-13 -15 -32 -31 -63 -31h-2c-45 0 -67 35 -67 72zM128 159c-11 0 -13 -7 -13 -18v-48c0 -12 4 -18 13 -18
c11 0 13 7 13 18v48c0 9 -2 18 -13 18z" />
    <glyph glyph-name="zero.sup" unicode="&#x2070;" horiz-adv-x="264" 
d="M125 750h15c83 0 113 -51 113 -112v-133c0 -58 -37 -109 -113 -109h-16c-81 0 -112 51 -112 109v133c0 60 30 112 113 112zM132 663c-11 0 -13 -8 -13 -19v-141c0 -9 2 -17 13 -17c9 0 13 6 13 17v141c0 12 -2 19 -13 19z" />
    <glyph glyph-name="one.sup" unicode="&#xb9;" horiz-adv-x="166" 
d="M49 627h-43v77c40 0 52 17 55 40h89v-341h-101v224z" />
    <glyph glyph-name="two.sup" unicode="&#xb2;" horiz-adv-x="247" 
d="M239 402h-232v44c0 45 12 65 84 140c35 35 38 44 38 62v15c0 10 -4 15 -12 15c-7 0 -11 -5 -11 -15v-45h-94v44c0 45 22 88 97 88h17c81 0 106 -38 106 -86v-14c0 -47 -21 -73 -74 -113c-57 -46 -57 -45 -57 -59h52v46h86v-122z" />
    <glyph glyph-name="three.sup" unicode="&#xb3;" horiz-adv-x="240" 
d="M103 631h-93v35c0 49 26 84 98 84h13c67 0 103 -23 103 -82v-18c0 -33 -19 -51 -34 -56c19 -7 42 -23 42 -62v-41c0 -60 -32 -96 -108 -96h-15c-81 0 -101 40 -101 85v47h97v-42c0 -9 4 -13 11 -13s10 4 10 13v44c0 9 -4 13 -11 13h-45v76h42c9 0 13 4 13 13v35
c0 9 -4 14 -12 14c-7 0 -10 -5 -10 -14v-35z" />
    <glyph glyph-name="four.sup" unicode="&#x2074;" horiz-adv-x="231" 
d="M6 455v70c21 50 63 159 84 220h105v-206h29v-84h-29v-53h-97v53h-92zM71 539h27v77c-5 -19 -21 -60 -27 -77z" />
    <glyph glyph-name="five.sup" unicode="&#x2075;" horiz-adv-x="242" 
d="M107 545h-93v199h207v-78h-116v-55c13 16 30 36 61 36h4c45 0 63 -31 63 -74v-79c0 -60 -32 -98 -107 -98h-15c-79 0 -103 37 -103 86v39h99v-39c0 -9 4 -13 11 -13s10 4 10 13v77c0 10 -3 15 -10 15s-11 -5 -11 -15v-14z" />
    <glyph glyph-name="six.sup" unicode="&#x2076;" horiz-adv-x="257" 
d="M182 623h2c47 0 64 -34 64 -70v-56c0 -63 -39 -101 -114 -101h-9c-77 0 -113 39 -113 102v152c0 51 26 100 111 100h8c85 0 109 -41 109 -93v-21h-102v24c0 9 -4 14 -11 14s-10 -5 -10 -14v-69c12 15 33 32 65 32zM129 472c11 0 13 9 13 18v47c0 13 -4 19 -13 19
c-11 0 -12 -8 -12 -19v-47c0 -9 1 -18 12 -18z" />
    <glyph glyph-name="seven.sup" unicode="&#x2077;" horiz-adv-x="222" 
d="M9 744h206v-44c0 -23 -10 -60 -29 -143c-11 -53 -12 -90 -12 -139v-16h-118v15c0 44 4 72 31 136c37 88 44 105 44 123h-35v-57h-87v125z" />
    <glyph glyph-name="eight.sup" unicode="&#x2078;" horiz-adv-x="242" 
d="M230 666v-21c0 -39 -20 -53 -35 -61c19 -8 39 -29 39 -65v-33c0 -56 -35 -90 -107 -90h-12c-76 0 -106 34 -106 90v33c0 32 17 54 36 65c-15 11 -32 26 -32 61v21c0 53 30 84 102 84h12c69 0 103 -31 103 -84zM133 488v43c0 11 -2 17 -13 17c-7 0 -11 -6 -11 -17v-43
c0 -11 4 -16 11 -16c11 0 13 8 13 16zM132 631v32c0 11 -1 16 -12 16c-7 0 -10 -5 -10 -16v-32c0 -11 4 -17 11 -17s11 6 11 17z" />
    <glyph glyph-name="nine.sup" unicode="&#x2079;" horiz-adv-x="257" 
d="M9 596v54c0 60 34 100 113 100h10c80 0 114 -38 114 -101v-152c0 -52 -26 -101 -113 -101h-8c-85 0 -108 40 -108 91v23h102v-24c0 -9 4 -14 11 -14s11 5 11 14v69c-13 -15 -32 -31 -63 -31h-2c-45 0 -67 35 -67 72zM128 674c-11 0 -13 -7 -13 -18v-48
c0 -12 4 -18 13 -18c11 0 13 7 13 18v48c0 9 -2 18 -13 18z" />
    <glyph glyph-name="E.alt" horiz-adv-x="339" 
d="M18 744h307v-154h-142v-127h137v-157h-137v-149h146v-157h-311v744z" />
    <glyph glyph-name="F.alt" horiz-adv-x="335" 
d="M18 744h306v-154h-141v-127h136v-158h-136v-305h-165v744z" />
    <glyph glyph-name="J.alt" horiz-adv-x="275" 
d="M9 0v157h54c19 0 24 10 24 29v558h171v-627c0 -76 -40 -117 -105 -117h-144z" />
    <glyph glyph-name="IJ.alt" horiz-adv-x="472" 
d="M183 744v-744h-165v744h165zM206 0v157h54c19 0 24 10 24 29v558h171v-627c0 -76 -40 -117 -105 -117h-144z" />
    <glyph glyph-name="a.alt" horiz-adv-x="372" 
d="M356 420v-291c0 -90 2 -106 10 -124v-5h-152c-5 7 -11 22 -11 61c-17 -28 -52 -67 -103 -67h-4c-56 0 -85 49 -85 102v106c0 57 23 91 68 115c27 13 96 42 112 50c8 4 11 5 11 20v28c0 16 -6 24 -19 24h-3c-16 0 -20 -9 -20 -24v-50h-142v61c0 71 45 121 152 121h22
c115 0 164 -43 164 -127zM202 136v123c-7 -4 -20 -12 -28 -21c-8 -11 -11 -19 -11 -39v-63c0 -16 4 -26 19 -26s20 11 20 26z" />
    <glyph glyph-name="a.alt2" horiz-adv-x="394" 
d="M220 538h159v-538h-159v61c-19 -30 -55 -72 -100 -72h-5c-59 0 -100 60 -100 129v305c0 63 34 120 91 120h6c54 0 83 -36 108 -66v61zM220 147v240c0 20 -6 36 -23 36c-16 0 -21 -12 -21 -33v-246c0 -19 4 -32 21 -32c16 0 23 15 23 35z" />
    <glyph glyph-name="r.alt" horiz-adv-x="312" 
d="M174 538v-86c21 59 50 90 91 90h6c13 0 26 -3 30 -4v-180c-11 4 -26 8 -57 8h-6c-47 0 -62 -14 -62 -45v-321h-160v538h158z" />
    <glyph glyph-name="Eacute.alt" 
d="M110 767l46 123h130l-50 -123h-126zM18 744h307v-154h-142v-127h137v-157h-137v-149h146v-157h-311v744z" />
    <glyph glyph-name="Ebreve.alt" horiz-adv-x="339" 
d="M177 764h-5c-76 0 -121 46 -121 113v8h99v-6c0 -16 8 -27 24 -27h1c16 0 24 11 24 27v6h98v-8c0 -67 -49 -113 -120 -113zM18 744h307v-154h-142v-127h137v-157h-137v-149h146v-157h-311v744z" />
    <glyph glyph-name="Ecaron.alt" horiz-adv-x="339" 
d="M112 767l-71 123h109l25 -48l26 48h109l-71 -123h-127zM18 744h307v-154h-142v-127h137v-157h-137v-149h146v-157h-311v744z" />
    <glyph glyph-name="Ecircumflex.alt" 
d="M238 890l71 -123h-108l-27 47l-26 -47h-108l70 123h128zM18 744h307v-154h-142v-127h137v-157h-137v-149h146v-157h-311v744z" />
    <glyph glyph-name="Edieresis.alt" 
d="M304 885v-118h-118v118h118zM162 885v-118h-118v118h118zM18 744h307v-154h-142v-127h137v-157h-137v-149h146v-157h-311v744z" />
    <glyph glyph-name="Edotaccent.alt" horiz-adv-x="339" 
d="M255 908v-141h-160v141h160zM18 744h307v-154h-142v-127h137v-157h-137v-149h146v-157h-311v744z" />
    <glyph glyph-name="Egrave.alt" 
d="M199 890l45 -123h-126l-48 123h129zM18 744h307v-154h-142v-127h137v-157h-137v-149h146v-157h-311v744z" />
    <glyph glyph-name="Emacron.alt" horiz-adv-x="339" 
d="M64 774v100h220v-100h-220zM18 744h307v-154h-142v-127h137v-157h-137v-149h146v-157h-311v744z" />
    <glyph glyph-name="Eogonek.alt" horiz-adv-x="339" 
d="M131 -123v13c0 37 30 71 82 110h71c-32 -39 -42 -55 -42 -76v-3c0 -14 9 -21 27 -21h15v-88h-69c-49 0 -84 24 -84 65zM18 744h307v-154h-142v-127h137v-157h-137v-149h146v-157h-311v744z" />
    <glyph glyph-name="Jcircumflex.alt" horiz-adv-x="275" 
d="M234 890l71 -123h-108l-27 47l-26 -47h-108l70 123h128zM9 0v157h54c19 0 24 10 24 29v558h171v-627c0 -76 -40 -117 -105 -117h-144z" />
    <glyph glyph-name="aacute.alt" horiz-adv-x="372" 
d="M122 564l46 143h127l-49 -143h-124zM356 420v-291c0 -90 2 -106 10 -124v-5h-152c-5 7 -11 22 -11 61c-17 -28 -52 -67 -103 -67h-4c-56 0 -85 49 -85 102v106c0 57 23 91 68 115c27 13 96 42 112 50c8 4 11 5 11 20v28c0 16 -6 24 -19 24h-3c-16 0 -20 -9 -20 -24v-50
h-142v61c0 71 45 121 152 121h22c115 0 164 -43 164 -127zM202 136v123c-7 -4 -20 -12 -28 -21c-8 -11 -11 -19 -11 -39v-63c0 -16 4 -26 19 -26s20 11 20 26z" />
    <glyph glyph-name="aacute.alt2" horiz-adv-x="394" 
d="M133 561l46 146h128l-50 -146h-124zM220 538h159v-538h-159v61c-19 -30 -55 -72 -100 -72h-5c-59 0 -100 60 -100 129v305c0 63 34 120 91 120h6c54 0 83 -36 108 -66v61zM220 147v240c0 20 -6 36 -23 36c-16 0 -21 -12 -21 -33v-246c0 -19 4 -32 21 -32
c16 0 23 15 23 35z" />
    <glyph glyph-name="abreve.alt" horiz-adv-x="372" 
d="M356 420v-291c0 -90 2 -106 10 -124v-5h-152c-5 7 -11 22 -11 61c-17 -28 -52 -67 -103 -67h-4c-56 0 -85 49 -85 102v106c0 57 23 91 68 115c27 13 96 42 112 50c8 4 11 5 11 20v28c0 16 -6 24 -19 24h-3c-16 0 -20 -9 -20 -24v-50h-142v61c0 71 45 121 152 121h22
c115 0 164 -43 164 -127zM202 136v123c-7 -4 -20 -12 -28 -21c-8 -11 -11 -19 -11 -39v-63c0 -16 4 -26 19 -26s20 11 20 26zM179 561h-4c-76 0 -122 43 -122 119v12h99v-7c0 -23 8 -35 24 -35h1c17 0 25 12 25 35v7h97v-12c0 -76 -49 -119 -120 -119z" />
    <glyph glyph-name="abreve.alt2" horiz-adv-x="394" 
d="M220 538h159v-538h-159v61c-19 -30 -55 -72 -100 -72h-5c-59 0 -100 60 -100 129v305c0 63 34 120 91 120h6c54 0 83 -36 108 -66v61zM220 147v240c0 20 -6 36 -23 36c-16 0 -21 -12 -21 -33v-246c0 -19 4 -32 21 -32c16 0 23 15 23 35zM194 559h-4
c-76 0 -122 43 -122 119v12h99v-7c0 -23 8 -35 24 -35h1c17 0 25 12 25 35v7h97v-12c0 -76 -49 -119 -120 -119z" />
    <glyph glyph-name="acircumflex.alt" horiz-adv-x="372" 
d="M248 707l69 -143h-109l-25 62l-24 -62h-108l68 143h129zM356 420v-291c0 -90 2 -106 10 -124v-5h-152c-5 7 -11 22 -11 61c-17 -28 -52 -67 -103 -67h-4c-56 0 -85 49 -85 102v106c0 57 23 91 68 115c27 13 96 42 112 50c8 4 11 5 11 20v28c0 16 -6 24 -19 24h-3
c-16 0 -20 -9 -20 -24v-50h-142v61c0 71 45 121 152 121h22c115 0 164 -43 164 -127zM202 136v123c-7 -4 -20 -12 -28 -21c-8 -11 -11 -19 -11 -39v-63c0 -16 4 -26 19 -26s20 11 20 26z" />
    <glyph glyph-name="acircumflex.alt2" horiz-adv-x="394" 
d="M258 707l68 -146h-109l-24 65l-25 -65h-107l67 146h130zM220 538h159v-538h-159v61c-19 -30 -55 -72 -100 -72h-5c-59 0 -100 60 -100 129v305c0 63 34 120 91 120h6c54 0 83 -36 108 -66v61zM220 147v240c0 20 -6 36 -23 36c-16 0 -21 -12 -21 -33v-246
c0 -19 4 -32 21 -32c16 0 23 15 23 35z" />
    <glyph glyph-name="adieresis.alt" horiz-adv-x="372" 
d="M169 682v-119h-118v119h118zM311 682v-119h-118v119h118zM356 420v-291c0 -90 2 -106 10 -124v-5h-152c-5 7 -11 22 -11 61c-17 -28 -52 -67 -103 -67h-4c-56 0 -85 49 -85 102v106c0 57 23 91 68 115c27 13 96 42 112 50c8 4 11 5 11 20v28c0 16 -6 24 -19 24h-3
c-16 0 -20 -9 -20 -24v-50h-142v61c0 71 45 121 152 121h22c115 0 164 -43 164 -127zM202 136v123c-7 -4 -20 -12 -28 -21c-8 -11 -11 -19 -11 -39v-63c0 -16 4 -26 19 -26s20 11 20 26z" />
    <glyph glyph-name="adieresis.alt2" horiz-adv-x="394" 
d="M183 680v-119h-118v119h118zM325 680v-119h-118v119h118zM220 538h159v-538h-159v61c-19 -30 -55 -72 -100 -72h-5c-59 0 -100 60 -100 129v305c0 63 34 120 91 120h6c54 0 83 -36 108 -66v61zM220 147v240c0 20 -6 36 -23 36c-16 0 -21 -12 -21 -33v-246
c0 -19 4 -32 21 -32c16 0 23 15 23 35z" />
    <glyph glyph-name="agrave.alt" horiz-adv-x="372" 
d="M200 707l45 -143h-124l-50 143h129zM356 420v-291c0 -90 2 -106 10 -124v-5h-152c-5 7 -11 22 -11 61c-17 -28 -52 -67 -103 -67h-4c-56 0 -85 49 -85 102v106c0 57 23 91 68 115c27 13 96 42 112 50c8 4 11 5 11 20v28c0 16 -6 24 -19 24h-3c-16 0 -20 -9 -20 -24v-50
h-142v61c0 71 45 121 152 121h22c115 0 164 -43 164 -127zM202 136v123c-7 -4 -20 -12 -28 -21c-8 -11 -11 -19 -11 -39v-63c0 -16 4 -26 19 -26s20 11 20 26z" />
    <glyph glyph-name="agrave.alt2" horiz-adv-x="394" 
d="M220 538h159v-538h-159v61c-19 -30 -55 -72 -100 -72h-5c-59 0 -100 60 -100 129v305c0 63 34 120 91 120h6c54 0 83 -36 108 -66v61zM220 147v240c0 20 -6 36 -23 36c-16 0 -21 -12 -21 -33v-246c0 -19 4 -32 21 -32c16 0 23 15 23 35zM209 707l45 -146h-123l-50 146
h128z" />
    <glyph glyph-name="amacron.alt" horiz-adv-x="372" 
d="M356 420v-291c0 -90 2 -106 10 -124v-5h-152c-5 7 -11 22 -11 61c-17 -28 -52 -67 -103 -67h-4c-56 0 -85 49 -85 102v106c0 57 23 91 68 115c27 13 96 42 112 50c8 4 11 5 11 20v28c0 16 -6 24 -19 24h-3c-16 0 -20 -9 -20 -24v-50h-142v61c0 71 45 121 152 121h22
c115 0 164 -43 164 -127zM202 136v123c-7 -4 -20 -12 -28 -21c-8 -11 -11 -19 -11 -39v-63c0 -16 4 -26 19 -26s20 11 20 26zM75 572v100h220v-100h-220z" />
    <glyph glyph-name="amacron.alt2" horiz-adv-x="394" 
d="M84 570v100h220v-100h-220zM220 538h159v-538h-159v61c-19 -30 -55 -72 -100 -72h-5c-59 0 -100 60 -100 129v305c0 63 34 120 91 120h6c54 0 83 -36 108 -66v61zM220 147v240c0 20 -6 36 -23 36c-16 0 -21 -12 -21 -33v-246c0 -19 4 -32 21 -32c16 0 23 15 23 35z" />
    <glyph glyph-name="aogonek.alt" horiz-adv-x="372" 
d="M356 420v-291c0 -90 2 -106 10 -124v-5h-152c-5 7 -11 22 -11 61c-17 -28 -52 -67 -103 -67h-4c-56 0 -85 49 -85 102v106c0 57 23 91 68 115c27 13 96 42 112 50c8 4 11 5 11 20v28c0 16 -6 24 -19 24h-3c-16 0 -20 -9 -20 -24v-50h-142v61c0 71 45 121 152 121h22
c115 0 164 -43 164 -127zM202 136v123c-7 -4 -20 -12 -28 -21c-8 -11 -11 -19 -11 -39v-63c0 -16 4 -26 19 -26s20 11 20 26zM213 -123v13c0 37 30 71 82 110h71c-32 -39 -42 -55 -42 -76v-3c0 -14 9 -21 27 -21h15v-88h-69c-49 0 -84 24 -84 65z" />
    <glyph glyph-name="aogonek.alt2" horiz-adv-x="394" 
d="M224 -123v13c0 37 30 71 82 110h71c-32 -39 -42 -55 -42 -76v-3c0 -14 9 -21 27 -21h15v-88h-69c-49 0 -84 24 -84 65zM220 538h159v-538h-159v61c-19 -30 -55 -72 -100 -72h-5c-59 0 -100 60 -100 129v305c0 63 34 120 91 120h6c54 0 83 -36 108 -66v61zM220 147v240
c0 20 -6 36 -23 36c-16 0 -21 -12 -21 -33v-246c0 -19 4 -32 21 -32c16 0 23 15 23 35z" />
    <glyph glyph-name="aring.alt" horiz-adv-x="372" 
d="M178 609c20 0 34 15 34 35c0 19 -14 34 -34 34s-34 -15 -34 -34c0 -20 14 -35 34 -35zM178 561c-49 0 -86 35 -86 83c0 49 37 83 86 83s86 -34 86 -83c0 -48 -37 -83 -86 -83zM356 420v-291c0 -90 2 -106 10 -124v-5h-152c-5 7 -11 22 -11 61c-17 -28 -52 -67 -103 -67
h-4c-56 0 -85 49 -85 102v106c0 57 23 91 68 115c27 13 96 42 112 50c8 4 11 5 11 20v28c0 16 -6 24 -19 24h-3c-16 0 -20 -9 -20 -24v-50h-142v61c0 71 45 121 152 121h22c115 0 164 -43 164 -127zM202 136v123c-7 -4 -20 -12 -28 -21c-8 -11 -11 -19 -11 -39v-63
c0 -16 4 -26 19 -26s20 11 20 26z" />
    <glyph glyph-name="aring.alt2" horiz-adv-x="394" 
d="M186 607c20 0 34 15 34 35c0 19 -14 34 -34 34s-34 -15 -34 -34c0 -20 14 -35 34 -35zM186 559c-49 0 -86 35 -86 83c0 49 37 83 86 83s86 -34 86 -83c0 -48 -37 -83 -86 -83zM220 538h159v-538h-159v61c-19 -30 -55 -72 -100 -72h-5c-59 0 -100 60 -100 129v305
c0 63 34 120 91 120h6c54 0 83 -36 108 -66v61zM220 147v240c0 20 -6 36 -23 36c-16 0 -21 -12 -21 -33v-246c0 -19 4 -32 21 -32c16 0 23 15 23 35z" />
    <glyph glyph-name="aringacute.alt" horiz-adv-x="372" 
d="M121 741l46 146h128l-50 -146h-124zM180 609c20 0 34 15 34 35c0 19 -14 34 -34 34s-34 -15 -34 -34c0 -20 14 -35 34 -35zM180 561c-49 0 -86 35 -86 83c0 49 37 83 86 83s86 -34 86 -83c0 -48 -37 -83 -86 -83zM356 420v-291c0 -90 2 -106 10 -124v-5h-152
c-5 7 -11 22 -11 61c-17 -28 -52 -67 -103 -67h-4c-56 0 -85 49 -85 102v106c0 57 23 91 68 115c27 13 96 42 112 50c8 4 11 5 11 20v28c0 16 -6 24 -19 24h-3c-16 0 -20 -9 -20 -24v-50h-142v61c0 71 45 121 152 121h22c115 0 164 -43 164 -127zM202 136v123
c-7 -4 -20 -12 -28 -21c-8 -11 -11 -19 -11 -39v-63c0 -16 4 -26 19 -26s20 11 20 26z" />
    <glyph glyph-name="aringacute.alt2" horiz-adv-x="394" 
d="M128 738l46 146h128l-50 -146h-124zM187 607c20 0 34 15 34 35c0 19 -14 34 -34 34s-34 -15 -34 -34c0 -20 14 -35 34 -35zM187 559c-49 0 -86 35 -86 83c0 49 37 83 86 83s86 -34 86 -83c0 -48 -37 -83 -86 -83zM220 538h159v-538h-159v61c-19 -30 -55 -72 -100 -72h-5
c-59 0 -100 60 -100 129v305c0 63 34 120 91 120h6c54 0 83 -36 108 -66v61zM220 147v240c0 20 -6 36 -23 36c-16 0 -21 -12 -21 -33v-246c0 -19 4 -32 21 -32c16 0 23 15 23 35z" />
    <glyph glyph-name="atilde.alt" horiz-adv-x="372" 
d="M356 420v-291c0 -90 2 -106 10 -124v-5h-152c-5 7 -11 22 -11 61c-17 -28 -52 -67 -103 -67h-4c-56 0 -85 49 -85 102v106c0 57 23 91 68 115c27 13 96 42 112 50c8 4 11 5 11 20v28c0 16 -6 24 -19 24h-3c-16 0 -20 -9 -20 -24v-50h-142v61c0 71 45 121 152 121h22
c115 0 164 -43 164 -127zM202 136v123c-7 -4 -20 -12 -28 -21c-8 -11 -11 -19 -11 -39v-63c0 -16 4 -26 19 -26s20 11 20 26zM218 694h86v-66c0 -37 -21 -65 -61 -65h-2c-20 0 -35 5 -63 20c-15 7 -20 11 -27 11c-5 0 -7 -4 -7 -12v-20h-86v62c0 40 21 69 62 69h1
c21 0 35 -4 63 -19c15 -7 21 -11 28 -11c4 0 6 4 6 11v20z" />
    <glyph glyph-name="atilde.alt2" horiz-adv-x="394" 
d="M220 538h159v-538h-159v61c-19 -30 -55 -72 -100 -72h-5c-59 0 -100 60 -100 129v305c0 63 34 120 91 120h6c54 0 83 -36 108 -66v61zM220 147v240c0 20 -6 36 -23 36c-16 0 -21 -12 -21 -33v-246c0 -19 4 -32 21 -32c16 0 23 15 23 35zM232 692h86v-66
c0 -37 -21 -65 -61 -65h-2c-20 0 -35 5 -63 20c-15 7 -20 11 -27 11c-5 0 -7 -4 -7 -12v-20h-86v62c0 40 21 69 62 69h1c21 0 35 -4 63 -19c15 -7 21 -11 28 -11c4 0 6 4 6 11v20z" />
    <glyph glyph-name="racute.alt" horiz-adv-x="312" 
d="M103 561l46 146h128l-50 -146h-124zM174 538v-86c21 59 50 90 91 90h6c13 0 26 -3 30 -4v-180c-11 4 -26 8 -57 8h-6c-47 0 -62 -14 -62 -45v-321h-160v538h158z" />
    <glyph glyph-name="rcaron.alt" horiz-adv-x="312" 
d="M101 561l-68 146h108l24 -64l25 64h108l-68 -146h-129zM174 538v-86c21 59 50 90 91 90h6c13 0 26 -3 30 -4v-180c-11 4 -26 8 -57 8h-6c-47 0 -62 -14 -62 -45v-321h-160v538h158z" />
    <glyph glyph-name="rcommaaccent.alt" horiz-adv-x="312" 
d="M137 -211h-66c8 21 13 44 15 71h-53v117h126v-77c0 -53 -15 -94 -22 -111zM174 538v-86c21 59 50 90 91 90h6c13 0 26 -3 30 -4v-180c-11 4 -26 8 -57 8h-6c-47 0 -62 -14 -62 -45v-321h-160v538h158z" />
    <glyph glyph-name="space_uni0326.alt" 
d="M130 749h67c-8 -21 -14 -46 -15 -71h52v-117h-127v76c0 53 16 95 23 112z" />
    <glyph glyph-name="ordfeminine.alt" horiz-adv-x="231" 
d="M124 480c-9 -16 -30 -41 -62 -41h-1c-35 0 -52 28 -52 61v50c0 36 14 52 43 67c17 8 57 23 65 29c5 2 7 6 7 12v11c0 9 -4 14 -12 14c-7 0 -11 -5 -11 -14v-22h-88v31c0 41 28 71 91 71h14c72 0 100 -26 100 -75v-175c0 -35 3 -44 6 -52v-4h-94c-3 4 -6 14 -6 37z
M124 521v62c-7 -3 -12 -6 -16 -10s-6 -11 -6 -22v-31c0 -9 3 -13 10 -13c8 0 12 5 12 14z" />
    <glyph glyph-name="ordfeminine.alt2" horiz-adv-x="247" 
d="M136 744h97v-301h-97v36c-12 -19 -32 -42 -61 -42h-2c-37 0 -61 31 -61 74v166c0 39 21 70 56 70h4c32 0 49 -19 64 -39v36zM136 527v130c0 11 -3 20 -14 20c-7 0 -11 -6 -11 -18v-133c0 -11 2 -18 11 -18s14 6 14 19z" />
    <glyph glyph-name="caron.alt" 
d="M115 586l6 158h104l-11 -158h-99z" />
    <glyph glyph-name="plus.uc" horiz-adv-x="347" 
d="M119 175v117h-105v99h105v118h109v-118h105v-99h-105v-117h-109z" />
    <glyph glyph-name="minus.uc" horiz-adv-x="329" 
d="M14 391h301v-99h-301v99z" />
    <glyph glyph-name="multiply.uc" horiz-adv-x="320" 
d="M242 188l-82 83l-81 -83l-70 68l82 84l-82 84l70 71l82 -84l81 84l70 -69l-83 -84l83 -84z" />
    <glyph glyph-name="divide.uc" horiz-adv-x="346" 
d="M14 391h319v-99h-319v99zM228 524v-109h-110v109h110zM228 267v-110h-110v110h110z" />
    <glyph glyph-name="equal.uc" horiz-adv-x="341" 
d="M16 331h309v-93h-309v93zM16 446h309v-93h-309v93z" />
    <glyph glyph-name="less.uc" horiz-adv-x="296" 
d="M12 293v98l269 106v-108l-148 -48l148 -46v-110z" />
    <glyph glyph-name="greater.uc" horiz-adv-x="296" 
d="M14 389v108l270 -106v-98l-270 -108v110l149 47z" />
    <glyph glyph-name="questiondown.uc" horiz-adv-x="377" 
d="M142 558h123v-102c0 -48 -6 -67 -33 -110l-45 -71c-16 -25 -18 -42 -18 -71v-51c0 -21 5 -31 22 -31c19 0 22 11 22 31v112h148v-116c0 -80 -25 -158 -156 -158h-35c-119 0 -162 63 -162 153v51c0 62 8 97 45 144l64 82c21 26 25 37 25 75v62zM132 583v161h142v-161h-142
z" />
    <glyph glyph-name="exclamdown.uc" horiz-adv-x="192" 
d="M166 744v-161h-141v161h141zM184 0h-176l48 558h79z" />
    <glyph glyph-name="hyphen.uc" horiz-adv-x="201" 
d="M14 413h173v-146h-173v146z" />
    <glyph glyph-name="endash.uc" horiz-adv-x="386" 
d="M14 393h358v-103h-358v103z" />
    <glyph glyph-name="emdash.uc" horiz-adv-x="584" 
d="M14 393h556v-103h-556v103z" />
    <glyph glyph-name="guilsinglleft.uc" horiz-adv-x="186" 
d="M132 308l46 -171h-122l-45 138v67l45 135h123z" />
    <glyph glyph-name="guilsinglright.uc" horiz-adv-x="186" 
d="M53 308l-46 169h123l45 -136v-67l-45 -137h-123z" />
    <glyph glyph-name="guillemotleft.uc" horiz-adv-x="315" 
d="M122 308l53 -171h-114l-50 138v67l50 135h114zM263 308l44 -171h-113l-51 171l51 169h114z" />
    <glyph glyph-name="guillemotright.uc" horiz-adv-x="314" 
d="M139 137l54 169l-54 171h114l51 -137v-67l-51 -136h-114zM7 137l46 169l-46 171h114l51 -171l-51 -169h-114z" />
    <glyph glyph-name="parenleft.uc" horiz-adv-x="226" 
d="M21 369v6c0 208 74 363 114 441h93c-29 -86 -68 -256 -68 -442c0 -190 40 -365 69 -455h-93c-43 83 -115 242 -115 450z" />
    <glyph glyph-name="parenright.uc" horiz-adv-x="226" 
d="M205 375v-6c0 -208 -72 -367 -115 -450h-93c27 91 70 264 70 455c0 186 -41 356 -68 442h93c40 -77 113 -234 113 -441z" />
    <glyph glyph-name="bracketleft.uc" horiz-adv-x="214" 
d="M207 817v-112h-55v-670h55v-112h-182v894h182z" />
    <glyph glyph-name="bracketright.uc" horiz-adv-x="214" 
d="M7 -77v112h54v670h-54v112h182v-894h-182z" />
    <glyph glyph-name="braceleft.uc" horiz-adv-x="227" 
d="M188 276c0 -45 -29 -160 -29 -207c0 -25 11 -40 39 -40h22v-106h-62c-80 0 -126 38 -126 113c0 47 32 176 32 237c0 27 -10 42 -35 42h-16v110h20c25 0 31 14 31 37c0 67 -32 184 -32 242c0 73 46 113 126 113h62v-107h-24c-27 0 -37 -12 -37 -35c0 -40 29 -166 29 -209
c0 -51 -15 -82 -62 -97c47 -17 62 -48 62 -93z" />
    <glyph glyph-name="braceright.uc" horiz-adv-x="227" 
d="M39 466c0 43 30 169 30 209c0 23 -13 35 -38 35h-24v107h62c80 0 126 -40 126 -113c0 -58 -32 -175 -32 -242c0 -23 7 -37 32 -37h20v-110h-17c-25 0 -35 -15 -35 -42c0 -61 32 -190 32 -237c0 -75 -46 -113 -126 -113h-62v106h22c29 0 40 15 40 40c0 47 -30 162 -30 207
s15 76 62 93c-47 15 -62 46 -62 97z" />
    <glyph glyph-name="slash.uc" horiz-adv-x="238" 
d="M241 816l-134 -897h-111l133 897h112z" />
    <glyph glyph-name="backslash.uc" horiz-adv-x="238" 
d="M130 -81l-133 897h112l133 -897h-112z" />
    <glyph glyph-name="bar.uc" horiz-adv-x="194" 
d="M150 816v-897h-106v897h106z" />
    <glyph glyph-name="at.uc" horiz-adv-x="648" 
d="M499 74l55 -62c-29 -39 -105 -103 -227 -103h-5c-119 0 -306 39 -306 387v103c0 237 115 383 314 383h9c176 0 295 -90 295 -314v-89c0 -233 -71 -290 -159 -290h-16c-59 0 -92 25 -109 68c-31 -48 -64 -68 -97 -68h-5c-50 0 -98 47 -93 125l13 273c3 64 37 106 85 106h7
c39 0 69 -27 92 -58l2 54h149l-22 -394c-1 -11 1 -20 13 -20c28 0 45 81 45 202v89c0 192 -88 234 -200 234h-9c-129 0 -215 -94 -215 -303v-100c0 -280 131 -304 207 -304h5c93 0 149 52 172 81zM335 218l13 245c1 19 -5 28 -16 28c-13 0 -15 -9 -16 -28l-13 -245
c-1 -18 4 -27 15 -27s16 9 17 27z" />
    <glyph glyph-name="grave.uc" 
d="M213 890l45 -123h-126l-48 123h129z" />
    <glyph glyph-name="dieresis.uc" 
d="M301 885v-118h-118v118h118zM159 885v-118h-118v118h118z" />
    <glyph glyph-name="macron.uc" 
d="M61 774v100h220v-100h-220z" />
    <glyph glyph-name="acute.uc" 
d="M83 767l46 123h130l-50 -123h-126z" />
    <glyph glyph-name="circumflex.uc" 
d="M234 890l71 -123h-108l-27 47l-26 -47h-108l70 123h128z" />
    <glyph glyph-name="caron.uc" 
d="M107 767l-71 123h109l25 -48l26 48h109l-71 -123h-127z" />
    <glyph glyph-name="breve.uc" 
d="M174 764h-5c-76 0 -121 46 -121 113v8h99v-6c0 -16 8 -27 24 -27h1c16 0 24 11 24 27v6h98v-8c0 -67 -49 -113 -120 -113z" />
    <glyph glyph-name="dotaccent.uc" 
d="M251 908v-141h-160v141h160z" />
    <glyph glyph-name="ring.uc" 
d="M137 845c0 -20 14 -35 34 -35s34 15 34 35c0 19 -14 34 -34 34s-34 -15 -34 -34zM171 928c49 0 86 -34 86 -83c0 -48 -37 -83 -86 -83s-86 35 -86 83c0 49 37 83 86 83z" />
    <glyph glyph-name="tilde.uc" 
d="M169 785c-15 7 -22 10 -29 10c-5 0 -8 -4 -8 -11v-18h-85v50c0 47 22 75 61 75h1c23 0 39 -5 64 -16c19 -8 23 -11 30 -11c5 0 7 4 7 11v19h85v-49c0 -48 -25 -75 -61 -75h-2c-19 0 -36 4 -63 15z" />
    <glyph glyph-name="hungarumlaut.uc" 
d="M38 767l27 123h109l-30 -123h-106zM167 767l29 123h109l-33 -123h-105z" />
    <glyph glyph-name="emdash.altuc" horiz-adv-x="1141" 
d="M14 393h1113v-103h-1113v103z" />
    <glyph glyph-name="f.short" horiz-adv-x="294" 
d="M285 744v-129h-40c-16 0 -19 -5 -19 -20v-57h59v-135h-59v-403h-160v403h-60v135h60v118c0 52 37 88 92 88h127z" />
    <glyph glyph-name="f_f.short" horiz-adv-x="530" 
d="M286 744v-129h-41c-16 0 -19 -5 -19 -20v-57h76v118c0 52 36 88 92 88h127v-129h-41c-15 0 -18 -5 -18 -20v-57h58v-135h-58v-403h-160v403h-76v-403h-160v403h-60v135h60v118c0 52 37 88 92 88h128z" />
    <glyph glyph-name="j.short" horiz-adv-x="192" 
d="M176 702v-141h-160v141h160zM-24 -47h23c12 0 17 4 17 19v566h160v-645c0 -51 -34 -81 -79 -81h-121v141z" />
    <glyph glyph-name="uni0237" unicode="&#x237;" horiz-adv-x="192" 
d="M-46 -47h45c12 0 17 4 17 19v566h160v-645c0 -51 -34 -81 -79 -81h-143v141z" />
    <glyph glyph-name="uni02BC" unicode="&#x2bc;" horiz-adv-x="154" 
d="M116 509h-76c9 27 22 66 23 95h-49v140h131v-108c0 -55 -18 -104 -29 -127z" />
    <glyph glyph-name="uni0402" unicode="&#x402;" horiz-adv-x="478" 
d="M357 590h-113v-148c19 7 45 10 66 10h3c107 0 153 -49 153 -146v-325c0 -89 -39 -133 -116 -133h-97v140h20c23 0 28 14 28 37v238c0 35 -8 42 -31 42h-2c-11 0 -19 -1 -24 -4v-301h-164v590h-73v154h350v-154z" />
    <glyph glyph-name="uni0403" unicode="&#x403;" horiz-adv-x="330" 
d="M91 767l46 123h130l-50 -123h-126zM16 0v744h305v-154h-142v-590h-163z" />
    <glyph glyph-name="uni0404" unicode="&#x404;" horiz-adv-x="414" 
d="M402 285v-114c0 -93 -45 -183 -176 -183h-29c-139 0 -183 82 -183 197v378c0 107 48 191 182 191h30c132 0 176 -76 176 -174v-88h-163v81c0 24 -6 37 -27 37s-27 -10 -27 -37v-107h102v-155h-102v-135c0 -25 7 -39 28 -39c20 0 26 16 26 39v109h163z" />
    <glyph glyph-name="uni0405" unicode="&#x405;" horiz-adv-x="407" 
d="M190 754h37c121 0 165 -59 165 -152v-89h-159v80c0 20 -5 32 -25 32c-19 0 -25 -12 -25 -33v-19c0 -31 7 -49 36 -76l85 -76c75 -69 98 -119 98 -200v-37c0 -116 -57 -194 -184 -194h-36c-115 0 -173 55 -173 164v119h162v-103c0 -25 7 -39 28 -39c20 0 27 15 27 44v20
c0 42 -3 61 -39 94l-86 77c-63 56 -85 116 -85 192v35c0 99 58 161 174 161z" />
    <glyph glyph-name="uni0406" unicode="&#x406;" horiz-adv-x="197" 
d="M183 744v-744h-165v744h165z" />
    <glyph glyph-name="uni0408" unicode="&#x408;" horiz-adv-x="395" 
d="M12 332h154v-168c0 -17 7 -26 22 -26h2c14 0 21 9 21 26v580h170v-585c0 -104 -54 -168 -166 -168h-49c-108 0 -154 57 -154 157v184z" />
    <glyph glyph-name="uni0408.alt" horiz-adv-x="272" 
d="M9 0v157h54c19 0 24 10 24 29v558h171v-627c0 -76 -40 -117 -105 -117h-144z" />
    <glyph glyph-name="uni0409" unicode="&#x409;" horiz-adv-x="636" 
d="M48 209c4 85 7 252 7 535h357v-264h79c85 0 135 -55 135 -154v-176c0 -100 -41 -150 -140 -150h-238v590h-43c0 -189 -3 -349 -8 -431c-8 -118 -45 -159 -161 -159h-31v159h8c27 0 34 15 35 50zM412 130h20c25 0 29 14 29 37v140c0 23 -5 36 -29 36h-20v-213z" />
    <glyph glyph-name="uni040A" unicode="&#x40a;" horiz-adv-x="627" 
d="M238 0v325h-57v-325h-165v744h165v-260h57v260h165v-260h78c87 0 136 -54 136 -153v-181c0 -100 -41 -150 -140 -150h-239zM403 348v-218h20c25 0 28 14 28 37v144c0 23 -4 37 -28 37h-20z" />
    <glyph glyph-name="uni040B" unicode="&#x40b;" horiz-adv-x="478" 
d="M357 590h-113v-148c19 7 45 10 66 10h3c107 0 153 -49 153 -146v-306h-165v263c0 35 -8 42 -31 42h-2c-11 0 -19 -1 -24 -4v-301h-164v590h-73v154h350v-154z" />
    <glyph glyph-name="uni040C" unicode="&#x40c;" horiz-adv-x="420" 
d="M257 0l-74 297v-297h-165v744h165v-264l77 264h164l-101 -331l107 -413h-173zM146 767l46 123h130l-50 -123h-126z" />
    <glyph glyph-name="uni040E" unicode="&#x40e;" horiz-adv-x="374" 
d="M381 744l-128 -662c-12 -63 -47 -82 -82 -82h-133v136h47c15 0 17 6 20 22l1 13c0 11 0 19 -5 39l-108 534h163l36 -297l32 297h157zM198 764h-5c-76 0 -121 46 -121 113v8h99v-6c0 -16 8 -27 24 -27h1c16 0 24 11 24 27v6h98v-8c0 -67 -49 -113 -120 -113z" />
    <glyph glyph-name="uni040F" unicode="&#x40f;" horiz-adv-x="413" 
d="M16 0v744h165v-590h51v590h165v-744h-120v-105h-141v105h-120z" />
    <glyph glyph-name="uni0410" unicode="&#x410;" horiz-adv-x="393" 
d="M240 0l-12 109h-76l-11 -109h-143l95 744h203l104 -744h-160zM190 482l-23 -226h46z" />
    <glyph glyph-name="uni0411" unicode="&#x411;" horiz-adv-x="403" 
d="M16 0v744h341v-154h-177v-120h79c85 0 135 -55 135 -154v-166c0 -100 -41 -150 -140 -150h-238zM180 130h20c25 0 29 14 29 37v130c0 23 -5 36 -29 36h-20v-203z" />
    <glyph glyph-name="uni0412" unicode="&#x412;" horiz-adv-x="420" 
d="M18 0v744h250c85 0 131 -39 131 -140v-82c0 -71 -45 -105 -69 -113c35 -11 83 -39 83 -127v-110c0 -115 -45 -172 -135 -172h-260zM210 328h-27v-196h30c20 0 28 8 28 40v118c0 27 -7 38 -31 38zM207 617h-24v-160h23c19 0 30 9 30 37v88c0 23 -6 35 -29 35z" />
    <glyph glyph-name="uni0413" unicode="&#x413;" horiz-adv-x="330" 
d="M16 0v744h305v-154h-142v-590h-163z" />
    <glyph glyph-name="uni0414" unicode="&#x414;" horiz-adv-x="453" 
d="M307 -105v105h-166v-105h-141v262h25c4 7 10 32 14 100c3 72 5 218 8 487h363v-587h38v-262h-141zM186 265c-4 -56 -11 -96 -15 -113h80v438h-58c-3 -152 -4 -270 -7 -325z" />
    <glyph glyph-name="uni0414.bgr" horiz-adv-x="468" 
d="M146 0v-105h-141v262h39l80 587h215l87 -587h37v-262h-140v105h-177zM261 152l-34 349l-33 -349h67z" />
    <glyph glyph-name="uni0415" unicode="&#x415;" horiz-adv-x="338" 
d="M18 744h309v-154h-146v-127h117v-158h-117v-148h152v-157h-315v744z" />
    <glyph glyph-name="uni0415.alt" horiz-adv-x="335" 
d="M18 744h307v-154h-142v-127h137v-157h-137v-149h146v-157h-311v744z" />
    <glyph glyph-name="uni0416" unicode="&#x416;" horiz-adv-x="629" 
d="M235 0v313l-69 -313h-170l101 404l-99 340h165l72 -278v278h160v-277l71 277h164l-97 -332l103 -412h-172l-69 310v-310h-160z" />
    <glyph glyph-name="uni0416.bgr" horiz-adv-x="629" 
d="M235 0v313l-69 -313h-170l101 404l-99 340h165l72 -278v278h160v-277l71 277h164l-97 -332l103 -412h-172l-69 310v-310h-160z" />
    <glyph glyph-name="uni0417" unicode="&#x417;" horiz-adv-x="398" 
d="M173 585v-77h-160v97c0 76 47 148 168 148h29c119 0 171 -57 171 -148v-74c0 -68 -32 -95 -51 -109c35 -12 59 -46 59 -95v-171c0 -108 -66 -167 -175 -167h-27c-135 0 -176 76 -176 147v140h163v-110c0 -18 8 -27 23 -27s23 9 23 27v127c0 19 -3 25 -22 25h-79v151h73
c16 0 24 9 24 26v90c0 21 -6 27 -22 27c-15 0 -21 -7 -21 -27z" />
    <glyph glyph-name="uni0418" unicode="&#x418;" horiz-adv-x="420" 
d="M170 744v-372l80 372h154v-744h-154v370l-80 -370h-154v744h154z" />
    <glyph glyph-name="uni0419" unicode="&#x419;" horiz-adv-x="420" 
d="M170 744v-372l80 372h154v-744h-154v370l-80 -370h-154v744h154zM215 764h-5c-76 0 -121 46 -121 113v8h99v-6c0 -16 8 -27 24 -27h1c16 0 24 11 24 27v6h98v-8c0 -67 -49 -113 -120 -113z" />
    <glyph glyph-name="uni041A" unicode="&#x41a;" horiz-adv-x="424" 
d="M258 0l-74 297v-297h-165v744h165v-264l77 264h164l-101 -331l107 -413h-173z" />
    <glyph glyph-name="uni041A.bgr" horiz-adv-x="420" 
d="M183 297v-297h-165v744h165v-263l77 263h164l-101 -332l107 -412h-173z" />
    <glyph glyph-name="uni041B" unicode="&#x41b;" horiz-adv-x="432" 
d="M48 209c4 85 7 252 7 535h360v-744h-165v590h-45c0 -189 -3 -349 -8 -431c-8 -118 -45 -159 -161 -159h-31v159h8c27 0 34 15 35 50z" />
    <glyph glyph-name="uni041B.bgr" horiz-adv-x="416" 
d="M310 744l107 -744h-174l-45 466l-45 -466h-159l100 744h216z" />
    <glyph glyph-name="uni041C" unicode="&#x41c;" horiz-adv-x="500" 
d="M18 0v744h197l41 -348l43 348h186v-744h-142v406l-63 -406h-59l-63 406v-406h-140z" />
    <glyph glyph-name="uni041D" unicode="&#x41d;" horiz-adv-x="420" 
d="M238 0v300h-57v-300h-165v744h165v-270h57v270h165v-744h-165z" />
    <glyph glyph-name="uni041E" unicode="&#x41e;" horiz-adv-x="429" 
d="M418 544v-353c0 -129 -71 -202 -184 -202h-32c-121 0 -186 73 -186 202v353c0 128 54 210 185 210h32c132 0 185 -83 185 -210zM247 180v381c0 28 -10 42 -30 42c-23 0 -30 -14 -30 -42v-381c0 -23 8 -37 31 -37c21 0 29 14 29 37z" />
    <glyph glyph-name="uni041F" unicode="&#x41f;" horiz-adv-x="413" 
d="M16 0v744h381v-744h-165v590h-51v-590h-165z" />
    <glyph glyph-name="uni0420" unicode="&#x420;" horiz-adv-x="404" 
d="M261 287h-79v-287h-164v744h238c99 0 140 -50 140 -150v-154c0 -97 -50 -153 -135 -153zM182 614v-190h20c24 0 29 13 29 36v117c0 23 -4 37 -29 37h-20z" />
    <glyph glyph-name="uni0421" unicode="&#x421;" horiz-adv-x="414" 
d="M241 176v149h163v-154c0 -93 -45 -183 -176 -183h-29c-139 0 -183 82 -183 197v378c0 107 48 191 182 191h30c132 0 176 -76 176 -174v-122h-163v115c0 24 -6 37 -27 37s-27 -10 -27 -37v-397c0 -25 7 -39 28 -39c20 0 26 16 26 39z" />
    <glyph glyph-name="uni0422" unicode="&#x422;" horiz-adv-x="364" 
d="M9 744h350v-154h-93v-590h-164v590h-93v154z" />
    <glyph glyph-name="uni0423" unicode="&#x423;" horiz-adv-x="374" 
d="M381 744l-128 -662c-12 -63 -47 -82 -82 -82h-133v136h47c15 0 17 6 20 22l1 13c0 11 0 19 -5 39l-108 534h163l36 -297l32 297h157z" />
    <glyph glyph-name="uni0424" unicode="&#x424;" horiz-adv-x="619" 
d="M440 67h-48v-77h-165v77h-48c-103 0 -166 58 -166 177v271c0 119 56 178 167 178h47v61h165v-61h47c105 0 167 -55 167 -176v-271c0 -116 -58 -179 -166 -179zM398 553h-6v-343h6c29 0 40 11 40 44v254c0 29 -8 45 -40 45zM221 210h6v343h-6c-31 0 -40 -12 -40 -43v-255
c0 -31 9 -45 40 -45z" />
    <glyph glyph-name="uni0425" unicode="&#x425;" horiz-adv-x="407" 
d="M86 398l-80 346h167l35 -218l34 218h157l-76 -346l91 -398h-166l-44 251l-46 -251h-161z" />
    <glyph glyph-name="uni0426" unicode="&#x426;" horiz-adv-x="439" 
d="M293 -105v105h-277v744h165v-590h51v590h165v-587h37v-262h-141z" />
    <glyph glyph-name="uni0427" unicode="&#x427;" horiz-adv-x="414" 
d="M398 0h-165v300c-19 -7 -46 -10 -70 -10h-4c-100 0 -147 49 -147 146v308h164v-265c0 -35 9 -42 32 -42h2c11 0 18 1 23 4v303h165v-744z" />
    <glyph glyph-name="uni0428" unicode="&#x428;" horiz-adv-x="614" 
d="M16 0v744h165v-587h43v587h165v-587h43v587h166v-744h-582z" />
    <glyph glyph-name="uni0429" unicode="&#x429;" horiz-adv-x="640" 
d="M16 0v744h165v-587h43v587h165v-587h43v587h166v-587h37v-262h-141v105h-478z" />
    <glyph glyph-name="uni042A" unicode="&#x42a;" horiz-adv-x="475" 
d="M251 480h79c85 0 135 -55 135 -154v-176c0 -100 -41 -150 -140 -150h-238v590h-80v154h244v-264zM251 130h20c25 0 29 14 29 37v140c0 23 -5 36 -29 36h-20v-213z" />
    <glyph glyph-name="uni042B" unicode="&#x42b;" horiz-adv-x="599" 
d="M180 480h79c85 0 135 -55 135 -154v-176c0 -100 -41 -150 -140 -150h-238v744h164v-264zM180 130h20c25 0 29 14 29 37v140c0 23 -5 36 -29 36h-20v-213zM586 744v-744h-165v744h165z" />
    <glyph glyph-name="uni042C" unicode="&#x42c;" horiz-adv-x="404" 
d="M180 480h79c85 0 135 -55 135 -154v-176c0 -100 -41 -150 -140 -150h-238v744h164v-264zM180 130h20c25 0 29 14 29 37v140c0 23 -5 36 -29 36h-20v-213z" />
    <glyph glyph-name="uni042D" unicode="&#x42d;" horiz-adv-x="415" 
d="M401 563v-378c0 -115 -44 -197 -183 -197h-30c-129 0 -175 90 -175 183v114h162v-109c0 -23 6 -39 27 -39c20 0 27 14 27 39v135h-102v155h102v107c0 27 -6 37 -26 37c-23 0 -28 -13 -28 -37v-81h-162v88c0 98 44 174 176 174h30c132 0 182 -84 182 -191z" />
    <glyph glyph-name="uni042E" unicode="&#x42e;" horiz-adv-x="636" 
d="M623 544v-353c0 -129 -71 -202 -184 -202h-33c-120 0 -186 73 -186 202v116h-39v-307h-165v744h165v-275h39v75c0 128 55 210 186 210h32c132 0 185 -83 185 -210zM452 180v381c0 28 -10 42 -30 42c-23 0 -30 -14 -30 -42v-381c0 -23 7 -37 30 -37s30 14 30 37z" />
    <glyph glyph-name="uni042F" unicode="&#x42f;" horiz-adv-x="418" 
d="M237 269h-11l-59 -269h-170l77 316c-34 23 -51 63 -51 121v157c0 100 41 150 140 150h238v-744h-164v269zM237 406v208h-20c-25 0 -29 -14 -29 -37v-135c0 -23 5 -36 29 -36h20z" />
    <glyph glyph-name="uni042F.alt" horiz-adv-x="420" 
d="M239 0v280h-20c-23 0 -28 -11 -28 -36v-191c0 -27 -6 -44 -13 -53h-164v5c7 11 11 26 11 54v219c0 56 34 86 62 97c-30 11 -65 45 -65 113v124c0 88 50 132 123 132h259v-744h-165zM239 421v195h-24c-23 0 -27 -8 -27 -35v-125c0 -27 9 -35 29 -35h22z" />
    <glyph glyph-name="uni0430" unicode="&#x430;" horiz-adv-x="383" 
d="M202 136v123c-7 -4 -20 -12 -28 -21c-8 -11 -11 -19 -11 -39v-63c0 -16 4 -26 19 -26s20 11 20 26zM11 96v106c0 57 23 91 68 115c27 13 96 42 112 50c8 4 11 5 11 20v28c0 16 -6 24 -19 24h-3c-16 0 -20 -9 -20 -24v-50h-142v61c0 71 45 121 152 121h22
c115 0 164 -43 164 -127v-277c0 -9 3 -12 15 -12h14v-131h-141c-27 0 -41 20 -41 61c-17 -28 -52 -67 -103 -67h-4c-56 0 -85 49 -85 102z" />
    <glyph glyph-name="uni0430.alt" horiz-adv-x="368" 
d="M356 420v-291c0 -90 2 -106 10 -124v-5h-152c-5 7 -11 22 -11 61c-17 -28 -52 -67 -103 -67h-4c-56 0 -85 49 -85 102v106c0 57 23 91 68 115c27 13 96 42 112 50c8 4 11 5 11 20v28c0 16 -6 24 -19 24h-3c-16 0 -20 -9 -20 -24v-50h-142v61c0 71 45 121 152 121h22
c115 0 164 -43 164 -127zM202 136v123c-7 -4 -20 -12 -28 -21c-8 -11 -11 -19 -11 -39v-63c0 -16 4 -26 19 -26s20 11 20 26z" />
    <glyph glyph-name="uni0430.alt2" horiz-adv-x="391" 
d="M220 538h159v-538h-159v61c-19 -30 -55 -72 -100 -72h-5c-59 0 -100 60 -100 129v305c0 63 34 120 91 120h6c54 0 83 -36 108 -66v61zM220 147v240c0 20 -6 36 -23 36c-16 0 -21 -12 -21 -33v-246c0 -19 4 -32 21 -32c16 0 23 15 23 35z" />
    <glyph glyph-name="uni0431" unicode="&#x431;" horiz-adv-x="393" 
d="M381 404v-245c0 -98 -58 -170 -173 -170h-20c-128 0 -176 74 -176 170v374c0 125 44 192 183 192h26c16 0 22 3 22 19h132c0 -103 -18 -147 -122 -147h-25c-49 0 -61 -15 -61 -67v-38c27 35 65 54 105 54h5c76 0 104 -51 104 -142zM196 118c17 0 24 16 24 37v227
c0 31 -9 41 -24 41c-13 0 -23 -10 -23 -41v-227c0 -25 8 -37 23 -37z" />
    <glyph glyph-name="uni0431.alt" horiz-adv-x="392" 
d="M381 404v-245c0 -98 -58 -170 -173 -170h-20c-128 0 -176 74 -176 170v374c0 129 44 196 183 196h89c32 0 52 4 64 8c7 3 13 5 16 8v-128c-3 -3 -9 -5 -16 -8c-12 -4 -32 -8 -64 -8h-56c-49 0 -61 -15 -61 -71v-38c27 35 65 54 105 54h5c75 0 104 -51 104 -142zM196 118
c17 0 24 16 24 37v227c0 31 -9 41 -24 41c-13 0 -23 -10 -23 -41v-227c0 -25 8 -37 23 -37z" />
    <glyph glyph-name="uni0431.locl" horiz-adv-x="393" 
d="M381 385v-224c0 -104 -61 -172 -172 -172h-25c-123 0 -172 73 -172 171v241c0 47 12 83 53 110c-31 21 -47 48 -47 95c0 72 46 119 142 119h61c16 0 22 3 22 19h132c0 -103 -18 -147 -122 -147h-49c-31 0 -46 -7 -46 -27c0 -16 13 -26 32 -27l32 -3
c99 -8 159 -53 159 -155zM173 384v-226c0 -23 6 -40 23 -40c19 0 24 17 24 40v226c0 26 -8 39 -24 39c-15 0 -23 -13 -23 -39z" />
    <glyph glyph-name="uni0431.loclalt" horiz-adv-x="392" 
d="M381 385v-224c0 -104 -61 -172 -172 -172h-25c-123 0 -172 73 -172 171v241c0 47 12 83 53 110c-31 21 -47 48 -47 95c0 75 46 123 142 123h124c32 0 52 4 64 8c7 3 13 5 16 8v-128c-3 -3 -9 -5 -16 -8c-12 -4 -32 -8 -64 -8h-80c-31 0 -46 -10 -46 -29s13 -28 32 -29
l32 -3c99 -8 159 -53 159 -155zM173 384v-226c0 -23 6 -40 23 -40c19 0 24 17 24 40v226c0 26 -8 39 -24 39c-15 0 -23 -13 -23 -39z" />
    <glyph glyph-name="uni0432" unicode="&#x432;" horiz-adv-x="390" 
d="M242 0h-228v538h220c103 0 135 -28 135 -108v-46c0 -56 -22 -82 -54 -93c34 -13 61 -31 61 -99v-65c0 -87 -27 -127 -134 -127zM174 334h14c15 0 23 11 23 32v36c0 19 -8 28 -23 28h-14v-96zM174 108h14c21 0 28 11 28 34v56c0 22 -9 33 -28 33h-14v-123z" />
    <glyph glyph-name="uni0432.bgr" horiz-adv-x="392" 
d="M11 157v430c0 95 55 163 172 163h28c109 0 161 -61 161 -153v-74c0 -51 -17 -88 -49 -103c35 -15 57 -49 57 -112v-151c0 -97 -63 -168 -172 -168h-23c-109 0 -174 57 -174 168zM170 602v-138h26c15 0 21 7 21 30v108c0 21 -7 31 -22 31h-2c-15 0 -23 -10 -23 -31z
M170 350v-207c0 -21 8 -31 25 -31s26 10 26 31v178c0 19 -9 29 -26 29h-25z" />
    <glyph glyph-name="uni0433" unicode="&#x433;" horiz-adv-x="282" 
d="M174 0h-160v538h263v-135h-103v-403z" />
    <glyph glyph-name="uni0433.bgr" horiz-adv-x="346" 
d="M342 191v-62c0 -93 -51 -140 -152 -140h-36c-97 0 -149 57 -149 148v18c0 65 19 105 82 152l80 59c19 15 23 24 23 45v14c0 15 -4 24 -19 24s-19 -9 -19 -24v-49h-139v43c0 81 47 130 143 130h35c96 0 145 -48 145 -132v-18c0 -55 -15 -100 -76 -143l-76 -56
c-20 -16 -26 -31 -26 -56v-16c0 -17 6 -26 19 -26h1c13 0 20 9 20 26v63h144z" />
    <glyph glyph-name="uni0433.locl" horiz-adv-x="282" 
d="M174 0h-160v538h263v-135h-103v-403z" />
    <glyph glyph-name="uni0434" unicode="&#x434;" horiz-adv-x="422" 
d="M140 -100h-140v235h20c5 3 11 18 14 49c5 43 4 118 4 354h344v-403h35v-235h-139v100h-138v-100zM169 178c-2 -17 -5 -31 -9 -43h64v270h-46c0 -96 -2 -174 -9 -227z" />
    <glyph glyph-name="uni0434.bgr" horiz-adv-x="393" 
d="M221 -55v114c-19 -29 -53 -69 -101 -69c-60 0 -105 45 -105 120v304c0 70 32 128 97 128h3c51 0 83 -36 108 -69v65h158v-595c0 -76 -48 -138 -167 -138h-31c-121 0 -161 49 -161 111v63h155v-36c0 -15 4 -22 20 -22h3c16 0 21 8 21 24zM221 136v255c0 15 -3 30 -22 30
s-22 -13 -22 -29v-256c0 -16 3 -30 22 -30c15 0 22 14 22 30z" />
    <glyph glyph-name="uni0434.locl" horiz-adv-x="422" 
d="M140 -100h-140v235h20c5 3 11 18 14 49c5 43 4 118 4 354h344v-403h35v-235h-139v100h-138v-100zM169 178c-2 -17 -5 -31 -9 -43h64v270h-46c0 -96 -2 -174 -9 -227z" />
    <glyph glyph-name="uni0435" unicode="&#x435;" horiz-adv-x="371" 
d="M174 549h31c96 0 158 -48 158 -160v-138h-195v-113c0 -20 7 -30 22 -30c16 0 21 11 21 30v76h152v-74c0 -97 -65 -151 -158 -151h-31c-99 0 -161 50 -161 154v246c0 93 51 160 161 160zM168 410v-61h45v61c0 23 -4 33 -23 33s-22 -10 -22 -33z" />
    <glyph glyph-name="uni0436" unicode="&#x436;" horiz-adv-x="577" 
d="M211 0v217l-61 -217h-156l89 287l-81 251h151l58 -209v209h155v-209l58 209h150l-80 -251l88 -287h-155l-61 217v-217h-155z" />
    <glyph glyph-name="uni0436.bgr" horiz-adv-x="577" 
d="M208 0v206l-58 -206h-156l89 287l-81 251h151l55 -198v404h161v-404l55 198h150l-80 -251l88 -287h-155l-58 206v-206h-161z" />
    <glyph glyph-name="uni0437" unicode="&#x437;" horiz-adv-x="370" 
d="M357 191v-54c0 -81 -45 -149 -166 -149h-26c-104 0 -155 60 -155 145v77h144v-72c0 -17 7 -26 22 -26s22 8 22 24v62c0 20 -10 30 -31 30h-67v116h67c20 0 28 5 28 32v26c0 20 -7 30 -20 30c-17 0 -21 -10 -21 -29v-42h-144v45c0 80 40 143 151 143h33
c113 0 155 -53 155 -137v-29c0 -56 -21 -82 -53 -93c34 -13 61 -32 61 -99z" />
    <glyph glyph-name="uni0437.bgr" horiz-adv-x="369" 
d="M357 132v-179c0 -80 -45 -148 -166 -148h-26c-104 0 -155 60 -155 145v163h144v-158c0 -17 7 -26 22 -26s22 8 22 24v179c0 20 -10 30 -31 30h-72v122h72c20 0 28 5 28 32v86c0 20 -7 30 -20 30c-17 0 -21 -10 -21 -29v-79h-144v82c0 80 40 143 151 143h33
c113 0 155 -52 155 -137v-89c0 -56 -18 -82 -53 -93c34 -13 61 -30 61 -98z" />
    <glyph glyph-name="uni0438" unicode="&#x438;" horiz-adv-x="400" 
d="M387 0h-156v253l-61 -253h-156v538h156v-254l61 254h156v-538z" />
    <glyph glyph-name="uni0438.bgr" horiz-adv-x="391" 
d="M379 538v-538h-157v69c-27 -39 -59 -73 -112 -73h-5c-64 0 -89 59 -89 101v441h161v-386c0 -15 5 -29 21 -29c19 0 22 14 22 31v384h159z" />
    <glyph glyph-name="uni0439" unicode="&#x439;" horiz-adv-x="400" 
d="M387 0h-156v253l-61 -253h-156v538h156v-254l61 254h156v-538zM204 559h-4c-76 0 -122 43 -122 119v12h99v-7c0 -23 8 -35 24 -35h1c17 0 25 12 25 35v7h97v-12c0 -76 -49 -119 -120 -119z" />
    <glyph glyph-name="uni043A" unicode="&#x43a;" horiz-adv-x="387" 
d="M237 0l-63 201v-201h-160v538h160v-197l60 197h151l-83 -251l91 -287h-156z" />
    <glyph glyph-name="uni043A.bgr" horiz-adv-x="387" 
d="M176 362l60 176h151l-84 -225l92 -313h-156l-63 222v-222h-160v744h160v-382z" />
    <glyph glyph-name="uni043B" unicode="&#x43b;" horiz-adv-x="399" 
d="M43 178c5 49 5 124 5 360h337v-538h-160v403h-35c0 -139 -2 -227 -9 -295c-8 -85 -53 -108 -140 -108h-38v133h8c23 0 29 14 32 45z" />
    <glyph glyph-name="uni043B.bgr" horiz-adv-x="364" 
d="M280 538l86 -538h-158l-29 328l-31 -328h-154l89 538h197z" />
    <glyph glyph-name="uni043C" unicode="&#x43c;" horiz-adv-x="484" 
d="M210 0l-56 313v-313h-140v538h193l42 -255l44 255h178v-538h-139v315l-56 -315h-66z" />
    <glyph glyph-name="uni043D" unicode="&#x43d;" horiz-adv-x="393" 
d="M174 0h-160v538h160v-200h45v200h160v-538h-160v203h-45v-203z" />
    <glyph glyph-name="uni043D.bgr" horiz-adv-x="393" 
d="M174 0h-160v538h160v-200h45v200h160v-538h-160v203h-45v-203z" />
    <glyph glyph-name="uni043E" unicode="&#x43e;" horiz-adv-x="392" 
d="M13 167v205c0 117 61 177 169 177h31c111 0 170 -60 170 -176v-205c0 -113 -65 -179 -170 -179h-32c-116 0 -168 65 -168 178zM174 390v-238c0 -20 4 -34 23 -34s24 14 24 34v238c0 20 -5 34 -24 34s-23 -14 -23 -34z" />
    <glyph glyph-name="uni043F" unicode="&#x43f;" horiz-adv-x="390" 
d="M174 0h-160v538h363v-538h-161v403h-42v-403z" />
    <glyph glyph-name="uni043F.bgr" horiz-adv-x="395" 
d="M16 0v538h158v-68c27 39 61 73 112 73h7c71 0 90 -64 90 -100v-443h-162v386c0 16 -4 29 -23 29s-22 -13 -22 -32v-383h-160z" />
    <glyph glyph-name="uni043F.locl" horiz-adv-x="390" 
d="M174 0h-160v538h363v-538h-161v403h-42v-403z" />
    <glyph glyph-name="uni0440" unicode="&#x440;" horiz-adv-x="393" 
d="M16 538h159v-66c32 47 62 73 109 73h3c67 0 95 -54 95 -130v-298c0 -76 -46 -128 -102 -128h-3c-43 0 -74 23 -101 62v-239h-160v726zM176 395v-258c0 -19 6 -32 21 -32c19 0 22 14 22 31v259c0 19 -5 30 -22 30s-21 -13 -21 -30z" />
    <glyph glyph-name="uni0441" unicode="&#x441;" horiz-adv-x="365" 
d="M212 241h145v-108c0 -83 -52 -145 -152 -145h-30c-105 0 -162 57 -162 157v240c0 93 44 164 161 164h33c112 0 150 -61 150 -143v-81h-144v78c0 19 -4 29 -21 29c-15 0 -18 -9 -18 -28v-265c0 -16 3 -27 18 -27c13 0 20 9 20 26v103z" />
    <glyph glyph-name="uni0442" unicode="&#x442;" horiz-adv-x="329" 
d="M84 0v403h-79v135h319v-135h-79v-403h-161z" />
    <glyph glyph-name="uni0442.bgr" horiz-adv-x="593" 
d="M16 0v538h158v-67c18 29 56 73 106 73h6c52 0 78 -35 89 -70c23 31 58 70 111 70h6c67 0 89 -56 89 -99v-445h-161v384c0 19 -2 31 -21 31c-15 0 -19 -9 -20 -24v-391h-162v384c0 19 -2 31 -21 31c-17 0 -20 -12 -20 -31v-384h-160z" />
    <glyph glyph-name="uni0442.locl" horiz-adv-x="329" 
d="M84 0v403h-79v135h319v-135h-79v-403h-161z" />
    <glyph glyph-name="uni0443" unicode="&#x443;" horiz-adv-x="365" 
d="M100 22l-102 516h158l33 -286l28 286h155l-123 -644c-12 -63 -46 -82 -81 -82h-141v136h57c15 0 18 6 19 22l1 13c1 11 0 19 -4 39z" />
    <glyph glyph-name="uni0444" unicode="&#x444;" horiz-adv-x="591" 
d="M410 -11h-35v-177h-160v177h-36c-116 0 -168 65 -168 178v205c0 117 61 177 169 177h35v195h160v-195h35c111 0 170 -60 170 -176v-205c0 -113 -65 -179 -170 -179zM195 118h20v306h-20c-19 0 -23 -14 -23 -34v-238c0 -20 4 -34 23 -34zM394 424h-19v-306h19
c20 0 25 14 25 34v238c0 20 -5 34 -25 34z" />
    <glyph glyph-name="uni0445" unicode="&#x445;" horiz-adv-x="364" 
d="M76 289l-73 249h154l29 -148l27 148h150l-70 -245l77 -293h-155l-32 163l-34 -163h-151z" />
    <glyph glyph-name="uni0446" unicode="&#x446;" horiz-adv-x="417" 
d="M412 135v-235h-140v100h-258v538h160v-403h42v403h161v-403h35z" />
    <glyph glyph-name="uni0446.bgr" horiz-adv-x="417" 
d="M412 -100h-139v100h-51v69c-27 -39 -59 -73 -112 -73h-5c-64 0 -89 59 -89 101v441h161v-386c0 -15 5 -29 21 -29c19 0 22 14 22 31v384h159v-403h33v-235z" />
    <glyph glyph-name="uni0447" unicode="&#x447;" horiz-adv-x="385" 
d="M169 538v-188c0 -19 8 -29 24 -29c4 0 11 1 18 4v213h160v-538h-160v200c-23 -9 -54 -13 -78 -13c-85 0 -124 44 -124 132v219h160z" />
    <glyph glyph-name="uni0447.bgr" horiz-adv-x="385" 
d="M169 538v-188c0 -19 8 -29 24 -29c4 0 11 1 18 4v213h160v-538h-160v200c-23 -9 -54 -13 -78 -13c-85 0 -124 44 -124 132v219h160z" />
    <glyph glyph-name="uni0448" unicode="&#x448;" horiz-adv-x="580" 
d="M14 0v538h160v-403h36v403h160v-403h36v403h160v-538h-552z" />
    <glyph glyph-name="uni0448.bgr" horiz-adv-x="593" 
d="M577 538v-538h-158v67c-18 -29 -56 -73 -106 -73h-6c-52 0 -78 35 -89 70c-23 -31 -58 -70 -111 -70h-6c-67 0 -89 56 -89 99v445h161v-384c0 -19 2 -31 21 -31c15 0 19 9 20 24v391h162v-384c0 -19 2 -31 21 -31c17 0 20 12 20 31v384h160z" />
    <glyph glyph-name="uni0449" unicode="&#x449;" horiz-adv-x="609" 
d="M14 0v538h160v-403h36v403h160v-403h36v403h160v-403h35v-235h-139v100h-448z" />
    <glyph glyph-name="uni0449.bgr" horiz-adv-x="620" 
d="M615 -100h-140v100h-56v67c-18 -29 -56 -73 -106 -73h-6c-52 0 -78 35 -89 70c-23 -31 -58 -70 -111 -70h-6c-67 0 -89 56 -89 99v445h161v-384c0 -19 2 -31 21 -31c15 0 19 9 20 24v391h162v-384c0 -19 2 -31 21 -31c17 0 20 12 20 31v384h160v-403h38v-235z" />
    <glyph glyph-name="uni044A" unicode="&#x44a;" horiz-adv-x="450" 
d="M301 0h-218v403h-78v135h238v-165h58c103 0 141 -42 141 -138v-93c0 -93 -37 -142 -141 -142zM243 261v-149h12c19 0 29 10 29 31v89c0 19 -10 29 -29 29h-12z" />
    <glyph glyph-name="uni044A.bgr" horiz-adv-x="461" 
d="M276 -11h-25c-119 0 -169 67 -169 172v242h-77v135h238v-170h25c124 0 182 -46 182 -154v-58c0 -100 -62 -167 -174 -167zM243 255v-103c0 -23 8 -35 23 -35c17 0 23 14 23 35v61c0 32 -6 42 -33 42h-13z" />
    <glyph glyph-name="uni044B" unicode="&#x44b;" horiz-adv-x="565" 
d="M232 0h-218v538h160v-165h58c103 0 141 -42 141 -138v-93c0 -93 -37 -142 -141 -142zM174 261v-149h12c19 0 29 10 29 31v89c0 19 -10 29 -29 29h-12zM554 538v-538h-160v538h160z" />
    <glyph glyph-name="uni044C" unicode="&#x44c;" horiz-adv-x="382" 
d="M232 0h-218v538h160v-165h58c103 0 141 -42 141 -138v-93c0 -93 -37 -142 -141 -142zM174 261v-149h12c19 0 29 10 29 31v89c0 19 -10 29 -29 29h-12z" />
    <glyph glyph-name="uni044C.bgr" horiz-adv-x="390" 
d="M205 -11h-25c-119 0 -169 67 -169 172v377h161v-170h25c124 0 182 -46 182 -154v-58c0 -100 -62 -167 -174 -167zM172 255v-103c0 -23 8 -35 23 -35c17 0 23 14 23 35v61c0 32 -6 42 -33 42h-13z" />
    <glyph glyph-name="uni044D" unicode="&#x44d;" horiz-adv-x="365" 
d="M353 385v-240c0 -100 -55 -157 -162 -157h-30c-100 0 -151 62 -151 145v77h144v-72c0 -17 7 -26 21 -26c15 0 18 11 18 27v89h-93v116h93v60c0 19 -4 28 -19 28c-16 0 -20 -10 -20 -29v-42h-144v45c0 82 38 143 151 143h33c116 0 159 -71 159 -164z" />
    <glyph glyph-name="uni044E" unicode="&#x44e;" horiz-adv-x="586" 
d="M575 373v-205c0 -113 -65 -179 -170 -179h-31c-117 0 -169 65 -169 178v36h-31v-203h-160v538h160v-200h31v34c0 117 61 177 169 177h32c109 0 169 -60 169 -176zM367 390v-238c0 -20 4 -34 23 -34s24 14 24 34v238c0 20 -5 34 -24 34s-23 -14 -23 -34z" />
    <glyph glyph-name="uni044E.bgr" horiz-adv-x="586" 
d="M575 373v-205c0 -113 -65 -179 -170 -179h-31c-117 0 -169 65 -169 178v36h-31v-203h-160v744h160v-406h31v34c0 117 61 177 169 177h32c109 0 169 -60 169 -176zM367 390v-238c0 -20 4 -34 23 -34s24 14 24 34v238c0 20 -5 34 -24 34s-23 -14 -23 -34z" />
    <glyph glyph-name="uni044F" unicode="&#x44f;" horiz-adv-x="389" 
d="M215 172h-9l-51 -172h-155l63 208c-33 17 -49 52 -49 104v89c0 90 33 137 135 137h226v-538h-160v172zM215 282v144h-13c-21 0 -28 -12 -28 -31v-84c0 -21 7 -29 28 -29h13z" />
    <glyph glyph-name="uni044F.alt" horiz-adv-x="389" 
d="M178 137v-76c0 -40 -6 -53 -11 -61h-158v5c5 11 11 24 11 55v88c0 41 13 64 32 76c-25 19 -38 51 -38 98v79c0 90 33 137 135 137h226v-538h-160v172h-13c-20 0 -24 -12 -24 -35zM215 282v144h-13c-21 0 -28 -12 -28 -31v-84c0 -21 7 -29 28 -29h13z" />
    <glyph glyph-name="uni0452" unicode="&#x452;" horiz-adv-x="395" 
d="M381 446v-553c0 -51 -35 -81 -80 -81h-144v141h45c12 0 17 4 17 19v415c0 15 -4 28 -23 28s-22 -12 -22 -31v-384h-160v575h-30v112h30v57h160v-57h78v-112h-78v-102c23 33 58 70 110 70h6c64 0 91 -53 91 -97z" />
    <glyph glyph-name="uni0453" unicode="&#x453;" horiz-adv-x="282" 
d="M174 0h-160v538h263v-135h-103v-403zM78 561l46 146h128l-50 -146h-124z" />
    <glyph glyph-name="uni0454" unicode="&#x454;" horiz-adv-x="365" 
d="M355 210v-77c0 -83 -53 -145 -152 -145h-30c-107 0 -162 57 -162 157v240c0 93 43 164 160 164h33c113 0 151 -61 151 -143v-45h-145v42c0 19 -4 29 -20 29c-15 0 -19 -9 -19 -28v-60h93v-116h-93v-89c0 -16 3 -27 18 -27c16 0 21 10 21 26v72h145z" />
    <glyph glyph-name="uni0455" unicode="&#x455;" horiz-adv-x="347" 
d="M336 438v-62h-140v49c0 15 -3 24 -18 24s-19 -9 -19 -24v-14c0 -20 3 -27 22 -42l80 -60c67 -48 83 -94 83 -154v-18c0 -91 -54 -148 -154 -148h-36c-97 0 -147 46 -147 127v75h143v-63c0 -17 7 -26 21 -26h1c12 0 18 9 18 26v16c0 24 -6 39 -26 54l-76 55
c-63 44 -75 91 -75 146v18c0 84 48 132 147 132h35c94 0 141 -37 141 -111z" />
    <glyph glyph-name="uni0456" unicode="&#x456;" horiz-adv-x="187" 
d="M176 538v-538h-160v538h160zM176 702v-141h-160v141h160z" />
    <glyph glyph-name="uni0457" unicode="&#x457;" horiz-adv-x="187" 
d="M89 702v-141h-93v141h93zM192 702v-141h-94v141h94zM176 538v-538h-160v538h160z" />
    <glyph glyph-name="uni0458" unicode="&#x458;" horiz-adv-x="188" 
d="M176 702v-141h-160v141h160zM-46 -47h45c12 0 17 4 17 19v566h160v-645c0 -51 -34 -81 -79 -81h-143v141z" />
    <glyph glyph-name="uni0458.short" horiz-adv-x="188" 
d="M176 702v-141h-160v141h160zM-24 -47h23c12 0 17 4 17 19v566h160v-645c0 -51 -34 -81 -79 -81h-121v141z" />
    <glyph glyph-name="uni0459" unicode="&#x459;" horiz-adv-x="596" 
d="M48 538h337v-160h59c101 0 140 -41 140 -137v-99c0 -93 -37 -142 -140 -142h-219v403h-35c0 -139 -2 -227 -9 -295c-8 -85 -53 -108 -140 -108h-38v133h8c23 0 29 14 32 45c5 49 5 124 5 360zM385 266v-154h13c19 0 29 10 29 31v94c0 19 -10 29 -29 29h-13z" />
    <glyph glyph-name="uni045A" unicode="&#x45a;" horiz-adv-x="587" 
d="M174 0h-160v538h160v-181h45v181h160v-181h58c105 0 141 -42 141 -135v-83c0 -91 -36 -139 -141 -139h-218v222h-45v-222zM379 245v-133h13c21 0 28 12 28 31v73c0 21 -7 29 -28 29h-13z" />
    <glyph glyph-name="uni045C" unicode="&#x45c;" horiz-adv-x="387" 
d="M141 561l46 146h128l-50 -146h-124zM237 0l-63 201v-201h-160v538h160v-197l60 197h151l-83 -251l91 -287h-156z" />
    <glyph glyph-name="uni045E" unicode="&#x45e;" horiz-adv-x="365" 
d="M100 22l-102 516h158l33 -286l28 286h155l-123 -644c-12 -63 -46 -82 -81 -82h-141v136h57c15 0 18 6 19 22l1 13c1 11 0 19 -4 39zM192 559h-4c-76 0 -122 43 -122 119v12h99v-7c0 -23 8 -35 24 -35h1c17 0 25 12 25 35v7h97v-12c0 -76 -49 -119 -120 -119z" />
    <glyph glyph-name="uni045F" unicode="&#x45f;" horiz-adv-x="390" 
d="M377 0h-112v-100h-140v100h-111v538h160v-403h42v403h161v-538z" />
    <glyph glyph-name="uni0490" unicode="&#x490;" horiz-adv-x="332" 
d="M18 0v744h165v117h140v-271h-142v-590h-163z" />
    <glyph glyph-name="uni0491" unicode="&#x491;" horiz-adv-x="282" 
d="M174 0h-160v538h129v100h134v-235h-103v-403z" />
    <glyph glyph-name="uni0492" unicode="&#x492;" horiz-adv-x="337" 
d="M23 457v287h305v-154h-142v-133h65v-143h-65v-314h-163v314h-24v143h24z" />
    <glyph glyph-name="uni0493" unicode="&#x493;" horiz-adv-x="294" 
d="M185 0h-160v195h-25v116h25v227h263v-135h-103v-92h62v-116h-62v-195z" />
    <glyph glyph-name="uni0496" unicode="&#x496;" horiz-adv-x="646" 
d="M644 -105h-141v105h-39l-69 310v-310h-160v313l-69 -313h-170l101 404l-99 340h165l72 -278v278h160v-277l71 277h164l-97 -332l63 -255h48v-262z" />
    <glyph glyph-name="uni0497" unicode="&#x497;" horiz-adv-x="587" 
d="M587 -100h-134v100h-26l-61 217v-217h-155v217l-61 -217h-156l89 287l-81 251h151l58 -209v209h155v-209l58 209h150l-80 -251l46 -152h47v-235z" />
    <glyph glyph-name="uni049A" unicode="&#x49a;" horiz-adv-x="432" 
d="M429 -105h-141v105h-33l-74 297v-297h-165v744h165v-264l77 264h164l-101 -331l66 -256h42v-262z" />
    <glyph glyph-name="uni049B" unicode="&#x49b;" horiz-adv-x="398" 
d="M398 -100h-135v100h-26l-63 201v-201h-160v538h160v-197l60 197h151l-83 -251l48 -152h48v-235z" />
    <glyph glyph-name="uni04A2" unicode="&#x4a2;" horiz-adv-x="446" 
d="M441 -105h-141v105h-62v300h-57v-300h-165v744h165v-270h57v270h165v-587h38v-262z" />
    <glyph glyph-name="uni04A3" unicode="&#x4a3;" horiz-adv-x="419" 
d="M414 -100h-134v100h-61v203h-45v-203h-160v538h160v-200h45v200h160v-403h35v-235z" />
    <glyph glyph-name="uni04AE" unicode="&#x4ae;" horiz-adv-x="378" 
d="M387 744l-109 -463v-281h-164v278l-120 466h165l41 -245l39 245h148z" />
    <glyph glyph-name="uni04AF" unicode="&#x4af;" horiz-adv-x="364" 
d="M260 0v-188h-160v188l-104 538h153l35 -333l34 333h150z" />
    <glyph glyph-name="uni04B0" unicode="&#x4b0;" horiz-adv-x="378" 
d="M114 198h-72v141h56l-104 405h165l41 -245l39 245h148l-96 -405h55v-141h-68v-198h-164v198z" />
    <glyph glyph-name="uni04B1" unicode="&#x4b1;" horiz-adv-x="364" 
d="M260 -112v-76h-160v76h-60v112h60l-104 538h153l35 -333l34 333h150l-108 -538h60v-112h-60z" />
    <glyph glyph-name="uni04B2" unicode="&#x4b2;" horiz-adv-x="420" 
d="M418 -105h-141v105h-29l-44 251l-46 -251h-161l89 398l-80 346h167l35 -218l34 218h157l-76 -346l55 -241h40v-262z" />
    <glyph glyph-name="uni04B3" unicode="&#x4b3;" horiz-adv-x="374" 
d="M374 -100h-135v100h-24l-32 163l-34 -163h-151l78 289l-73 249h154l29 -148l27 148h150l-70 -245l41 -158h40v-235z" />
    <glyph glyph-name="uni04BA" unicode="&#x4ba;" horiz-adv-x="415" 
d="M16 744h165v-300c19 7 46 10 70 10h4c100 0 147 -49 147 -146v-308h-164v265c0 35 -9 42 -32 42h-2c-11 0 -18 -1 -23 -4v-303h-165v744z" />
    <glyph glyph-name="uni04BB" unicode="&#x4bb;" horiz-adv-x="395" 
d="M16 0v744h160v-272c23 35 58 71 110 71h6c64 0 91 -53 91 -97v-446h-162v387c0 15 -4 28 -23 28s-22 -12 -22 -31v-384h-160z" />
    <glyph glyph-name="uni04C0" unicode="&#x4c0;" horiz-adv-x="197" 
d="M183 744v-744h-165v744h165z" />
    <glyph glyph-name="uni04CF" unicode="&#x4cf;" horiz-adv-x="187" 
d="M176 744v-744h-160v744h160z" />
    <glyph glyph-name="uni04D8" unicode="&#x4d8;" horiz-adv-x="416" 
d="M14 171v284h216v118c0 27 -6 37 -26 37c-23 0 -28 -13 -28 -37v-81h-162v88c0 98 44 174 176 174h30c133 0 182 -84 182 -191v-378c0 -115 -44 -197 -183 -197h-30c-129 0 -175 90 -175 183zM176 310v-134c0 -23 6 -39 27 -39c20 0 27 14 27 39v134h-54z" />
    <glyph glyph-name="uni04D9" unicode="&#x4d9;" horiz-adv-x="370" 
d="M360 393v-246c0 -95 -51 -160 -162 -160h-30c-97 0 -158 48 -158 160v148h195v103c0 20 -7 30 -22 30c-17 0 -21 -11 -21 -30v-66h-152v64c0 97 63 151 158 151h30c100 0 162 -50 162 -154zM182 93c20 0 23 10 23 33v71h-45v-71c0 -23 3 -33 22 -33z" />
    <glyph glyph-name="uni04E8" unicode="&#x4e8;" horiz-adv-x="433" 
d="M420 544v-353c0 -129 -71 -202 -184 -202h-36c-121 0 -186 73 -186 202v353c0 128 54 210 185 210h36c132 0 185 -83 185 -210zM184 569v-115h66v115c0 29 -9 44 -33 44c-25 0 -33 -13 -33 -44zM184 311v-139c0 -23 9 -39 34 -39c23 0 32 16 32 39v139h-66z" />
    <glyph glyph-name="uni04E9" unicode="&#x4e9;" horiz-adv-x="397" 
d="M216 -11h-37c-116 0 -168 65 -168 178v205c0 117 61 177 169 177h36c111 0 170 -60 170 -176v-205c0 -113 -65 -179 -170 -179zM171 393v-65h55v65c0 21 -9 36 -28 36c-20 0 -27 -15 -27 -36zM171 213v-64c0 -21 8 -36 27 -36c20 0 28 15 28 36v64h-55z" />
    <glyph glyph-name="uni2009" unicode="&#x2009;" horiz-adv-x="8" 
 />
    <glyph glyph-name="uni20B4" unicode="&#x20b4;" horiz-adv-x="419" 
d="M414 489v-89h-409v89h184l9 8c29 27 36 45 36 76v19c0 21 -6 33 -25 33s-24 -12 -24 -32v-80h-159v89c0 93 42 152 165 152h36c117 0 175 -59 175 -151v-15c0 -45 -16 -80 -31 -99h43zM408 264v-110c0 -109 -58 -164 -173 -164h-36c-127 0 -184 76 -184 186v14
c0 45 17 80 28 97h-38v91h409v-91h-186c-33 -33 -37 -50 -37 -92v-20c0 -29 9 -44 27 -44c21 0 28 14 28 39v94h162z" />
    <glyph glyph-name="uni20B8" unicode="&#x20b8;" horiz-adv-x="374" 
d="M7 655v89h359v-89h-359zM366 479h-97v-479h-165v479h-97v154h359v-154z" />
    <glyph glyph-name="uni20BD" unicode="&#x20bd;" horiz-adv-x="444" 
d="M434 594v-153c0 -99 -49 -154 -136 -154h-78v-22h157v-90h-157v-175h-165v175h-55v90h55v22h-55v89h55v368h239c99 0 140 -50 140 -150zM220 614v-205h20c24 0 28 13 28 36v132c0 23 -3 37 -28 37h-20z" />
    <glyph glyph-name="uni2116" unicode="&#x2116;" horiz-adv-x="710" 
d="M575 401h-23c-71 0 -122 39 -122 111v125c0 72 49 112 122 112h23c75 0 120 -40 120 -112v-125c0 -67 -44 -111 -120 -111zM561 491c15 0 21 10 21 23v122c0 13 -6 23 -21 23c-12 0 -18 -10 -18 -23v-122c0 -13 6 -23 18 -23zM435 272v103h252v-103h-252zM18 744h160
l85 -360v360h141v-744h-145l-98 388v-388h-143v744z" />
    <glyph glyph-name="f_b" horiz-adv-x="681" 
d="M306 744h160v-270c19 24 54 69 106 69h6c60 0 92 -53 92 -113v-309c0 -64 -45 -131 -108 -131h-3c-55 0 -87 38 -114 81c-5 -19 -13 -60 -13 -71h-126v744zM466 392v-251c0 -16 4 -30 20 -30c17 0 22 13 22 29v252c0 20 -7 30 -22 30c-17 0 -20 -15 -20 -30zM285 744
v-129h-40c-16 0 -19 -5 -19 -20v-57h59v-135h-59v-403h-160v403h-60v135h60v118c0 52 37 88 92 88h127z" />
    <glyph glyph-name="f_h" horiz-adv-x="685" 
d="M306 0v744h160v-272c23 35 58 71 110 71h6c64 0 91 -53 91 -97v-446h-162v387c0 15 -4 28 -23 28s-22 -12 -22 -31v-384h-160zM285 744v-129h-40c-16 0 -19 -5 -19 -20v-57h59v-135h-59v-403h-160v403h-60v135h60v118c0 52 37 88 92 88h127z" />
    <glyph glyph-name="f_j" horiz-adv-x="478" 
d="M466 702v-141h-160v141h160zM244 -47h45c12 0 17 4 17 19v566h160v-645c0 -51 -34 -81 -79 -81h-143v141zM285 744v-129h-40c-16 0 -19 -5 -19 -20v-57h59v-135h-59v-403h-160v403h-60v135h60v118c0 52 37 88 92 88h127z" />
    <glyph glyph-name="f_k" horiz-adv-x="677" 
d="M466 362l60 176h151l-84 -225l92 -313h-156l-63 222v-222h-160v744h160v-382zM285 744v-129h-40c-16 0 -19 -5 -19 -20v-57h59v-135h-59v-403h-160v403h-60v135h60v118c0 52 37 88 92 88h127z" />
    <glyph glyph-name="f_f_b" horiz-adv-x="916" 
d="M541 744h160v-270c19 24 54 69 106 69h6c60 0 92 -53 92 -113v-309c0 -64 -45 -131 -108 -131h-3c-55 0 -87 38 -114 81c-5 -19 -13 -60 -13 -71h-126v744zM701 392v-251c0 -16 4 -30 20 -30c17 0 22 13 22 29v252c0 20 -7 30 -22 30c-17 0 -20 -15 -20 -30zM286 744
v-129h-41c-16 0 -19 -5 -19 -20v-57h76v118c0 52 36 88 92 88h127v-129h-41c-15 0 -18 -5 -18 -20v-57h58v-135h-58v-403h-160v403h-76v-403h-160v403h-60v135h60v118c0 52 37 88 92 88h128z" />
    <glyph glyph-name="f_f_h" horiz-adv-x="920" 
d="M541 0v744h160v-272c23 35 58 71 110 71h6c64 0 91 -53 91 -97v-446h-162v387c0 15 -4 28 -23 28s-22 -12 -22 -31v-384h-160zM286 744v-129h-41c-16 0 -19 -5 -19 -20v-57h76v118c0 52 36 88 92 88h127v-129h-41c-15 0 -18 -5 -18 -20v-57h58v-135h-58v-403h-160v403
h-76v-403h-160v403h-60v135h60v118c0 52 37 88 92 88h128z" />
    <glyph glyph-name="f_f_k" horiz-adv-x="913" 
d="M701 362l60 176h151l-84 -225l92 -313h-156l-63 222v-222h-160v744h160v-382zM286 744v-129h-41c-16 0 -19 -5 -19 -20v-57h76v118c0 52 36 88 92 88h127v-129h-41c-15 0 -18 -5 -18 -20v-57h58v-135h-58v-403h-160v403h-76v-403h-160v403h-60v135h60v118
c0 52 37 88 92 88h128z" />
    <glyph glyph-name="f_f_j" horiz-adv-x="714" 
d="M701 702v-141h-160v141h160zM479 -47h45c12 0 17 4 17 19v566h160v-645c0 -51 -34 -81 -79 -81h-143v141zM286 744v-129h-41c-16 0 -19 -5 -19 -20v-57h76v118c0 52 36 88 92 88h127v-129h-41c-15 0 -18 -5 -18 -20v-57h58v-135h-58v-403h-160v403h-76v-403h-160v403h-60
v135h60v118c0 52 37 88 92 88h128z" />
    <glyph glyph-name="f_f_l" unicode="&#xfb04;" horiz-adv-x="713" 
d="M286 744v-129h-41c-16 0 -19 -5 -19 -20v-57h76v118c0 52 36 88 92 88h127v-129h-41c-15 0 -18 -5 -18 -20v-57h58v-135h-58v-403h-160v403h-76v-403h-160v403h-60v135h60v118c0 52 37 88 92 88h128zM701 744v-744h-160v744h160z" />
    <glyph glyph-name="f_f_i" unicode="&#xfb03;" horiz-adv-x="713" 
d="M701 538v-538h-160v538h160zM701 702v-141h-160v141h160zM286 744v-129h-41c-16 0 -19 -5 -19 -20v-57h76v118c0 52 36 88 92 88h127v-129h-41c-15 0 -18 -5 -18 -20v-57h58v-135h-58v-403h-160v403h-76v-403h-160v403h-60v135h60v118c0 52 37 88 92 88h128z" />
    <glyph glyph-name="uni0401" unicode="&#x401;" 
d="M18 744h309v-154h-146v-127h117v-158h-117v-148h152v-157h-315v744zM304 885v-118h-118v118h118zM162 885v-118h-118v118h118z" />
    <glyph glyph-name="uni0401.alt" 
d="M18 744h307v-154h-142v-127h137v-157h-137v-149h146v-157h-311v744zM304 885v-118h-118v118h118zM162 885v-118h-118v118h118z" />
    <glyph glyph-name="uni0407" unicode="&#x407;" horiz-adv-x="201" 
d="M183 744v-744h-165v744h165zM231 885v-118h-118v118h118zM89 885v-118h-118v118h118z" />
    <glyph glyph-name="uni0439.bgr" horiz-adv-x="395" 
d="M379 538v-538h-157v69c-27 -39 -59 -73 -112 -73h-5c-64 0 -89 59 -89 101v441h161v-386c0 -15 5 -29 21 -29c19 0 22 14 22 31v384h159zM200 559h-4c-76 0 -122 43 -122 119v12h99v-7c0 -23 8 -35 24 -35h1c17 0 25 12 25 35v7h97v-12c0 -76 -49 -119 -120 -119z" />
    <glyph glyph-name="uni0451" unicode="&#x451;" horiz-adv-x="375" 
d="M174 549h31c96 0 158 -48 158 -160v-138h-195v-113c0 -20 7 -30 22 -30c16 0 21 11 21 30v76h152v-74c0 -97 -65 -151 -158 -151h-31c-99 0 -161 50 -161 154v246c0 93 51 160 161 160zM168 410v-61h45v61c0 23 -4 33 -23 33s-22 -10 -22 -33zM176 684v-119h-118v119h118
zM318 684v-119h-118v119h118z" />
    <glyph glyph-name="uni045B" unicode="&#x45b;" horiz-adv-x="399" 
d="M-14 575v112h30v57h160v-57h78v-112h-78v-103c23 35 58 71 110 71h6c64 0 91 -53 91 -97v-446h-162v387c0 15 -4 28 -23 28s-22 -12 -22 -31v-384h-160v575h-30z" />
    </font>
</defs>
</svg>
