<svg width="251" height="217" viewBox="0 0 251 217" fill="none" xmlns="http://www.w3.org/2000/svg">
<path fill-rule="evenodd" clip-rule="evenodd" d="M151.463 164.53C150.76 163.494 151.061 162.09 152.098 161.388C153.403 160.519 154.976 160.185 156.515 160.118C158.087 160.052 159.794 160.219 161.534 160.586C164.98 161.322 168.694 162.826 171.772 164.73C174.749 166.602 177.593 169.109 178.564 172.116C179.099 173.721 179.099 175.425 178.329 177.096C177.66 178.567 176.489 179.803 174.917 180.873C174.816 181.942 174.448 183.045 173.679 184.048C172.307 185.886 169.931 187.055 166.753 187.724C165.515 187.991 164.311 187.189 164.043 185.986C163.775 184.749 164.578 183.546 165.783 183.279C168.459 182.711 169.597 181.875 170.032 181.307C170.366 180.839 170.5 180.271 170.199 179.369C169.898 178.433 169.195 177.33 168.192 176.294C167.221 175.258 166.084 174.456 165.18 174.021C164.043 173.487 163.575 172.116 164.143 170.98C164.679 169.844 166.05 169.376 167.188 169.944C168.627 170.646 170.166 171.816 171.471 173.152C172.274 173.988 173.043 174.924 173.645 175.993C173.913 175.692 174.08 175.425 174.181 175.191C174.415 174.69 174.448 174.155 174.248 173.52C173.779 172.083 172.106 170.278 169.363 168.574C166.72 166.936 163.508 165.633 160.597 165.031C159.158 164.73 157.82 164.597 156.749 164.664C155.645 164.73 154.976 164.964 154.608 165.198C153.571 165.867 152.165 165.599 151.463 164.53Z" fill="black"/>
<path fill-rule="evenodd" clip-rule="evenodd" d="M202.487 148.688C203.49 147.619 205.163 147.552 206.234 148.521C207.706 149.858 209.513 151.629 211.085 153.534C212.658 155.439 214.163 157.711 214.899 160.151L215.669 162.691L210.55 164.195L209.78 161.655C209.345 160.218 208.342 158.614 206.97 156.909C205.598 155.272 204.026 153.701 202.62 152.431C201.583 151.428 201.516 149.757 202.487 148.688Z" fill="black"/>
<path fill-rule="evenodd" clip-rule="evenodd" d="M161.869 150.76C160.53 150.125 158.958 150.66 158.322 151.997C157.185 154.303 156.449 155.639 155.713 156.976C155.244 157.812 154.809 158.647 154.24 159.683L153.002 162.056L157.72 164.496L158.958 162.123C159.393 161.321 159.794 160.552 160.263 159.717C161.066 158.246 161.969 156.642 163.107 154.269C163.742 152.966 163.174 151.395 161.869 150.76Z" fill="black"/>
<path fill-rule="evenodd" clip-rule="evenodd" d="M151.162 188.727C149.69 188.626 148.419 189.729 148.318 191.166C148.084 194.341 148.352 196.714 148.72 198.352C148.887 199.187 149.121 199.822 149.289 200.29C149.389 200.524 149.456 200.691 149.523 200.858C149.556 200.925 149.59 200.992 149.623 201.025C149.623 201.059 149.657 201.059 149.657 201.092V201.126C149.657 201.126 149.657 201.126 151.999 199.856L149.657 201.126L150.928 203.465L155.612 200.925L154.374 198.619C154.374 198.586 154.341 198.519 154.274 198.419C154.174 198.185 154.073 197.784 153.939 197.215C153.672 196.079 153.437 194.208 153.638 191.567C153.739 190.097 152.634 188.827 151.162 188.727Z" fill="black"/>
<path fill-rule="evenodd" clip-rule="evenodd" d="M170.668 182.377C169.229 182.143 167.857 183.145 167.623 184.582C166.853 189.462 166.853 193.372 167.054 196.113C167.155 197.483 167.288 198.552 167.422 199.288C167.489 199.655 167.556 199.956 167.59 200.156C167.623 200.257 167.623 200.357 167.656 200.39C167.656 200.424 167.656 200.457 167.69 200.457V200.491C167.69 200.491 167.69 200.491 170.233 199.822L167.69 200.491C168.058 201.928 169.497 202.763 170.935 202.396C172.341 202.028 173.21 200.591 172.842 199.154C172.842 199.154 172.842 199.154 172.842 199.12C172.842 199.087 172.809 199.054 172.809 198.987C172.775 198.853 172.742 198.653 172.675 198.352C172.575 197.75 172.441 196.848 172.374 195.678C172.207 193.305 172.207 189.796 172.876 185.318C173.11 183.947 172.106 182.611 170.668 182.377Z" fill="black"/>
<path fill-rule="evenodd" clip-rule="evenodd" d="M124.496 167.102C123.191 167.771 122.656 169.375 123.325 170.678C126.269 176.46 129.113 180.237 131.857 182.476C134.667 184.782 137.444 185.584 140.02 185.216C142.496 184.849 144.303 183.512 145.441 182.409C146.009 181.841 146.444 181.306 146.745 180.905C146.913 180.705 147.013 180.537 147.114 180.404C147.147 180.337 147.18 180.27 147.214 180.237C147.214 180.203 147.247 180.203 147.247 180.17C147.247 180.17 147.247 180.17 144.972 178.8L147.247 180.136C147.983 178.866 147.582 177.229 146.311 176.494C145.039 175.758 143.433 176.159 142.664 177.429C142.664 177.429 142.664 177.463 142.63 177.463C142.597 177.53 142.53 177.596 142.463 177.73C142.296 177.964 142.028 178.265 141.693 178.599C140.991 179.267 140.154 179.802 139.217 179.936C138.415 180.036 137.076 179.902 135.203 178.365C133.262 176.761 130.82 173.72 128.043 168.272C127.407 166.935 125.801 166.434 124.496 167.102Z" fill="black"/>
<path fill-rule="evenodd" clip-rule="evenodd" d="M178.296 156.242C177.091 155.406 175.418 155.74 174.615 156.943C172.842 159.584 171.704 161.656 171.002 163.093C170.667 163.828 170.433 164.363 170.266 164.764C170.199 164.964 170.132 165.132 170.098 165.232C170.065 165.299 170.065 165.332 170.065 165.365C170.065 165.399 170.065 165.399 170.065 165.399C170.065 165.399 170.065 165.399 170.065 165.432C170.065 165.432 170.065 165.432 172.574 166.168L170.065 165.432L169.295 167.972L174.381 169.476L175.151 166.936V166.903C175.184 166.836 175.217 166.769 175.251 166.635C175.351 166.368 175.552 165.934 175.82 165.332C176.388 164.129 177.392 162.291 179.032 159.851C179.835 158.715 179.5 157.077 178.296 156.242Z" fill="black"/>
<path fill-rule="evenodd" clip-rule="evenodd" d="M218.913 187.289C220.385 187.289 221.59 188.492 221.59 189.963C221.59 194.207 221.59 196.146 221.59 198.151V200.824H216.27V198.151C216.27 196.112 216.27 194.174 216.27 189.963C216.27 188.492 217.474 187.289 218.913 187.289Z" fill="black"/>
<path fill-rule="evenodd" clip-rule="evenodd" d="M195.46 168.574C192.382 161.89 188.601 159.317 186.56 158.882L187.999 155.373C192.415 156.342 197.099 158.749 200.545 166.268C204.058 173.888 206.3 185.117 205.263 200.725L199.675 200.357C200.646 185.385 198.471 175.125 195.46 168.574Z" fill="black"/>
<path fill-rule="evenodd" clip-rule="evenodd" d="M85.3171 200.858C57.7479 172.517 62.3651 158.414 64.1718 146.349L69.1235 148.956C67.8187 158.414 63.2015 170.078 89.332 196.948C90.4027 198.051 90.3692 199.822 89.2651 200.892C88.161 201.961 86.3877 201.961 85.3171 200.858Z" fill="black"/>
<path fill-rule="evenodd" clip-rule="evenodd" d="M198.17 205.303C195.995 207.476 195.058 210.183 195.828 213.19L191.779 214.26C190.541 209.581 192.181 205.403 195.192 202.362C198.17 199.354 202.486 197.383 207.069 196.781C211.653 196.179 216.605 196.915 220.854 199.555C225.137 202.229 228.482 206.707 229.888 213.291L225.806 214.16C224.601 208.578 221.858 205.103 218.646 203.097C215.367 201.059 211.419 200.424 207.638 200.925C203.824 201.46 200.378 203.097 198.17 205.303Z" fill="black"/>
<path fill-rule="evenodd" clip-rule="evenodd" d="M150.425 205.837C148.251 208.01 147.314 210.717 148.083 213.725L143.466 214.293C142.228 209.614 143.868 205.436 146.879 202.395C149.857 199.387 154.173 197.415 158.756 196.814C163.34 196.212 168.292 196.948 172.541 199.588C176.824 202.261 179.667 206.74 181.106 213.324L176.054 214.193C174.85 208.611 173.21 205.871 169.998 203.832C166.719 201.794 163.106 201.092 159.325 201.593C155.477 202.128 152.634 203.598 150.425 205.837Z" fill="black"/>
<path d="M132.224 152.498C122.354 159.115 116.666 154.637 118.975 145.312L112.283 147.117C114.625 164.663 123.391 162.09 132.224 158.413V152.498Z" fill="black"/>
<path d="M97.0609 150.961L102.381 150.092C103.05 170.512 121.15 170.278 127.139 168.307L128.177 173.386C112.284 177.798 96.2914 167.672 97.0609 150.961Z" fill="black"/>
<path d="M39.0445 33.1865L38.3753 36.8294C16.1259 32.4513 37.5054 15.4402 47.9443 27.2711L42.3234 28.4742C33.1225 24.5306 31.1485 33.1865 39.0445 33.1865Z" fill="black"/>
<path d="M54.7371 31.6155C55.7408 32.7518 54.9044 34.0886 54.3356 34.6233H49.6181C52.2278 31.6155 44.0306 29.5768 42.3577 31.2144C39.2461 34.2223 40.3168 37.5309 42.893 38.1994V42.4438C32.9895 40.8396 35.5323 33.0192 36.5695 31.2479C42.9265 23.1935 50.7556 26.569 54.7371 31.6155Z" fill="black"/>
<path d="M38.61 57.4829C35.6657 55.0098 39.4799 52.2025 41.7215 53.2385C54.034 59.0871 51.9931 48.2589 48.4465 46.3205C46.4391 45.251 46.7736 47.2562 47.4428 47.9246C49.0488 51.768 43.5282 52.0354 42.7922 49.9299C38.9111 38.5 50.0525 40.004 53.0637 44.4155C63.8036 58.0177 46.7402 64.3342 38.61 57.4829Z" fill="black"/>
<path d="M30.613 52.3029C33.2227 53.6732 35.6317 50.5316 34.193 48.9274C25.7616 43.7138 29.4754 38.2997 32.4532 35.4589C33.758 33.2532 30.7803 31.9498 29.4085 32.9524C19.4716 40.071 26.0627 48.8272 30.613 52.3029Z" fill="black"/>
<path d="M52.1936 45.9206L54.636 50.1316C62.7997 42.378 59.3536 34.6913 54.636 33.3545C42.3905 29.8787 40.8514 40.0386 42.3905 45.2856L46.1378 42.378C45.3682 35.9279 52.1936 36.2621 53.2308 36.7634C57.6807 39.0026 55.3387 44.283 52.1936 45.9206Z" fill="black"/>
<path d="M112.017 211.786C95.2876 188.392 82.1722 169.81 86.4214 149.892L80.9677 147.051C75.5141 176.862 99.403 200.19 105.827 211.82H112.017V211.786Z" fill="black"/>
<path d="M62.3984 212.254H68.287C69.09 197.916 83.0753 197.382 86.3207 200.356C91.8747 199.053 86.6888 196.747 84.3467 195.41C67.919 191.366 62.8668 204.968 62.3984 212.254Z" fill="black"/>
<path d="M113.79 42.0094L118.206 45.8193C129.147 37.6981 133.362 22.8928 134.165 17.3784L129.046 15.8076C126.002 29.6772 118.139 39.4694 113.79 42.0094Z" fill="black"/>
<path d="M164.611 63.4324L168.86 60.057C162.068 25.7674 138.481 20.0191 133.429 17.6128L130.752 23.0938C133.83 24.3638 157.418 27.1711 164.611 63.4324Z" fill="black"/>
<path d="M86.3877 51.3002C99.4028 18.0801 131.756 40.2714 124.396 59.622L118.239 57.7838C121.05 38.0991 97.2949 34.2223 92.912 52.5034L86.3877 51.3002Z" fill="black"/>
<path d="M155.143 77.4694C159.358 42.0435 195.593 54.7434 193.318 75.3305L187.597 75.7315C185.355 55.9799 161.399 58.2191 161.734 77.0015L155.143 77.4694Z" fill="black"/>
<path d="M51.4909 104.339C10.2709 99.9942 23.9551 67.3757 32.353 51.4007L27.5351 48.0586C1.03659 97.5545 32.0854 109.285 52.528 108.817L51.4909 104.339Z" fill="black"/>
<path d="M218.211 126.831C257.524 132.814 244.743 158.08 233.802 171.949L237.583 175.325C264.583 145.012 247.118 124.024 218.679 121.551L218.211 126.831Z" fill="black"/>
<path d="M51.1225 91.0046V97.5216C20.2411 90.0354 31.8509 65.9057 40.1484 55.0106C42.2562 52.6712 44.6652 55.3782 43.7284 57.3835C29.3416 82.5158 42.2228 88.3644 51.1225 91.0046Z" fill="black"/>
<path d="M145.005 174.856C130.451 163.259 135.704 143.508 144.269 127.633L139.485 124.224C127.239 149.423 125.7 170.177 144.972 179.635V174.856H145.005Z" fill="black"/>
<path d="M156.549 161.321L153.237 164.73C145.24 162.825 139.485 155.338 147.582 141.669C149.69 139.33 152.735 142.037 151.764 144.042C145.842 153.333 147.683 158.58 156.549 161.321Z" fill="black"/>
<path d="M215.334 138.161L216.773 132.98C234.539 134.952 232.866 151.262 225.773 160.486C223.866 162.992 221.223 160.452 222.026 158.38C230.055 142.305 223.531 138.161 215.334 138.161Z" fill="black"/>
<path d="M235.642 205.805C235.04 208.044 232.23 207.91 231.862 205.805C231.661 203.031 228.683 199.555 226.642 198.486C224.601 196.881 226.241 195.077 227.88 195.311C232.464 195.946 236.378 203.098 235.642 205.805Z" fill="black"/>
<path fill-rule="evenodd" clip-rule="evenodd" d="M233.635 207.442C232.799 207.408 231.996 206.84 231.795 205.804C231.695 204.434 230.892 202.863 229.888 201.526C228.851 200.19 227.613 199.053 226.609 198.519C226.107 198.117 225.806 197.716 225.706 197.315C225.605 196.914 225.672 196.547 225.84 196.246C226.208 195.611 227.044 195.21 227.847 195.344C230.156 195.644 232.297 197.616 233.736 199.822C234.472 200.925 235.041 202.095 235.375 203.164C235.71 204.233 235.81 205.169 235.643 205.871C235.342 206.941 234.472 207.442 233.635 207.442ZM233.635 207.408C234.438 207.442 235.308 206.907 235.609 205.804C235.777 205.136 235.676 204.2 235.342 203.131C235.007 202.061 234.438 200.891 233.736 199.822C232.264 197.616 230.156 195.678 227.847 195.377C227.044 195.277 226.208 195.644 225.873 196.279C225.706 196.58 225.639 196.948 225.739 197.349C225.84 197.716 226.107 198.151 226.643 198.519C227.646 199.053 228.918 200.19 229.922 201.526C230.959 202.863 231.728 204.434 231.829 205.838C232.029 206.84 232.832 207.375 233.635 207.408Z" fill="black"/>
<path d="M56.1085 201.325C56.7107 203.565 59.5212 203.431 59.8892 201.325C60.09 198.552 63.0677 195.076 65.1086 194.006C67.1496 192.402 65.5101 190.597 63.8707 190.831C59.287 191.466 55.3724 198.652 56.1085 201.325Z" fill="black"/>
<path fill-rule="evenodd" clip-rule="evenodd" d="M58.1157 202.964C58.9522 202.93 59.7552 202.362 59.9559 201.326C60.0563 199.956 60.8593 198.385 61.863 197.048C62.9002 195.712 64.1381 194.575 65.1419 194.04C65.6437 193.639 65.9449 193.238 66.0452 192.837C66.1456 192.436 66.0787 192.069 65.9114 191.768C65.5434 191.133 64.7069 190.732 63.9039 190.866C61.5954 191.166 59.4541 193.138 58.0154 195.344C57.2793 196.447 56.7105 197.616 56.3759 198.686C56.0414 199.755 55.941 200.691 56.1083 201.393C56.4094 202.462 57.2793 202.997 58.1157 202.964ZM58.1157 202.93C57.3128 202.964 56.4429 202.429 56.1417 201.326C55.9744 200.658 56.0748 199.722 56.4094 198.653C56.744 197.583 57.3128 196.413 58.0154 195.344C59.4875 193.138 61.5954 191.2 63.9039 190.899C64.7069 190.799 65.5434 191.166 65.8779 191.801C66.0452 192.102 66.1121 192.47 66.0118 192.871C65.9114 193.238 65.6437 193.673 65.1084 194.04C64.1047 194.575 62.8333 195.712 61.8296 197.048C60.7924 198.385 60.0228 199.956 59.9225 201.36C59.7217 202.362 58.9187 202.93 58.1157 202.93Z" fill="black"/>
<path d="M88.1611 72.4217C86.187 68.7454 89.4994 67.2749 90.8711 68.6451C93.9827 72.2546 99.8713 72.4217 101.812 71.3522C104.723 70.1156 105.593 75.1956 103.786 75.8974C98.4326 77.9695 90.0681 75.9642 88.1611 72.4217Z" fill="black"/>
<path d="M133.931 21.3894C132.09 25.1325 127.574 22.6594 127.741 21.4562C129.514 16.3763 125.867 11.8311 123.86 10.8953C121.35 8.38878 124.495 4.87961 126.503 5.61487C131.856 7.48642 135.704 17.7465 133.931 21.3894Z" fill="black"/>
<path d="M169.195 130.574C167.69 126.697 171.705 125.059 173.411 126.931C175.418 131.543 189.504 134.751 191.578 133.414C194.924 132.913 195.058 137.057 192.984 138.16C186.894 141.369 170.667 134.35 169.195 130.574Z" fill="black"/>
<path d="M28.171 18.3145C26.7993 18.1473 25.829 16.9108 25.9963 15.574L27.5688 2.20572C27.7361 0.835477 28.974 -0.133721 30.3123 0.0333822C31.6841 0.200485 32.6544 1.43705 32.4871 2.77387L30.9146 16.1421C30.7473 17.5124 29.5428 18.4816 28.171 18.3145Z" fill="black"/>
<path d="M159.426 112.227C158.657 111.324 158.757 109.954 159.66 109.185L166.486 103.404C167.389 102.635 168.761 102.735 169.53 103.638C170.3 104.54 170.2 105.91 169.296 106.679L162.471 112.461C161.567 113.263 160.196 113.162 159.426 112.227Z" fill="black"/>
<path d="M184.285 109.987C183.884 108.85 184.453 107.614 185.557 107.213L193.955 104.105C195.092 103.704 196.33 104.272 196.732 105.375C197.133 106.511 196.564 107.748 195.46 108.149L187.062 111.257C185.958 111.658 184.72 111.09 184.285 109.987Z" fill="black"/>
<path d="M165.682 116.137C165.046 114.399 165.916 112.461 167.656 111.826L167.823 111.759C169.563 111.124 171.504 111.993 172.139 113.731C172.775 115.468 171.905 117.407 170.165 118.042L169.998 118.109C168.258 118.744 166.318 117.841 165.682 116.137Z" fill="black"/>
<path d="M192.281 115.1C191.646 113.362 192.516 111.424 194.255 110.789L194.423 110.722C196.163 110.087 198.103 110.956 198.739 112.694C199.375 114.432 198.505 116.37 196.765 117.005L196.597 117.072C194.858 117.707 192.917 116.838 192.281 115.1Z" fill="black"/>
<path d="M95.5217 92.5417C94.886 90.8038 95.7559 88.8654 97.4957 88.2304L97.663 88.1635C99.4028 87.5286 101.343 88.3975 101.979 90.1354C102.615 91.8732 101.745 93.8116 100.005 94.4466L99.8377 94.5135C98.0979 95.1485 96.1574 94.2795 95.5217 92.5417Z" fill="black"/>
<path d="M68.5544 91.7062C67.9187 89.9683 68.7886 88.0299 70.5284 87.3949L70.6957 87.3281C72.4355 86.6931 74.3761 87.562 75.0118 89.2999C75.6475 91.0378 74.7776 92.9762 73.0377 93.6112L72.8705 93.678C71.1307 94.313 69.1901 93.4441 68.5544 91.7062Z" fill="black"/>
<path d="M64.5728 48.4937C64.8404 47.09 66.1787 46.1542 67.6174 46.4216L122.388 56.6149C123.793 56.8822 124.73 58.2191 124.462 59.6562C124.194 61.0598 122.856 61.9956 121.417 61.7282L66.6471 51.535C65.2085 51.2342 64.3051 49.8973 64.5728 48.4937Z" fill="black"/>
<path d="M154.975 78.2038C154.942 76.7668 156.079 75.5636 157.485 75.5302L213.192 73.926C214.631 73.8926 215.835 75.0289 215.868 76.4326C215.902 77.8696 214.764 79.0728 213.359 79.1062L157.652 80.7104C156.213 80.7772 155.042 79.6409 154.975 78.2038Z" fill="black"/>
<path d="M49.8521 214.159C49.8521 212.722 51.0231 211.552 52.4618 211.552L248.223 211.819C249.662 211.819 250.833 212.989 250.833 214.426C250.833 215.863 249.662 217.033 248.223 217.033L52.4618 216.766C50.9896 216.766 49.8521 215.596 49.8521 214.159Z" fill="black"/>
<path d="M20.6765 25.2655C19.7062 26.2347 18.1337 26.2681 17.1634 25.2989L7.56106 15.8409C6.59078 14.8717 6.55733 13.3009 7.5276 12.3317C8.49787 11.3625 10.0704 11.3291 11.0407 12.2983L20.6096 21.7563C21.6133 22.7255 21.6468 24.2963 20.6765 25.2655Z" fill="black"/>
<path d="M234.304 95.3486C234.304 96.5518 233.334 97.521 232.13 97.521H222.527C221.323 97.521 220.353 96.5518 220.353 95.3486C220.353 94.1455 221.323 93.1763 222.527 93.1763H232.13C233.334 93.1763 234.304 94.1455 234.304 95.3486Z" fill="black"/>
<path d="M95.9229 75.096C94.7853 74.695 94.2165 73.425 94.6515 72.3221L97.9973 63.332C98.3988 62.1957 99.6702 61.6275 100.774 62.062C101.912 62.463 102.481 63.733 102.046 64.8359L98.6999 73.826C98.2984 74.9289 97.027 75.4971 95.9229 75.096Z" fill="black"/>
<path d="M173.645 97.0874C170.768 94.0795 174.047 92.4419 175.151 93.0101C179.668 95.4164 184.385 93.8456 186.426 92.6425C189.638 91.172 190.307 94.5474 188.936 96.1851C184.352 99.6608 176.824 99.761 173.645 97.0874Z" fill="black"/>
<path d="M181.408 97.3875C180.237 97.5212 179.133 96.6857 178.999 95.516L177.794 85.9911C177.661 84.8214 178.497 83.7185 179.668 83.5848C180.872 83.4512 181.943 84.2867 182.077 85.4564L183.281 94.9813C183.415 96.1844 182.579 97.2539 181.408 97.3875Z" fill="black"/>
<path d="M218.178 88.5641C217.542 87.5614 217.81 86.2246 218.814 85.5562L226.911 80.376C227.914 79.741 229.253 80.0084 229.922 81.011C230.557 82.0136 230.29 83.3504 229.286 84.0189L221.189 89.1991C220.152 89.8675 218.814 89.5667 218.178 88.5641Z" fill="black"/>
<path d="M18.3345 35.1592C18.1672 36.496 16.9627 37.4652 15.6244 37.2981L2.17439 35.7607C0.836084 35.5936 -0.134191 34.3905 -0.000359827 33.0537C0.166929 31.7168 1.37141 30.7476 2.70972 30.9147L16.1597 32.4521C17.5315 32.5858 18.5018 33.8223 18.3345 35.1592Z" fill="black"/>
<path d="M124.429 114.767C129.013 155.941 94.2166 149.558 76.7851 144.779L74.5435 150.193C128.611 165.433 133.429 132.647 128.578 112.762L124.429 114.767Z" fill="black"/>
<path d="M111.448 118.009L117.805 116.605C117.102 148.321 91.0384 142.172 78.5921 136.423C75.8485 134.886 77.9564 131.912 80.1311 132.413C107.834 141.069 110.778 127.233 111.448 118.009Z" fill="black"/>
<path d="M44.9332 151.429C45.067 152.799 44.0633 154.002 42.725 154.136L29.3084 155.473C27.9366 155.606 26.7322 154.604 26.5983 153.267C26.431 151.897 27.4348 150.693 28.7731 150.56L42.1896 149.223C43.5614 149.089 44.7993 150.092 44.9332 151.429Z" fill="black"/>
<path d="M49.0155 157.511C50.1865 158.247 50.5211 159.784 49.785 160.954L42.5916 172.317C41.8556 173.486 40.3165 173.821 39.1455 173.085C37.9745 172.35 37.6399 170.813 38.376 169.643L45.5694 158.28C46.3054 157.144 47.8445 156.776 49.0155 157.511Z" fill="black"/>
<path fill-rule="evenodd" clip-rule="evenodd" d="M104.823 102.434C105.492 102.902 105.827 103.671 105.726 104.473C104.522 112.527 97.4956 119.011 89.9007 120.281C86.0196 120.916 81.9377 120.214 78.3577 117.641C74.8112 115.067 72.0008 110.756 70.3614 104.573C70.1606 103.804 70.3948 103.002 70.997 102.468C71.5993 101.933 72.4357 101.799 73.1718 102.1C75.5808 103.103 80.4656 104.673 86.053 105.208C91.6404 105.743 97.6628 105.242 102.648 102.367C103.317 101.966 104.187 102 104.823 102.434ZM75.7146 107.414C77.1198 110.689 78.9265 112.895 80.8002 114.265C83.3429 116.137 86.2872 116.638 89.198 116.17C93.7483 115.401 98.0309 112.193 100.206 107.982C95.3543 109.62 90.1683 109.787 85.5846 109.352C81.8708 109.018 78.4581 108.216 75.7146 107.414Z" fill="black"/>
<path fill-rule="evenodd" clip-rule="evenodd" d="M193.687 83.8526C203.858 85.9247 212.992 91.6062 217.676 101.733C217.709 101.766 217.709 101.833 217.743 101.866C223.364 116.104 223.263 128.035 219.249 137.426C215.234 146.784 207.471 153.167 198.538 156.71C189.638 160.219 179.4 160.954 170.133 158.882C160.865 156.81 152.333 151.864 147.114 143.876C138.515 130.708 137.177 118.777 140.857 108.851C144.504 99.059 152.835 91.8067 162.504 87.5289C172.207 83.2176 183.549 81.7806 193.687 83.8526ZM146.11 110.79C143.166 118.677 143.935 128.803 151.798 140.801C156.047 147.318 163.173 151.563 171.37 153.401C179.568 155.239 188.668 154.604 196.497 151.496C204.326 148.388 210.784 142.94 214.129 135.22C217.442 127.533 217.776 117.173 212.59 104.005C208.81 95.9175 201.449 91.1383 192.583 89.3336C183.683 87.5289 173.512 88.7655 164.779 92.6423C156.047 96.4856 149.088 102.769 146.11 110.79Z" fill="black"/>
<path fill-rule="evenodd" clip-rule="evenodd" d="M146.812 170.11C147.95 170.679 148.385 172.049 147.849 173.152C147.281 174.255 147.08 175.725 148.05 177.296C149.087 179 151.797 181.206 158.154 183.078C159.359 183.412 160.061 184.682 159.693 185.885C159.359 187.088 158.087 187.79 156.883 187.422C150.058 185.45 146.076 182.777 144.169 179.669C142.195 176.46 142.697 173.285 143.767 171.113C144.336 170.01 145.708 169.542 146.812 170.11Z" fill="black"/>
<path fill-rule="evenodd" clip-rule="evenodd" d="M150.794 187.857C151.128 188.258 151.496 188.526 151.764 188.592C151.797 188.592 151.831 188.626 151.898 188.626C155.779 190.163 158.456 190.464 160.229 190.197C161.902 189.929 162.705 189.194 163.106 188.392C163.541 187.49 163.675 186.153 163.207 184.582C162.772 183.045 161.801 181.474 160.43 180.204C159.493 179.368 159.426 177.931 160.296 176.995C161.132 176.06 162.571 175.993 163.508 176.862C165.482 178.666 166.887 180.973 167.59 183.312C168.259 185.651 168.292 188.191 167.188 190.397C166.05 192.67 163.909 194.24 160.931 194.708C158.088 195.143 154.508 194.575 150.258 192.87C147.916 192.035 146.043 189.662 145.742 187.155C145.574 185.785 145.842 184.315 146.846 183.011C147.816 181.741 148.853 181.44 150.693 180.906C151.898 180.571 153.169 181.273 153.47 182.476C153.805 183.68 153.504 184.348 152.299 184.682C151.128 185.016 150.66 185.417 150.459 185.685C150.292 185.919 150.191 186.186 150.258 186.554C150.292 186.988 150.459 187.456 150.794 187.857Z" fill="black"/>
<path fill-rule="evenodd" clip-rule="evenodd" d="M229.519 161.889C230.222 160.853 229.921 159.45 228.884 158.748C227.579 157.879 226.006 157.545 224.467 157.478C222.895 157.411 221.188 157.578 219.449 157.946C216.003 158.681 212.289 160.185 209.211 162.09C206.233 163.961 203.389 166.468 202.419 169.476C201.883 171.08 201.883 172.784 202.653 174.455C203.322 175.926 204.493 177.163 206.066 178.232C206.166 179.301 206.534 180.404 207.303 181.407C208.675 183.245 211.051 184.415 214.229 185.083C215.467 185.351 216.672 184.548 216.939 183.345C217.207 182.109 216.404 180.906 215.2 180.638C212.523 180.07 211.385 179.235 210.95 178.666C210.616 178.199 210.482 177.63 210.783 176.728C211.084 175.792 211.787 174.689 212.791 173.653C213.761 172.617 214.898 171.815 215.802 171.381C216.939 170.846 217.408 169.476 216.839 168.339C216.304 167.203 214.932 166.735 213.794 167.303C212.356 168.005 210.817 169.175 209.512 170.512C208.709 171.347 207.939 172.283 207.337 173.353C207.069 173.052 206.902 172.784 206.802 172.55C206.567 172.049 206.534 171.514 206.735 170.879C207.203 169.442 208.876 167.638 211.62 165.933C214.263 164.296 217.475 162.992 220.386 162.391C221.824 162.09 223.162 161.956 224.233 162.023C225.337 162.09 226.006 162.324 226.374 162.558C227.445 163.226 228.85 162.925 229.519 161.889Z" fill="black"/>
<path fill-rule="evenodd" clip-rule="evenodd" d="M234.17 167.437C233.033 168.005 232.598 169.375 233.133 170.478C233.702 171.581 233.902 173.052 232.932 174.622C231.895 176.327 229.185 178.533 222.828 180.404C221.623 180.738 220.921 182.008 221.289 183.212C221.657 184.415 222.895 185.117 224.099 184.749C230.925 182.777 234.906 180.103 236.813 176.995C238.787 173.787 238.285 170.612 237.215 168.44C236.646 167.337 235.308 166.902 234.17 167.437Z" fill="black"/>
<path fill-rule="evenodd" clip-rule="evenodd" d="M230.189 185.217C229.854 185.618 229.486 185.885 229.218 185.952C229.185 185.952 229.151 185.985 229.085 185.985C225.203 187.523 222.527 187.824 220.754 187.556C219.081 187.289 218.278 186.554 217.876 185.751C217.441 184.849 217.307 183.512 217.776 181.942C218.211 180.404 219.181 178.833 220.553 177.563C221.49 176.728 221.557 175.291 220.687 174.355C219.85 173.419 218.412 173.352 217.475 174.221C215.501 176.026 214.095 178.332 213.393 180.672C212.724 183.011 212.69 185.551 213.794 187.757C214.932 190.029 217.073 191.6 220.051 192.068C222.895 192.502 226.475 191.934 230.724 190.23C233.066 189.394 234.94 187.021 235.241 184.515C235.408 183.145 235.14 181.674 234.137 180.371C233.166 179.101 232.129 178.8 230.289 178.265C229.085 177.931 227.847 178.633 227.512 179.836C227.177 181.039 227.479 181.708 228.683 182.042C229.854 182.376 230.322 182.777 230.523 183.044C230.691 183.278 230.791 183.546 230.724 183.913C230.724 184.348 230.523 184.782 230.189 185.217Z" fill="black"/>
<path fill-rule="evenodd" clip-rule="evenodd" d="M79.3279 137.626C80.5993 137.659 81.603 136.657 81.6365 135.387C81.6699 133.816 81.1011 132.312 80.3316 130.975C79.5621 129.605 78.458 128.268 77.22 127.032C74.7442 124.525 71.4988 122.219 68.2199 120.648C65.0414 119.144 61.3945 118.108 58.3164 118.877C56.677 119.278 55.2383 120.214 54.2346 121.785C53.3647 123.121 52.9632 124.792 52.8963 126.697C52.0264 127.366 51.3238 128.268 50.8888 129.438C50.0858 131.577 50.3869 134.217 51.5245 137.258C51.9595 138.428 53.2643 139.03 54.4688 138.595C55.6398 138.161 56.242 136.857 55.8071 135.688C54.8368 133.114 54.9372 131.744 55.2049 131.076C55.4056 130.541 55.8405 130.14 56.7439 129.906C57.7142 129.638 59.019 129.672 60.4243 129.939C61.8295 130.207 63.1009 130.708 63.9373 131.243C65.008 131.911 66.4132 131.543 67.0489 130.474C67.7181 129.404 67.35 128.001 66.2794 127.366C64.9076 126.53 63.1009 125.862 61.2942 125.494C60.1566 125.26 58.9521 125.127 57.7476 125.193C57.848 124.826 57.9818 124.525 58.1491 124.291C58.4503 123.823 58.8852 123.522 59.5209 123.355C60.993 122.988 63.4355 123.422 66.3463 124.826C69.1567 126.163 71.9672 128.201 74.075 130.307C75.1122 131.376 75.9152 132.412 76.4505 133.348C76.9858 134.317 77.1531 135.019 77.1531 135.454C77.0528 136.556 78.0565 137.593 79.3279 137.626Z" fill="black"/>
<path fill-rule="evenodd" clip-rule="evenodd" d="M77.1202 144.544C76.0495 143.909 74.6443 144.244 74.0086 145.313C73.3729 146.383 72.2688 147.352 70.4286 147.385C68.4546 147.419 65.1088 146.349 60.1236 141.971C59.1868 141.136 57.7481 141.236 56.9117 142.172C56.0752 143.107 56.1756 144.544 57.1124 145.38C62.4657 150.059 66.8486 151.964 70.4955 151.93C74.2762 151.864 76.6852 149.725 77.9231 147.653C78.5254 146.583 78.1908 145.179 77.1202 144.544Z" fill="black"/>
<path fill-rule="evenodd" clip-rule="evenodd" d="M59.9901 150.727C59.4548 150.66 59.0533 150.493 58.8191 150.293C58.7856 150.259 58.7522 150.226 58.7187 150.226C55.3395 147.82 53.6331 145.681 52.8971 144.077C52.2279 142.539 52.4287 141.47 52.8971 140.668C53.4324 139.799 54.503 138.997 56.0421 138.529C57.5811 138.094 59.4213 138.027 61.228 138.529C62.4325 138.863 63.6704 138.128 64.005 136.925C64.3396 135.721 63.6035 134.485 62.3991 134.151C59.7894 133.449 57.1127 133.516 54.7707 134.184C52.4287 134.852 50.2874 136.223 49.016 138.328C47.7111 140.501 47.5438 143.174 48.7483 145.915C49.9193 148.555 52.2948 151.229 56.0086 153.902C57.9492 155.44 60.9604 155.74 63.269 154.637C64.5069 154.036 65.611 153 66.1798 151.496C66.7486 149.992 66.4474 148.956 65.8787 147.118C65.5106 145.915 64.2392 145.246 63.0348 145.614C61.8303 145.982 61.4288 146.583 61.7968 147.786C62.1649 148.923 62.0645 149.591 61.9307 149.892C61.8303 150.159 61.6295 150.393 61.295 150.527C60.9938 150.694 60.492 150.794 59.9901 150.727Z" fill="black"/>
<path d="M100.372 65.0365C66.4126 58.7869 40.0814 83.7855 58.617 122.019L53.6652 127.667C29.4753 73.8596 71.3309 53.1054 101.777 59.9232C144.202 72.0883 141.559 118.911 130.116 124.659C118.674 130.407 130.551 115.502 131.02 113.53C135.737 93.0096 119.175 68.5123 100.372 65.0365Z" fill="black"/>
<path d="M124.43 114.766C124.062 109.319 127.675 110.355 128.578 112.761C128.378 114.265 128.01 117.607 126.671 117.373C125.333 117.139 124.597 115.568 124.43 114.766Z" fill="black"/>
<path d="M111.447 118.008C111.447 114.231 117.436 111.758 117.804 116.604C117.268 118.643 115.228 121.785 111.447 118.008Z" fill="black"/>
</svg>
