<svg width="188" height="18" viewBox="0 0 188 18" fill="none" xmlns="http://www.w3.org/2000/svg">
<path d="M172.404 4.30481H173.695C174.318 4.30481 174.93 4.47215 174.93 5.17128C174.93 5.49109 174.75 5.76999 174.547 5.89643C174.832 6.02287 175.061 6.24227 175.061 6.69224C175.061 7.42483 174.48 7.70002 173.778 7.70002H172.401V4.30481H172.404ZM173.005 5.72537H173.752C174.108 5.72537 174.318 5.57662 174.318 5.23821C174.318 4.937 174.093 4.78453 173.752 4.78453H173.005V5.72537ZM173.005 7.22774H173.804C174.236 7.22774 174.442 7.03437 174.442 6.69968C174.442 6.3464 174.228 6.18277 173.77 6.18277H173.005V7.22774Z" fill="black"/>
<path d="M175.86 4.30481H178.288V4.80312H176.461V5.71421H178.187V6.20509H176.461V7.20171H178.288V7.70374H175.86V4.30481Z" fill="black"/>
<path d="M179.842 4.80312H178.765V4.30481H181.523V4.80312H180.446V7.70374H179.846V4.80312H179.842Z" fill="black"/>
<path d="M182.157 4.30481H184.585V4.80312H182.758V5.71421H184.484V6.20509H182.758V7.20171H184.585V7.70374H182.157V4.30481Z" fill="black"/>
<path d="M186.544 4.30481C187.295 4.30481 188 4.42381 188 5.37209C188 6.23112 187.362 6.41706 186.552 6.41706H186.011V7.70002H185.411V4.30481H186.544ZM186.015 4.78453V5.93362H186.574C187.028 5.93362 187.377 5.86668 187.377 5.37953C187.377 4.82915 186.964 4.78453 186.544 4.78453H186.015Z" fill="black"/>
<path d="M21.8174 10.1692V10.2696H15.3292L15.2692 9.99071C15.029 8.88253 13.9708 8.11275 11.3178 8.11275H10.5597C7.76407 8.11275 6.18799 8.92343 6.18799 11.0022V11.1621C6.18799 13.2372 7.76407 14.0516 10.5597 14.0516H11.3178C13.9708 14.0516 15.029 13.2818 15.2692 12.1736L15.3292 11.8947H21.8174V11.9951C21.8174 16.0485 18.0836 18.0083 11.2577 18.0083H10.6198C3.59121 18.0009 0 16.0634 0 11.2365V10.9204C0 6.09347 3.59121 4.15601 10.6198 4.15601H11.2577C18.0836 4.15601 21.8174 6.11578 21.8174 10.1692Z" fill="#24272A"/>
<path d="M22.8906 4.35303H40.4564V8.30977H28.8797V9.59645H38.7415V12.564H28.8797V13.8507H40.4564V17.8074H22.8906V4.35303Z" fill="#24272A"/>
<path d="M54.1645 17.8037H41.5709V4.35303H53.9056C59.3956 4.35303 60.9905 5.28271 60.9905 7.95277V8.09036C60.9905 9.27664 60.3113 10.5038 58.5738 10.9984C60.5702 11.374 61.2494 12.5194 61.2494 13.847V13.9846C61.2494 16.6174 59.7746 17.8037 54.1645 17.8037ZM47.5187 8.13127V9.83073H53.1889C54.5661 9.83073 54.9451 9.59274 54.9451 9.00146V8.96055C54.9451 8.36555 54.5661 8.13127 53.1889 8.13127H47.5187ZM55.204 13.1181C55.204 12.5231 54.825 12.2479 53.4478 12.2479H47.5187V14.0292H53.4478C54.825 14.0292 55.204 13.7503 55.204 13.159V13.1181Z" fill="#24272A"/>
<path d="M62.2251 4.35303H79.7909V8.30977H68.2142V9.59645H78.076V12.564H68.2142V13.8507H79.7909V17.8074H62.2251V4.35303Z" fill="#24272A"/>
<path d="M93.06 14.3639H86.8907V17.8037H80.9054V4.35303H93.06C97.7094 4.35303 100.025 5.58021 100.025 9.25805V9.45514C100.028 13.1367 97.7132 14.3639 93.06 14.3639ZM94.0394 9.33986C94.0394 8.52917 93.439 8.30977 92.4033 8.30977H86.8945V10.4071H92.4033C93.4427 10.4071 94.0394 10.1915 94.0394 9.37705V9.33986Z" fill="#24272A"/>
<path d="M115.253 17.8037V13.0958H106.989V17.8037H101V4.35303H106.989V8.82296H115.253V4.35303H121.242V17.8037H115.253Z" fill="#24272A"/>
<path d="M141.337 12.7016V12.8987C141.337 16.5765 139.021 17.8037 134.372 17.8037H122.518V4.35303H128.507V7.79286H134.376C139.021 7.79658 141.337 9.02005 141.337 12.7016ZM135.351 12.8206V12.7797C135.351 11.9504 134.751 11.7496 133.715 11.7496H128.507V13.847H133.715C134.751 13.847 135.351 13.6499 135.351 12.8206ZM142.057 17.8037V4.35303H148.046V17.8037H142.057Z" fill="#24272A"/>
<path d="M163.927 4.35303L155.105 11.9504V4.35303H149.318V17.8037H155.105L163.927 10.21V17.8037H169.717V4.35303H163.927Z" fill="#24272A"/>
<path d="M163.927 0.991333H155.105V2.83955H163.927V0.991333Z" fill="#24272A"/>
</svg>
